<?xml version="1.0" encoding="UTF-8" standalone="no"?>
<!DOCTYPE svg PUBLIC "-//W3C//DTD SVG 1.1//EN" "http://www.w3.org/Graphics/SVG/1.1/DTD/svg11.dtd">
<!-- Generated by Microsoft Visio, SVG Export intervals-update-1.svg Page-1 -->
<svg xmlns="http://www.w3.org/2000/svg" xmlns:xlink="http://www.w3.org/1999/xlink" xmlns:ev="http://www.w3.org/2001/xml-events"
		xmlns:v="http://schemas.microsoft.com/visio/2003/SVGExtensions/" width="4.97712in" height="1.89415in"
		viewBox="0 0 358.352 136.379" xml:space="preserve" color-interpolation-filters="sRGB" class="st11">
	<v:documentProperties v:langID="1033" v:metric="true" v:viewMarkup="false">
		<v:userDefs>
			<v:ud v:nameU="msvConvertTheme"/>
		</v:userDefs>
	</v:documentProperties>

	<style type="text/css">
	<![CDATA[
		.st1 {fill:none}
		.st2 {stroke:none;stroke-linecap:round;stroke-linejoin:round;stroke-width:1.5}
		.st3 {stroke:#000000;stroke-linecap:round;stroke-linejoin:round;stroke-width:1.5}
		.st4 {fill:none;stroke:none;stroke-linecap:round;stroke-linejoin:round;stroke-width:1.5;visibility:hidden}
		.st5 {fill:#000000;font-family:Arial;font-size:1.99999em}
		.st6 {baseline-shift:-32.4951%;font-size:0.649901em}
		.st7 {baseline-shift:-32.4951%;font-family:Calibri;font-size:0.649901em}
		.st8 {fill:#0000aa}
		.st9 {stroke:#0000aa;stroke-linecap:round;stroke-linejoin:round;stroke-width:1.5}
		.st10 {fill:#0000aa;stroke:#0000aa;stroke-linecap:round;stroke-linejoin:round;stroke-width:1.5;visibility:hidden}
		.st11 {fill:none;fill-rule:evenodd;font-size:12px;overflow:visible;stroke-linecap:square;stroke-miterlimit:3}
	]]>
	</style>

	<g v:mID="0" v:index="1" v:groupContext="foregroundPage">
		<title>Page-1</title>
		<v:pageProperties v:drawingScale="0.0393701" v:pageScale="0.0393701" v:drawingUnits="24" v:shadowOffsetX="8.50394"
				v:shadowOffsetY="-8.50394"/>
		<g id="group200-1" transform="translate(3.27165,-29.0266)" v:mID="200" v:groupContext="group">
			<title>Sheet.200</title>
			<g id="group49-2" transform="translate(1.59872E-14,-49.2333)" v:mID="49" v:groupContext="group">
				<v:userDefs>
					<v:ud v:nameU="visVersion" v:val="VT0(15):26"/>
				</v:userDefs>
				<title>2-D single.49</title>
				<desc>v1</desc>
				<g id="shape50-3" v:mID="50" v:groupContext="shape">
					<title>Sheet.50</title>
					<path d="M0 129.29 L77.95 129.29 L77.95 136.38 L85.04 122.21 L77.95 108.03 L77.95 115.12 L0 115.12 L0 129.29 Z"
							class="st1"/>
					<path d="M0 129.29 L77.95 129.29 L77.95 136.38 L85.04 122.21 L77.95 108.03 L77.95 115.12 L0 115.12" class="st2"/>
				</g>
				<g id="shape51-6" v:mID="51" v:groupContext="shape">
					<title>Sheet.51</title>
					<path d="M0 129.29 L77.95 129.29 L77.95 136.38 L85.04 122.21 L77.95 108.03 L77.95 115.12 L0 115.12 L0 129.29"
							class="st3"/>
				</g>
				<g id="shape52-9" v:mID="52" v:groupContext="shape" transform="translate(-3.27165,-8.58661)">
					<title>Sheet.52</title>
					<rect x="0" y="125.206" width="3" height="11.1732" class="st4"/>
				</g>
				<g id="shape49-11" v:mID="49" v:groupContext="groupContent">
					<v:textBlock v:margins="rect(4,4,4,4)" v:tabSpace="42.5197"/>
					<v:textRect cx="42.5197" cy="122.206" width="85.04" height="28.3465"/>
					<text x="32.18" y="100.61" class="st5" v:langID="1033"><v:paragraph v:horizAlign="1"/><v:tabList/>v<tspan
								dy="-0.287em" class="st6" v:baseFontSize="24">1</tspan><v:newlineChar/><v:newlineChar/></text>				</g>
			</g>
			<g id="group53-14" transform="translate(85.0394,-49.2333)" v:mID="53" v:groupContext="group">
				<v:userDefs>
					<v:ud v:nameU="visVersion" v:val="VT0(15):26"/>
				</v:userDefs>
				<title>2-D single.53</title>
				<desc>v2</desc>
				<g id="shape54-15" v:mID="54" v:groupContext="shape">
					<title>Sheet.54</title>
					<path d="M0 129.29 L120.47 129.29 L120.47 136.38 L127.56 122.21 L120.47 108.03 L120.47 115.12 L0 115.12 L0 129.29
								 Z" class="st1"/>
					<path d="M0 129.29 L120.47 129.29 L120.47 136.38 L127.56 122.21 L120.47 108.03 L120.47 115.12 L0 115.12"
							class="st2"/>
				</g>
				<g id="shape55-18" v:mID="55" v:groupContext="shape">
					<title>Sheet.55</title>
					<path d="M0 129.29 L120.47 129.29 L120.47 136.38 L127.56 122.21 L120.47 108.03 L120.47 115.12 L0 115.12 L0 129.29"
							class="st3"/>
				</g>
				<g id="shape56-21" v:mID="56" v:groupContext="shape" transform="translate(-4.15748,-8.58661)">
					<title>Sheet.56</title>
					<rect x="0" y="125.206" width="3" height="11.1732" class="st4"/>
				</g>
				<g id="shape53-23" v:mID="53" v:groupContext="groupContent">
					<v:textBlock v:margins="rect(4,4,4,4)" v:tabSpace="42.5197"/>
					<v:textRect cx="63.7795" cy="122.206" width="127.56" height="28.3465"/>
					<text x="53.44" y="100.61" class="st5" v:langID="1033"><v:paragraph v:horizAlign="1"/><v:tabList/>v<tspan
								dy="-0.287em" class="st6" v:baseFontSize="24">2</tspan><v:newlineChar/><v:newlineChar/></text>				</g>
			</g>
			<g id="group64-26" transform="translate(269.291,-49.9793)" v:mID="64" v:groupContext="group">
				<v:userDefs>
					<v:ud v:nameU="visVersion" v:val="VT0(15):26"/>
				</v:userDefs>
				<title>2-D single.64</title>
				<desc>v4</desc>
				<g id="shape65-27" v:mID="65" v:groupContext="shape">
					<title>Sheet.65</title>
					<path d="M0 129.29 L77.95 129.29 L77.95 136.38 L85.04 122.21 L77.95 108.03 L77.95 115.12 L0 115.12 L0 129.29 Z"
							class="st1"/>
					<path d="M0 129.29 L77.95 129.29 L77.95 136.38 L85.04 122.21 L77.95 108.03 L77.95 115.12 L0 115.12" class="st2"/>
				</g>
				<g id="shape66-30" v:mID="66" v:groupContext="shape">
					<title>Sheet.66</title>
					<path d="M0 129.29 L77.95 129.29 L77.95 136.38 L85.04 122.21 L77.95 108.03 L77.95 115.12 L0 115.12 L0 129.29"
							class="st3"/>
				</g>
				<g id="shape67-33" v:mID="67" v:groupContext="shape" transform="translate(-3.27165,-8.58661)">
					<title>Sheet.67</title>
					<rect x="0" y="125.206" width="3" height="11.1732" class="st4"/>
				</g>
				<g id="shape64-35" v:mID="64" v:groupContext="groupContent">
					<v:textBlock v:margins="rect(4,4,4,4)" v:tabSpace="42.5197"/>
					<v:textRect cx="42.5197" cy="122.206" width="85.04" height="28.3465"/>
					<text x="32.57" y="100.79" class="st5" v:langID="1033"><v:paragraph v:horizAlign="1"/><v:tabList/>v<tspan
								dy="-0.284em" class="st7" v:langID="1049" v:baseFontSize="24">4</tspan><v:newlineChar/><v:newlineChar/></text>				</g>
			</g>
			<g id="group72-38" transform="translate(212.598,-49.2333)" v:mID="72" v:groupContext="group">
				<v:userDefs>
					<v:ud v:nameU="visVersion" v:val="VT0(15):26"/>
				</v:userDefs>
				<title>2-D single.72</title>
				<desc>v3</desc>
				<g id="shape73-39" v:mID="73" v:groupContext="shape">
					<title>Sheet.73</title>
					<path d="M0 129.29 L49.61 129.29 L49.61 136.38 L56.69 122.21 L49.61 108.03 L49.61 115.12 L0 115.12 L0 129.29 Z"
							class="st1"/>
					<path d="M0 129.29 L49.61 129.29 L49.61 136.38 L56.69 122.21 L49.61 108.03 L49.61 115.12 L0 115.12" class="st2"/>
				</g>
				<g id="shape74-42" v:mID="74" v:groupContext="shape">
					<title>Sheet.74</title>
					<path d="M0 129.29 L49.61 129.29 L49.61 136.38 L56.69 122.21 L49.61 108.03 L49.61 115.12 L0 115.12 L0 129.29"
							class="st3"/>
				</g>
				<g id="shape75-45" v:mID="75" v:groupContext="shape" transform="translate(-2.6811,-8.58661)">
					<title>Sheet.75</title>
					<rect x="0" y="125.206" width="3" height="11.1732" class="st4"/>
				</g>
				<g id="shape72-47" v:mID="72" v:groupContext="groupContent">
					<v:textBlock v:margins="rect(4,4,4,4)" v:tabSpace="42.5197"/>
					<v:textRect cx="28.3465" cy="122.206" width="56.7" height="28.3465"/>
					<text x="18.01" y="100.61" class="st5" v:langID="1033"><v:paragraph v:horizAlign="1"/><v:tabList/>v<tspan
								dy="-0.287em" class="st6" v:baseFontSize="24">3</tspan><v:newlineChar/><v:newlineChar/></text>				</g>
			</g>
			<g id="group84-50" transform="translate(56.6929,-1.98952E-13)" v:mID="84" v:groupContext="group">
				<v:userDefs>
					<v:ud v:nameU="visVersion" v:val="VT0(15):26"/>
				</v:userDefs>
				<title>2-D single.84</title>
				<desc>vn</desc>
				<g id="shape85-51" v:mID="85" v:groupContext="shape">
					<title>Sheet.85</title>
					<path d="M0 129.29 L233.86 129.29 L233.86 136.38 L240.94 122.21 L233.86 108.03 L233.86 115.12 L0 115.12 L0 129.29
								 Z" class="st8"/>
					<path d="M0 129.29 L233.86 129.29 L233.86 136.38 L240.94 122.21 L233.86 108.03 L233.86 115.12 L0 115.12"
							class="st2"/>
				</g>
				<g id="shape86-54" v:mID="86" v:groupContext="shape">
					<title>Sheet.86</title>
					<path d="M0 129.29 L233.86 129.29 L233.86 136.38 L240.94 122.21 L233.86 108.03 L233.86 115.12 L0 115.12 L0 129.29"
							class="st9"/>
				</g>
				<g id="shape87-57" v:mID="87" v:groupContext="shape" transform="translate(-6.51969,-8.58661)">
					<title>Sheet.87</title>
					<rect x="0" y="125.206" width="3" height="11.1732" class="st10"/>
				</g>
				<g id="shape84-59" v:mID="84" v:groupContext="groupContent">
					<v:textBlock v:margins="rect(4,4,4,4)" v:tabSpace="42.5197"/>
					<v:textRect cx="120.472" cy="122.206" width="240.95" height="28.3465"/>
					<text x="110.14" y="100.61" class="st5" v:langID="1033"><v:paragraph v:horizAlign="1"/><v:tabList/>v<tspan
								dy="-0.287em" class="st6" v:baseFontSize="24">n</tspan><v:newlineChar/><v:newlineChar/></text>				</g>
			</g>
			<g id="group112-62" v:mID="112" v:groupContext="group">
				<v:userDefs>
					<v:ud v:nameU="visVersion" v:val="VT0(15):26"/>
				</v:userDefs>
				<title>2-D single.112</title>
				<desc>v1</desc>
				<g id="shape113-63" v:mID="113" v:groupContext="shape">
					<title>Sheet.113</title>
					<path d="M0 129.29 L49.61 129.29 L49.61 136.38 L56.69 122.21 L49.61 108.03 L49.61 115.12 L0 115.12 L0 129.29 Z"
							class="st1"/>
					<path d="M0 129.29 L49.61 129.29 L49.61 136.38 L56.69 122.21 L49.61 108.03 L49.61 115.12 L0 115.12" class="st2"/>
				</g>
				<g id="shape114-66" v:mID="114" v:groupContext="shape">
					<title>Sheet.114</title>
					<path d="M0 129.29 L49.61 129.29 L49.61 136.38 L56.69 122.21 L49.61 108.03 L49.61 115.12 L0 115.12 L0 129.29"
							class="st3"/>
				</g>
				<g id="shape115-69" v:mID="115" v:groupContext="shape" transform="translate(-2.6811,-8.58661)">
					<title>Sheet.115</title>
					<rect x="0" y="125.206" width="3" height="11.1732" class="st4"/>
				</g>
				<g id="shape112-71" v:mID="112" v:groupContext="groupContent">
					<v:textBlock v:margins="rect(4,4,4,4)" v:tabSpace="42.5197"/>
					<v:textRect cx="28.3465" cy="122.206" width="56.7" height="28.3465"/>
					<text x="18.01" y="100.61" class="st5" v:langID="1033"><v:paragraph v:horizAlign="1"/><v:tabList/>v<tspan
								dy="-0.287em" class="st6" v:baseFontSize="24">1</tspan><v:newlineChar/><v:newlineChar/></text>				</g>
			</g>
			<g id="group116-74" transform="translate(297.638,8.52651E-14)" v:mID="116" v:groupContext="group">
				<v:userDefs>
					<v:ud v:nameU="visVersion" v:val="VT0(15):26"/>
				</v:userDefs>
				<title>2-D single.116</title>
				<desc>v4</desc>
				<g id="shape117-75" v:mID="117" v:groupContext="shape">
					<title>Sheet.117</title>
					<path d="M0 129.29 L49.61 129.29 L49.61 136.38 L56.69 122.21 L49.61 108.03 L49.61 115.12 L0 115.12 L0 129.29 Z"
							class="st1"/>
					<path d="M0 129.29 L49.61 129.29 L49.61 136.38 L56.69 122.21 L49.61 108.03 L49.61 115.12 L0 115.12" class="st2"/>
				</g>
				<g id="shape118-78" v:mID="118" v:groupContext="shape">
					<title>Sheet.118</title>
					<path d="M0 129.29 L49.61 129.29 L49.61 136.38 L56.69 122.21 L49.61 108.03 L49.61 115.12 L0 115.12 L0 129.29"
							class="st3"/>
				</g>
				<g id="shape119-81" v:mID="119" v:groupContext="shape" transform="translate(-2.6811,-8.58661)">
					<title>Sheet.119</title>
					<rect x="0" y="125.206" width="3" height="11.1732" class="st4"/>
				</g>
				<g id="shape116-83" v:mID="116" v:groupContext="groupContent">
					<v:textBlock v:margins="rect(4,4,4,4)" v:tabSpace="42.5197"/>
					<v:textRect cx="28.3465" cy="122.206" width="56.7" height="28.3465"/>
					<text x="18.39" y="100.79" class="st5" v:langID="1033"><v:paragraph v:horizAlign="1"/><v:tabList/>v<tspan
								dy="-0.284em" class="st7" v:langID="1049" v:baseFontSize="24">4</tspan><v:newlineChar/><v:newlineChar/></text>				</g>
			</g>
		</g>
	</g>
</svg>
