<?xml version="1.0" encoding="UTF-8" standalone="no"?>
<!DOCTYPE svg PUBLIC "-//W3C//DTD SVG 1.1//EN" "http://www.w3.org/Graphics/SVG/1.1/DTD/svg11.dtd">
<!-- Generated by Microsoft Visio, SVG Export ActiveComponent.svg Page-1 -->
<svg xmlns="http://www.w3.org/2000/svg" xmlns:xlink="http://www.w3.org/1999/xlink" xmlns:ev="http://www.w3.org/2001/xml-events"
		width="4.282in" height="2.61824in" viewBox="0 0 308.304 188.513" xml:space="preserve" color-interpolation-filters="sRGB"
		class="st11">
	<style type="text/css">
	<![CDATA[
		.st1 {fill:#e8eef7;stroke:#000000;stroke-linecap:round;stroke-linejoin:round;stroke-width:1}
		.st2 {fill:#000000;font-family:Calibri;font-size:1.33333em}
		.st3 {stroke:#000000;stroke-linecap:round;stroke-linejoin:round;stroke-width:1}
		.st4 {fill:#e8eef7;marker-end:url(#mrkr13-17);stroke:#000000;stroke-linecap:round;stroke-linejoin:round;stroke-width:1}
		.st5 {fill:#000000;fill-opacity:1;stroke:#000000;stroke-opacity:1;stroke-width:0.28409090909091}
		.st6 {marker-end:url(#mrkr13-17);stroke:#000000;stroke-linecap:round;stroke-linejoin:round;stroke-width:1}
		.st7 {fill:none;marker-end:url(#mrkr13-17);stroke:none;stroke-linecap:round;stroke-linejoin:round;stroke-width:1}
		.st8 {fill:#000000;font-family:Calibri;font-size:0.666664em}
		.st9 {fill:#000000;font-family:Arial;font-size:0.666664em}
		.st10 {font-size:1em}
		.st11 {fill:none;fill-rule:evenodd;font-size:12px;overflow:visible;stroke-linecap:square;stroke-miterlimit:3}
	]]>
	</style>

	<defs id="Markers">
		<g id="lend13">
			<path d="M 3 1 L 0 0 L 3 -1 L 3 1 " style="stroke:none"/>
		</g>
		<marker id="mrkr13-17" class="st5" refX="-10.56" orient="auto" markerUnits="strokeWidth" overflow="visible">
			<use xlink:href="#lend13" transform="scale(-3.52,-3.52) "/>
		</marker>
	</defs>
	<g>
		<title>Page-1</title>
		<g id="group86-1" transform="translate(11.1312,-3.76114)">
			<title>Sheet.86</title>
			<g id="shape32-2" transform="translate(14.1732,-155.906)">
				<title>Sheet.32</title>
				<desc>Компонента</desc>
				<rect x="0" y="160.167" width="113.386" height="28.3465" class="st1"/>
				<text x="14.87" y="179.14" class="st2">Компонента</text>			</g>
			<g id="shape33-5" transform="translate(155.906,-155.906)">
				<title>Sheet.33</title>
				<desc>Модель</desc>
				<rect x="0" y="160.167" width="113.386" height="28.3465" class="st1"/>
				<text x="29.35" y="179.14" class="st2">Модель</text>			</g>
			<g id="shape34-8" transform="translate(259.379,32.6076) rotate(90)">
				<title>Sheet.34</title>
				<path d="M0 188.51 L155.91 188.51" class="st3"/>
			</g>
			<g id="shape35-11" transform="translate(401.112,32.6076) rotate(90)">
				<title>Sheet.35</title>
				<path d="M0 188.51 L155.91 188.51" class="st3"/>
			</g>
			<g id="shape36-14" transform="translate(63.7795,-113.386)">
				<title>Sheet.36</title>
				<rect x="0" y="153.08" width="14.1732" height="35.4331" class="st4"/>
			</g>
			<g id="shape37-18" transform="translate(79.2412,-134.646)">
				<title>Sheet.37</title>
				<path d="M0 188.51 L117 188.51" class="st6"/>
			</g>
			<g id="shape38-23" transform="translate(0,-26.2205)">
				<title>Sheet.38</title>
				<path d="M0 188.51 L54.51 188.51" class="st6"/>
			</g>
			<g id="shape39-28" transform="translate(1.28848,-141.732)">
				<title>Sheet.39</title>
				<desc>Создание</desc>
				<rect x="0" y="174.623" width="65.068" height="13.8898" class="st7"/>
				<text x="16.16" y="183.97" class="st8">Создание</text>			</g>
			<g id="shape40-32" transform="translate(79.2412,-134.646)">
				<title>Sheet.40</title>
				<desc>Добавление слушателя</desc>
				<rect x="0" y="174.34" width="127.559" height="14.1732" class="st7"/>
				<text x="19.54" y="183.83" class="st9">Добавление слушателя</text>			</g>
			<g id="shape41-36" transform="translate(205.512,-113.386)">
				<title>Sheet.41</title>
				<rect x="0" y="160.167" width="14.1732" height="28.3465" class="st4"/>
			</g>
			<g id="shape42-39" transform="translate(205.512,-77.9528)">
				<title>Sheet.42</title>
				<rect x="0" y="160.167" width="14.1732" height="28.3465" class="st4"/>
			</g>
			<g id="shape43-42" transform="translate(205.512,-49.6063)">
				<title>Sheet.43</title>
				<rect x="0" y="174.34" width="14.1732" height="14.1732" class="st4"/>
			</g>
			<g id="shape44-45" transform="translate(63.7795,-85.0394)">
				<title>Sheet.44</title>
				<rect x="0" y="174.34" width="14.1732" height="14.1732" class="st4"/>
			</g>
			<g id="shape45-48" transform="translate(63.7795,-42.5197)">
				<title>Sheet.45</title>
				<rect x="0" y="160.167" width="14.1732" height="28.3465" class="st4"/>
			</g>
			<g id="shape46-51" transform="translate(284.753,277.814) rotate(180)">
				<title>Sheet.46</title>
				<path d="M0 188.51 L53.22 188.51" class="st6"/>
			</g>
			<g id="shape47-56" transform="translate(220.974,-99.2126)">
				<title>Sheet.47</title>
				<desc>Модификация</desc>
				<rect x="0" y="174.34" width="63.7795" height="14.1732" class="st7"/>
				<text x="7.31" y="183.83" class="st8">Модификация</text>			</g>
			<g id="shape48-60" transform="translate(206.8,284.9) rotate(180)">
				<title>Sheet.48</title>
				<path d="M0 188.51 L117 188.51" class="st6"/>
			</g>
			<g id="shape49-65" transform="translate(79.2412,-92.126)">
				<title>Sheet.49</title>
				<desc>Извещение слушателя</desc>
				<rect x="0" y="174.34" width="127.559" height="14.1732" class="st7"/>
				<text x="21.1" y="183.83" class="st9">Извещение слушателя</text>			</g>
			<g id="shape50-69" transform="translate(7.99361E-015,-85.0394)">
				<title>Sheet.50</title>
				<desc>Перерисовка</desc>
				<rect x="0" y="174.623" width="65.068" height="13.8898" class="st7"/>
				<text x="10.21" y="183.97" class="st8">Перерисовка</text>			</g>
			<g id="shape51-73" transform="translate(79.2412,-56.6929)">
				<title>Sheet.51</title>
				<path d="M0 188.51 L117 188.51" class="st6"/>
			</g>
			<g id="shape52-78" transform="translate(79.2412,-56.6929)">
				<title>Sheet.52</title>
				<desc>Извещение слушателя</desc>
				<rect x="0" y="174.34" width="127.559" height="14.1732" class="st7"/>
				<text x="21.1" y="183.83" class="st9">Извещение слушателя</text>			</g>
			<g id="shape53-82" transform="translate(63.7795,-7.37008)">
				<title>Sheet.53</title>
				<rect x="0" y="160.167" width="14.1732" height="28.3465" class="st4"/>
			</g>
			<g id="shape54-85" transform="translate(79.2412,-21.5433)">
				<title>Sheet.54</title>
				<path d="M0 188.51 L117 188.51" class="st6"/>
			</g>
			<g id="shape55-90" transform="translate(7.99361E-015,-28.3465)">
				<title>Sheet.55</title>
				<desc>Уничтожение</desc>
				<rect x="0" y="174.623" width="65.068" height="13.8898" class="st7"/>
				<text x="9.55" y="183.97" class="st8">Уничтожение</text>			</g>
			<g id="shape56-94" transform="translate(79.2412,-21.5433)">
				<title>Sheet.56</title>
				<desc>Удаление слушателя</desc>
				<rect x="0" y="174.34" width="127.559" height="14.1732" class="st7"/>
				<text x="24.02" y="183.83" class="st9">Удаление слушателя</text>			</g>
			<g id="shape57-98" transform="translate(205.512,-14.4567)">
				<title>Sheet.57</title>
				<rect x="0" y="174.34" width="14.1732" height="14.1732" class="st4"/>
			</g>
			<g id="shape58-101" transform="translate(1.28848,-141.732)">
				<title>Sheet.58</title>
				<path d="M0 188.51 L53.22 188.51" class="st6"/>
			</g>
			<g id="shape59-106" transform="translate(7.99361E-015,-64.063)">
				<title>Sheet.59</title>
				<desc>Модификация</desc>
				<rect x="0" y="174.623" width="65.068" height="13.8898" class="st7"/>
				<text x="7.96" y="183.97" class="st8">Модификация</text>			</g>
			<g id="shape60-110" transform="translate(2.39808E-014,-64.063)">
				<title>Sheet.60</title>
				<path d="M0 188.51 L53.22 188.51" class="st6"/>
			</g>
			<g id="shape61-115" transform="translate(79.2412,-120.472)">
				<title>Sheet.61</title>
				<path d="M0 188.51 L117 188.51" class="st6"/>
			</g>
			<g id="shape62-120" transform="translate(79.2412,-120.472)">
				<title>Sheet.62</title>
				<desc>Добавление в слушатели</desc>
				<rect x="0" y="174.34" width="127.559" height="14.1732" class="st7"/>
				<text x="16.24" y="183.83" class="st9">Добавление в слушатели</text>			</g>
			<g id="shape63-124" transform="translate(220.974,-49.8898)">
				<title>Sheet.63</title>
				<desc>Извещение слушателей</desc>
				<rect x="0" y="174.623" width="65.068" height="13.8898" class="st7"/>
				<text x="13.09" y="179.17" class="st8">Извещение <tspan x="12.43" dy="1.2em" class="st10">слушателей</tspan></text>			</g>
		</g>
	</g>
</svg>
