<?xml version="1.0" encoding="UTF-8" standalone="no"?>
<!DOCTYPE svg PUBLIC "-//W3C//DTD SVG 1.1//EN" "http://www.w3.org/Graphics/SVG/1.1/DTD/svg11.dtd">
<!-- Generated by Microsoft Visio, SVG Export AsyncChannels2.svg Page-1 -->
<svg xmlns="http://www.w3.org/2000/svg" xmlns:xlink="http://www.w3.org/1999/xlink" xmlns:ev="http://www.w3.org/2001/xml-events"
		width="4.04936in" height="2.67141in" viewBox="0 0 291.554 192.341" xml:space="preserve" color-interpolation-filters="sRGB"
		class="st8">
	<style type="text/css">
	<![CDATA[
		.st1 {fill:#d8d8d8;marker-end:url(#mrkr14-4);stroke:#404040;stroke-linecap:round;stroke-linejoin:round;stroke-width:1}
		.st2 {fill:#404040;fill-opacity:1;stroke:#404040;stroke-opacity:1;stroke-width:0.28409090909091}
		.st3 {fill:#0000cc;font-family:Calibri;font-size:0.833336em;font-style:italic}
		.st4 {fill:none;marker-end:url(#mrkr14-4);stroke:#404040;stroke-linecap:round;stroke-linejoin:round;stroke-width:1}
		.st5 {font-size:1em}
		.st6 {fill:#0000cc;font-family:Calibri;font-size:0.833336em}
		.st7 {marker-end:url(#mrkr14-4);stroke:#404040;stroke-linecap:round;stroke-linejoin:round;stroke-width:1}
		.st8 {fill:none;fill-rule:evenodd;font-size:12px;overflow:visible;stroke-linecap:square;stroke-miterlimit:3}
	]]>
	</style>

	<defs id="Patterns_And_Gradients">
		<linearGradient id="grad0-36" x1="0" y1="0" x2="1" y2="0" gradientTransform="rotate(270 0.5 0.5)">
			<stop offset="0" stop-color="#f0f0f0" stop-opacity="1"/>
			<stop offset="1" stop-color="#ffffff" stop-opacity="1"/>
		</linearGradient>
	</defs>
	<defs id="Markers">
		<g id="lend14">
			<path d="M 3 -1 L 0 0 L 3 1 L 3 -1 " style="stroke-linecap:round;stroke-linejoin:round;fill:none"/>
		</g>
		<marker id="mrkr14-4" class="st2" refX="-10.56" orient="auto" markerUnits="strokeWidth" overflow="visible">
			<use xlink:href="#lend14" transform="scale(-3.52,-3.52) "/>
		</marker>
	</defs>
	<g>
		<title>Page-1</title>
		<g id="shape404-1" transform="translate(167.037,-167.037)">
			<title>Sheet.404</title>
			<desc>Channel</desc>
			<rect x="0" y="178.168" width="56.6929" height="14.1732" class="st1"/>
			<text x="11.92" y="188.25" class="st3">Channel</text>		</g>
		<g id="shape405-6" transform="translate(96.1706,-124.517)">
			<title>Sheet.405</title>
			<desc>Asynchronous Channel</desc>
			<rect x="0" y="163.995" width="70.8661" height="28.3465" class="st4"/>
			<text x="7.2" y="175.17" class="st3">Asynchronous<tspan x="19" dy="1.2em" class="st5">Channel</tspan></text>		</g>
		<g id="shape406-11" transform="translate(96.1706,-67.8241)">
			<title>Sheet.406</title>
			<desc>Asynchronous ByteChannel</desc>
			<rect x="0" y="163.995" width="70.8661" height="28.3465" class="st4"/>
			<text x="7.2" y="175.17" class="st3">Asynchronous<tspan x="9.98" dy="1.2em" class="st5">ByteChannel</tspan></text>		</g>
		<g id="shape407-16" transform="translate(11.1312,-67.8241)">
			<title>Sheet.407</title>
			<desc>Asynchronous FileChannel</desc>
			<rect x="0" y="163.995" width="70.8661" height="28.3465" class="st4"/>
			<text x="6.73" y="175.17" class="st6">Asynchronous<tspan x="11.78" dy="1.2em" class="st5">FileChannel</tspan></text>		</g>
		<g id="shape408-21" transform="translate(223.73,-124.517)">
			<title>Sheet.408</title>
			<desc>Network Channel</desc>
			<rect x="0" y="163.995" width="56.6929" height="28.3465" class="st1"/>
			<text x="10.93" y="175.17" class="st3">Network<tspan x="11.92" dy="1.2em" class="st5">Channel</tspan></text>		</g>
		<g id="shape409-26" transform="translate(181.21,-53.6509)">
			<title>Sheet.409</title>
			<desc>Asynchronous ServerSocket Channel</desc>
			<rect x="0" y="149.821" width="70.8661" height="42.5197" class="st4"/>
			<text x="6.73" y="162.08" class="st6">Asynchronous<tspan x="8.93" dy="1.2em" class="st5">ServerSocket </tspan><tspan
						x="18.86" dy="1.2em" class="st5">Channel</tspan></text>		</g>
		<g id="shape410-32" transform="translate(46.5643,-96.1706)">
			<title>Dynamic connector.410</title>
			<path d="M0 192.34 L0 178.17 L85.04 178.17 L85.04 174.55" class="st7"/>
		</g>
		<g id="shape411-39" transform="translate(124.517,-96.1706)">
			<title>Dynamic connector.411</title>
			<path d="M7.09 192.34 L7.09 174.55" class="st7"/>
		</g>
		<g id="shape412-45" transform="translate(167.037,-138.69)">
			<title>Dynamic connector.412</title>
			<path d="M0 192.34 L28.35 192.34 L28.35 174.55" class="st7"/>
		</g>
		<g id="shape413-51" transform="translate(230.816,-96.1706)">
			<title>Dynamic connector.413</title>
			<path d="M7.09 192.34 L7.09 174.55" class="st7"/>
		</g>
		<g id="shape414-57" transform="translate(96.1706,-11.1312)">
			<title>Sheet.414</title>
			<desc>Asynchronous SocketChannel</desc>
			<rect x="0" y="163.995" width="70.8661" height="28.3465" class="st4"/>
			<text x="6.73" y="175.17" class="st6">Asynchronous<tspan x="5.37" dy="1.2em" class="st5">SocketChannel</tspan></text>		</g>
		<g id="shape415-62" transform="translate(167.037,-25.3044)">
			<title>Dynamic connector.415</title>
			<path d="M0 192.34 L99.21 192.34 L99.21 103.69" class="st7"/>
		</g>
		<g id="shape416-68" transform="translate(223.73,-138.69)">
			<title>Dynamic connector.416</title>
			<path d="M0 192.34 L-28.35 192.34 L-28.35 174.55" class="st7"/>
		</g>
		<g id="shape417-74" transform="translate(195.383,-96.1706)">
			<title>Dynamic connector.417</title>
			<path d="M0 192.34 L0 178.17 L-63.78 178.17 L-63.78 174.55" class="st7"/>
		</g>
		<g id="shape418-80" transform="translate(124.517,-39.4777)">
			<title>Dynamic connector.418</title>
			<path d="M7.09 192.34 L7.09 174.55" class="st7"/>
		</g>
	</g>
</svg>
