<?xml version="1.0" encoding="UTF-8" standalone="no"?>
<!DOCTYPE svg PUBLIC "-//W3C//DTD SVG 1.1//EN" "http://www.w3.org/Graphics/SVG/1.1/DTD/svg11.dtd">
<!-- Generated by Microsoft Visio, SVG Export BufferReset.svg Page-1 -->
<svg xmlns="http://www.w3.org/2000/svg" xmlns:xlink="http://www.w3.org/1999/xlink" xmlns:ev="http://www.w3.org/2001/xml-events"
		width="5.32364in" height="1.03381in" viewBox="0 0 383.302 74.4341" xml:space="preserve" color-interpolation-filters="sRGB"
		class="st10">
	<style type="text/css">
	<![CDATA[
		.st1 {fill:#6b9bc7;stroke:none;stroke-linecap:round;stroke-linejoin:round;stroke-width:1}
		.st2 {fill:#b3c283;stroke:none;stroke-linecap:round;stroke-linejoin:round;stroke-width:1}
		.st3 {fill:none;stroke:none;stroke-linecap:round;stroke-linejoin:round;stroke-width:0.25}
		.st4 {fill:#000000;font-family:Calibri;font-size:1.16666em}
		.st5 {marker-end:url(#mrkr5-20);stroke:#1946ba;stroke-linecap:round;stroke-linejoin:round;stroke-width:1}
		.st6 {fill:#1946ba;fill-opacity:1;stroke:#1946ba;stroke-opacity:1;stroke-width:0.28409090909091}
		.st7 {fill:none;stroke:#404040;stroke-linecap:round;stroke-linejoin:round;stroke-width:1}
		.st8 {fill:#0000cc;font-family:Cambria Math;font-size:3em}
		.st9 {font-size:1em}
		.st10 {fill:none;fill-rule:evenodd;font-size:12px;overflow:visible;stroke-linecap:square;stroke-miterlimit:3}
	]]>
	</style>

	<defs id="Patterns_And_Gradients">
		<linearGradient id="grad0-16" x1="0" y1="0" x2="1" y2="0" gradientTransform="rotate(270 0.5 0.5)">
			<stop offset="0" stop-color="#ffffff" stop-opacity="1"/>
			<stop offset="1" stop-color="#f0f0f0" stop-opacity="1"/>
		</linearGradient>
	</defs>
	<defs id="Markers">
		<g id="lend5">
			<path d="M 2 1 L 0 0 L 1.98117 -0.993387 C 1.67173 -0.364515 1.67301 0.372641 1.98465 1.00043 " style="stroke:none"/>
		</g>
		<marker id="mrkr5-20" class="st6" refX="-6.16" orient="auto" markerUnits="strokeWidth" overflow="visible">
			<use xlink:href="#lend5" transform="scale(-3.52,-3.52) "/>
		</marker>
	</defs>
	<g>
		<title>Page-1</title>
		<g id="group189-1" transform="translate(0.5,-2.62675)">
			<title>Sheet.189</title>
			<g id="shape168-2" transform="translate(1.35891E-013,-42.5197)">
				<title>Sheet.168</title>
				<rect x="0" y="60.2609" width="85.0394" height="14.1732" class="st1"/>
			</g>
			<g id="shape169-4" transform="translate(85.0394,-42.5197)">
				<title>Sheet.169</title>
				<rect x="0" y="60.2609" width="56.6929" height="14.1732" class="st2"/>
			</g>
			<g id="shape170-6" transform="translate(113.386,-14.1732)">
				<title>Sheet.170</title>
				<desc>capacity</desc>
				<rect x="0" y="60.2609" width="56.6929" height="14.1732" class="st3"/>
				<text x="4.92" y="71.55" class="st4">capacity</text>			</g>
			<g id="shape171-9" transform="translate(56.6929,-14.1732)">
				<title>Sheet.171</title>
				<desc>position</desc>
				<rect x="0" y="60.2609" width="56.6929" height="14.1732" class="st3"/>
				<text x="5.31" y="71.55" class="st4">position</text>			</g>
			<g id="shape172-12" transform="translate(67.2982,46.0876) rotate(-90)">
				<title>Sheet.172</title>
				<path d="M0 74.43 L8.01 74.43" class="st5"/>
			</g>
			<g id="shape173-21" transform="translate(10.6053,46.0876) rotate(-90)">
				<title>Sheet.173</title>
				<path d="M0 74.43 L8.01 74.43" class="st5"/>
			</g>
			<g id="shape174-27" transform="translate(-7.99361E-015,-42.5197)">
				<title>Sheet.174</title>
				<rect x="0" y="60.2609" width="141.732" height="14.1732" class="st7"/>
			</g>
			<g id="shape175-29" transform="translate(155.906,-42.5197)">
				<title>Sheet.175</title>
				<desc>⇒</desc>
				<rect x="0" y="60.2609" width="42.5197" height="14.1732" class="st3"/>
				<text x="5.68" y="78.45" class="st8">⇒</text>			</g>
			<g id="shape176-32" transform="translate(212.598,-42.5197)">
				<title>Sheet.176</title>
				<rect x="0" y="60.2609" width="42.5197" height="14.1732" class="st1"/>
			</g>
			<g id="shape177-34" transform="translate(255.118,-42.5197)">
				<title>Sheet.177</title>
				<rect x="0" y="60.2609" width="99.2126" height="14.1732" class="st2"/>
			</g>
			<g id="shape178-36" transform="translate(325.984,-14.1732)">
				<title>Sheet.178</title>
				<desc>capacity</desc>
				<rect x="0" y="60.2609" width="56.6929" height="14.1732" class="st3"/>
				<text x="4.92" y="71.55" class="st4">capacity</text>			</g>
			<g id="shape179-39" transform="translate(226.772,1.42109E-014)">
				<title>Sheet.179</title>
				<desc>position mark</desc>
				<rect x="0" y="46.0876" width="56.6929" height="28.3465" class="st3"/>
				<text x="5.31" y="56.06" class="st4">position <tspan x="13.78" dy="1.2em" class="st9">mark</tspan></text>			</g>
			<g id="shape180-43" transform="translate(279.897,46.0876) rotate(-90)">
				<title>Sheet.180</title>
				<path d="M0 74.43 L8.01 74.43" class="st5"/>
			</g>
			<g id="shape181-49" transform="translate(180.684,46.0876) rotate(-90)">
				<title>Sheet.181</title>
				<path d="M0 74.43 L8.01 74.43" class="st5"/>
			</g>
			<g id="shape182-55" transform="translate(212.598,-42.5197)">
				<title>Sheet.182</title>
				<rect x="0" y="60.2609" width="141.732" height="14.1732" class="st7"/>
			</g>
			<g id="shape183-57" transform="translate(14.1732,-14.1732)">
				<title>Sheet.183</title>
				<desc>mark</desc>
				<rect x="0" y="60.2609" width="56.6929" height="14.1732" class="st3"/>
				<text x="13.78" y="71.55" class="st4">mark</text>			</g>
			<g id="shape184-60" transform="translate(-31.9144,46.0876) rotate(-90)">
				<title>Sheet.184</title>
				<path d="M0 74.43 L8.01 74.43" class="st5"/>
			</g>
		</g>
	</g>
</svg>
