<?xml version="1.0" encoding="UTF-8" standalone="no"?>
<!DOCTYPE svg PUBLIC "-//W3C//DTD SVG 1.1//EN" "http://www.w3.org/Graphics/SVG/1.1/DTD/svg11.dtd">
<!-- Generated by Microsoft Visio, SVG Export ButtonHierarchy.svg Page-1 -->
<svg xmlns="http://www.w3.org/2000/svg" xmlns:xlink="http://www.w3.org/1999/xlink" xmlns:ev="http://www.w3.org/2001/xml-events"
		width="3.94034in" height="1.98268in" viewBox="0 0 283.705 142.753" xml:space="preserve" color-interpolation-filters="sRGB"
		class="st6">
	<style type="text/css">
	<![CDATA[
		.st1 {fill:#ffffff;stroke:#000000;stroke-linecap:round;stroke-linejoin:round;stroke-width:0.24}
		.st2 {fill:#1946ba;font-family:Calibri;font-size:1.00001em}
		.st3 {fill:#000000;font-size:1em}
		.st4 {marker-end:url(#mrkr14-32);stroke:#404040;stroke-linecap:round;stroke-linejoin:round;stroke-width:1}
		.st5 {fill:#404040;fill-opacity:1;stroke:#404040;stroke-opacity:1;stroke-width:0.28409090909091}
		.st6 {fill:none;fill-rule:evenodd;font-size:12px;overflow:visible;stroke-linecap:square;stroke-miterlimit:3}
	]]>
	</style>

	<defs id="Patterns_And_Gradients">
		<linearGradient id="grad0-29" x1="0" y1="0" x2="1" y2="0" gradientTransform="rotate(270 0.5 0.5)">
			<stop offset="0" stop-color="#f0f0f0" stop-opacity="1"/>
			<stop offset="1" stop-color="#ffffff" stop-opacity="1"/>
		</linearGradient>
	</defs>
	<defs id="Markers">
		<g id="lend14">
			<path d="M 3 -1 L 0 0 L 3 1 L 3 -1 " style="stroke-linecap:round;stroke-linejoin:round;fill:none"/>
		</g>
		<marker id="mrkr14-32" class="st5" refX="-10.56" orient="auto" markerUnits="strokeWidth" overflow="visible">
			<use xlink:href="#lend14" transform="scale(-3.52,-3.52) "/>
		</marker>
	</defs>
	<g>
		<title>Page-1</title>
		<g id="shape118-1" transform="translate(99.3326,-114.18)">
			<title>Sheet.118</title>
			<desc>AbstractButton Базовый класс</desc>
			<rect x="0" y="114.406" width="85.0394" height="28.3465" class="st1"/>
			<text x="5.27" y="124.98" class="st2">AbstractButton<tspan x="5.46" dy="1.2em" class="st3">Базовый класс</tspan></text>		</g>
		<g id="shape119-5" transform="translate(99.3326,-56.9197)">
			<title>Sheet.119</title>
			<desc>JToggleButton Два состояния</desc>
			<rect x="0" y="114.406" width="85.0394" height="28.3465" class="st1"/>
			<text x="7.76" y="124.98" class="st2">JToggleButton<tspan x="5.68" dy="1.2em" class="st3">Два состояния</tspan></text>		</g>
		<g id="shape120-9" transform="translate(0.12,-56.9197)">
			<title>Sheet.120</title>
			<desc>JButton Обычная</desc>
			<rect x="0" y="114.406" width="85.0394" height="28.3465" class="st1"/>
			<text x="23.85" y="124.98" class="st2">JButton<tspan x="19.62" dy="1.2em" class="st3">Обычная </tspan></text>		</g>
		<g id="shape124-13" transform="translate(198.545,-56.9197)">
			<title>Sheet.124</title>
			<desc>JMenuItem Элемент меню</desc>
			<rect x="0" y="114.406" width="85.0394" height="28.3465" class="st1"/>
			<text x="14.89" y="124.98" class="st2">JMenuItem<tspan x="4.67" dy="1.2em" class="st3">Элемент меню</tspan></text>		</g>
		<g id="shape126-17" transform="translate(42.6397,-0.226785)">
			<title>Sheet.126</title>
			<desc>JCheckBox Флажок</desc>
			<rect x="0" y="114.406" width="85.0394" height="28.3465" class="st1"/>
			<text x="16.98" y="124.98" class="st2">JCheckBox<tspan x="22.32" dy="1.2em" class="st3">Флажок</tspan></text>		</g>
		<g id="shape127-21" transform="translate(156.026,-0.226785)">
			<title>Sheet.127</title>
			<desc>JRadioButton Переключатель</desc>
			<rect x="0" y="114.406" width="85.0394" height="28.3465" class="st1"/>
			<text x="10.03" y="124.98" class="st2">JRadioButton<tspan x="2.62" dy="1.2em" class="st3">Переключатель</tspan></text>		</g>
		<g id="shape128-25" transform="translate(42.6397,-85.2662)">
			<title>Dynamic connector.128</title>
			<path d="M0 142.75 L0 128.58 L99.21 128.58 L99.21 124.4" class="st4"/>
		</g>
		<g id="shape129-33" transform="translate(134.766,-85.2662)">
			<title>Dynamic connector.129</title>
			<path d="M7.09 142.75 L7.09 124.4" class="st4"/>
		</g>
		<g id="shape130-39" transform="translate(241.065,-85.2662)">
			<title>Dynamic connector.130</title>
			<path d="M0 142.75 L0 128.58 L-99.21 128.58 L-99.21 124.4" class="st4"/>
		</g>
		<g id="shape131-45" transform="translate(198.545,-28.5732)">
			<title>Dynamic connector.131</title>
			<path d="M0 142.75 L0 128.58 L-56.69 128.58 L-56.69 124.97" class="st4"/>
		</g>
		<g id="shape132-51" transform="translate(85.1594,-28.5732)">
			<title>Dynamic connector.132</title>
			<path d="M0 142.75 L0 128.58 L56.69 128.58 L56.69 124.97" class="st4"/>
		</g>
	</g>
</svg>
