<?xml version="1.0" encoding="UTF-8" standalone="no"?>
<!DOCTYPE svg PUBLIC "-//W3C//DTD SVG 1.1//EN" "http://www.w3.org/Graphics/SVG/1.1/DTD/svg11.dtd">
<!-- Generated by Microsoft Visio, SVG Export ByteChannel.svg Page-1 -->
<svg xmlns="http://www.w3.org/2000/svg" xmlns:xlink="http://www.w3.org/1999/xlink" xmlns:ev="http://www.w3.org/2001/xml-events"
        width="5.32364in" height="1.19591in" viewBox="0 0 383.302 86.1056" xml:space="preserve" color-interpolation-filters="sRGB"
        class="st11">
    <style type="text/css">
    <![CDATA[
        .st1 {fill:#b3c283;stroke:none;stroke-linecap:round;stroke-linejoin:round;stroke-width:1}
        .st2 {fill:#6b9bc7;stroke:none;stroke-linecap:round;stroke-linejoin:round;stroke-width:1}
        .st3 {fill:#ffffff;stroke:none;stroke-linecap:round;stroke-linejoin:round;stroke-width:1}
        .st4 {fill:none;stroke:none;stroke-linecap:round;stroke-linejoin:round;stroke-width:0.25}
        .st5 {fill:#000000;font-family:Calibri;font-size:1.00001em}
        .st6 {marker-end:url(#mrkr5-51);stroke:#1946ba;stroke-linecap:round;stroke-linejoin:round;stroke-width:1}
        .st7 {fill:#1946ba;fill-opacity:1;stroke:#1946ba;stroke-opacity:1;stroke-width:0.28409090909091}
        .st8 {fill:none;stroke:#404040;stroke-linecap:round;stroke-linejoin:round;stroke-width:1}
        .st9 {fill:#0000cc;font-family:Cambria Math;font-size:3em}
        .st10 {marker-end:url(#mrkr5-51);marker-start:url(#mrkr5-108);stroke:#1946ba;stroke-linecap:round;stroke-linejoin:round;stroke-width:1}
        .st11 {fill:none;fill-rule:evenodd;font-size:12px;overflow:visible;stroke-linecap:square;stroke-miterlimit:3}
    ]]>
    </style>

    <defs id="Patterns_And_Gradients">
        <linearGradient id="grad0-47" x1="0" y1="0" x2="1" y2="0" gradientTransform="rotate(270 0.5 0.5)">
            <stop offset="0" stop-color="#ffffff" stop-opacity="1"/>
            <stop offset="1" stop-color="#f0f0f0" stop-opacity="1"/>
        </linearGradient>
    </defs>
    <defs id="Markers">
        <g id="lend5">
            <path d="M 2 1 L 0 0 L 1.98117 -0.993387 C 1.67173 -0.364515 1.67301 0.372641 1.98465 1.00043 " style="stroke:none"/>
        </g>
        <marker id="mrkr5-51" class="st7" refX="-6.16" orient="auto" markerUnits="strokeWidth" overflow="visible">
            <use xlink:href="#lend5" transform="scale(-3.52,-3.52) "/>
        </marker>
        <marker id="mrkr5-108" class="st7" refX="5.8" orient="auto" markerUnits="strokeWidth" overflow="visible">
            <use xlink:href="#lend5" transform="scale(3.52) "/>
        </marker>
    </defs>
    <g>
        <title>Page-1</title>
        <g id="group565-1" transform="translate(0.5,-0.125)">
            <title>Sheet.565</title>
            <g id="shape519-2" transform="translate(269.291,-56.6929)">
                <title>Sheet.519</title>
                <rect x="0" y="71.9324" width="42.5197" height="14.1732" class="st1"/>
            </g>
            <g id="group557-4" transform="translate(255.118,-56.6929)">
                <title>Sheet.557</title>
                <g id="shape556-5" transform="translate(3.2102E-007,0)">
                    <title>Sheet.556</title>
                    <rect x="0" y="71.9324" width="14.1732" height="14.1732" class="st1"/>
                </g>
                <g id="shape537-7" transform="translate(3.2102E-007,-3.2102E-007)">
                    <title>Sheet.537</title>
                    <path d="M14.17 75.48 L14.17 71.93 L0 86.11 L3.54 86.11 L14.17 75.48 Z" class="st2"/>
                </g>
                <g id="shape549-9" transform="translate(7.08661,-3.2102E-007)">
                    <title>Sheet.549</title>
                    <path d="M7.09 79.02 L0 86.11 L3.54 86.11 L7.09 82.56 L7.09 79.02 Z" class="st2"/>
                </g>
                <g id="shape554-11" transform="translate(3.747E-015,-10.6299)">
                    <title>Sheet.554</title>
                    <path d="M0 86.11 L3.54 82.56 L0 82.56 L0 86.11 Z" class="st2"/>
                </g>
                <g id="shape555-13" transform="translate(8.99281E-015,-3.54331)">
                    <title>Sheet.555</title>
                    <path d="M0 86.11 L10.63 75.48 L7.09 75.48 L0 82.56 L0 86.11 Z" class="st2"/>
                </g>
            </g>
            <g id="shape558-15" transform="translate(212.598,-56.6929)">
                <title>Sheet.558</title>
                <rect x="0" y="71.9324" width="28.3465" height="14.1732" class="st2"/>
            </g>
            <g id="group559-17" transform="translate(240.945,-56.6929)">
                <title>Sheet.559</title>
                <g id="shape560-18" transform="translate(3.2102E-007,0)">
                    <title>Sheet.560</title>
                    <rect x="0" y="71.9324" width="14.1732" height="14.1732" class="st1"/>
                </g>
                <g id="shape561-20" transform="translate(3.2102E-007,-3.2102E-007)">
                    <title>Sheet.561</title>
                    <path d="M14.17 75.48 L14.17 71.93 L0 86.11 L3.54 86.11 L14.17 75.48 Z" class="st2"/>
                </g>
                <g id="shape562-22" transform="translate(7.08661,-3.2102E-007)">
                    <title>Sheet.562</title>
                    <path d="M7.09 79.02 L0 86.11 L3.54 86.11 L7.09 82.56 L7.09 79.02 Z" class="st2"/>
                </g>
                <g id="shape563-24" transform="translate(3.747E-015,-10.6299)">
                    <title>Sheet.563</title>
                    <path d="M0 86.11 L3.54 82.56 L0 82.56 L0 86.11 Z" class="st2"/>
                </g>
                <g id="shape564-26" transform="translate(8.99281E-015,-3.54331)">
                    <title>Sheet.564</title>
                    <path d="M0 86.11 L10.63 75.48 L7.09 75.48 L0 82.56 L0 86.11 Z" class="st2"/>
                </g>
            </g>
            <g id="shape496-28" transform="translate(99.2126,-56.6929)">
                <title>Sheet.496</title>
                <rect x="0" y="71.9324" width="42.5197" height="14.1732" class="st3"/>
            </g>
            <g id="shape497-30" transform="translate(28.3465,-56.6929)">
                <title>Sheet.497</title>
                <rect x="0" y="71.9324" width="70.8661" height="14.1732" class="st1"/>
            </g>
            <g id="shape498-32" transform="translate(0,-56.6929)">
                <title>Sheet.498</title>
                <rect x="0" y="71.9324" width="28.3465" height="14.1732" class="st2"/>
            </g>
            <g id="shape499-34" transform="translate(113.386,-28.3465)">
                <title>Sheet.499</title>
                <desc>capacity</desc>
                <rect x="0" y="71.9324" width="56.6929" height="14.1732" class="st4"/>
                <text x="8.27" y="82.62" class="st5">capacity</text>            </g>
            <g id="shape500-37" transform="translate(70.8661,-28.3465)">
                <title>Sheet.500</title>
                <desc>limit</desc>
                <rect x="0" y="71.9324" width="56.6929" height="14.1732" class="st4"/>
                <text x="17.41" y="82.62" class="st5">limit</text>          </g>
            <g id="shape501-40" transform="translate(2.79776E-014,-28.3465)">
                <title>Sheet.501</title>
                <desc>position</desc>
                <rect x="0" y="71.9324" width="56.6929" height="14.1732" class="st4"/>
                <text x="8.6" y="82.62" class="st5">position</text>         </g>
            <g id="shape502-43" transform="translate(55.6267,43.5859) rotate(-90)">
                <title>Sheet.502</title>
                <path d="M0 86.11 L8.01 86.11" class="st6"/>
            </g>
            <g id="shape503-52" transform="translate(13.107,43.5859) rotate(-90)">
                <title>Sheet.503</title>
                <path d="M0 86.11 L8.01 86.11" class="st6"/>
            </g>
            <g id="shape504-58" transform="translate(-57.7591,43.5859) rotate(-90)">
                <title>Sheet.504</title>
                <path d="M0 86.11 L8.01 86.11" class="st6"/>
            </g>
            <g id="shape505-64" transform="translate(0,-56.6929)">
                <title>Sheet.505</title>
                <rect x="0" y="71.9324" width="141.732" height="14.1732" class="st8"/>
            </g>
            <g id="shape516-66" transform="translate(155.906,-56.6929)">
                <title>Sheet.516</title>
                <desc>⇒</desc>
                <rect x="0" y="71.9324" width="42.5197" height="14.1732" class="st4"/>
                <text x="5.68" y="90.12" class="st9">⇒</text>           </g>
            <g id="shape518-69" transform="translate(311.811,-56.6929)">
                <title>Sheet.518</title>
                <rect x="0" y="71.9324" width="42.5197" height="14.1732" class="st3"/>
            </g>
            <g id="shape521-71" transform="translate(325.984,-28.3465)">
                <title>Sheet.521</title>
                <desc>capacity</desc>
                <rect x="0" y="71.9324" width="56.6929" height="14.1732" class="st4"/>
                <text x="8.27" y="82.62" class="st5">capacity</text>            </g>
            <g id="shape522-74" transform="translate(283.465,-28.3465)">
                <title>Sheet.522</title>
                <desc>limit</desc>
                <rect x="0" y="71.9324" width="56.6929" height="14.1732" class="st4"/>
                <text x="17.41" y="82.62" class="st5">limit</text>          </g>
            <g id="shape523-77" transform="translate(240.945,-28.3465)">
                <title>Sheet.523</title>
                <desc>position</desc>
                <rect x="0" y="71.9324" width="56.6929" height="14.1732" class="st4"/>
                <text x="8.6" y="82.62" class="st5">position</text>         </g>
            <g id="shape524-80" transform="translate(268.225,43.5859) rotate(-90)">
                <title>Sheet.524</title>
                <path d="M0 86.11 L8.01 86.11" class="st6"/>
            </g>
            <g id="shape525-86" transform="translate(225.705,43.5859) rotate(-90)">
                <title>Sheet.525</title>
                <path d="M0 86.11 L8.01 86.11" class="st6"/>
            </g>
            <g id="shape526-92" transform="translate(183.186,43.5859) rotate(-90)">
                <title>Sheet.526</title>
                <path d="M0 86.11 L8.01 86.11" class="st6"/>
            </g>
            <g id="shape527-98" transform="translate(212.598,-56.6929)">
                <title>Sheet.527</title>
                <rect x="0" y="71.9324" width="141.732" height="14.1732" class="st8"/>
            </g>
            <g id="shape528-100" transform="translate(240.945,-21.2598)">
                <title>Sheet.528</title>
                <path d="M5.8 86.11 L6.16 86.11 L22.19 86.11" class="st10"/>
            </g>
            <g id="shape529-110" transform="translate(240.945,1.42109E-014)">
                <title>Sheet.529</title>
                <desc>n</desc>
                <rect x="0" y="71.9324" width="28.3465" height="14.1732" class="st4"/>
                <text x="11.02" y="82.62" class="st5">n</text>          </g>
        </g>
    </g>
</svg>
