<?xml version="1.0" encoding="UTF-8" standalone="no"?>
<!DOCTYPE svg PUBLIC "-//W3C//DTD SVG 1.0//EN" "http://www.w3.org/TR/2001/REC-SVG-20010904/DTD/svg10.dtd">
<!-- Generated by Microsoft Visio 11.0, SVG Export, v1.0 Collections.svg Page-1 -->
<svg xmlns="http://www.w3.org/2000/svg" xmlns:xlink="http://www.w3.org/1999/xlink" xmlns:ev="http://www.w3.org/2001/xml-events"
		xmlns:v="http://schemas.microsoft.com/visio/2003/SVGExtensions/" width="5.34274in" height="3.12125in"
		viewBox="0 0 384.677 224.73" xml:space="preserve" color-interpolation-filters="sRGB" class="st9">
	<v:documentProperties v:langID="1033" v:metric="true" v:viewMarkup="false"/>

	<style type="text/css">
	<![CDATA[
		.st1 {fill:none;stroke:#000000;stroke-linecap:round;stroke-linejoin:round;stroke-width:1}
		.st2 {fill:#000000;font-family:Calibri;font-size:1.5em}
		.st3 {stroke:#000000;stroke-linecap:round;stroke-linejoin:round;stroke-width:1}
		.st4 {fill:#000000;fill-opacity:1;stroke:#000000;stroke-opacity:1;stroke-width:0.28409090909091}
		.st5 {fill:none;stroke:none;stroke-linecap:round;stroke-linejoin:round;stroke-width:1}
		.st6 {fill:#000000;font-family:Calibri;font-size:1.00001em}
		.st7 {marker-end:url(#mrkr13-38);stroke:#000000;stroke-linecap:round;stroke-linejoin:round;stroke-width:1}
		.st8 {fill:none;stroke:#000000;stroke-linecap:round;stroke-linejoin:round;stroke-width:0.24}
		.st9 {fill:none;fill-rule:evenodd;font-size:12px;overflow:visible;stroke-linecap:square;stroke-miterlimit:3}
	]]>
	</style>

	<defs id="Markers">
		<g id="lend13">
			<path d="M 3 1 L 0 0 L 3 -1 L 3 1 " style="stroke:none"/>
		</g>
		<marker id="mrkr13-38" class="st4" v:arrowType="13" v:arrowSize="2" v:setback="10.56" refX="-10.56" orient="auto"
				markerUnits="strokeWidth" overflow="visible">
			<use xlink:href="#lend13" transform="scale(-3.52,-3.52) "/>
		</marker>
	</defs>
	<g v:mID="0" v:index="1" v:groupContext="foregroundPage">
		<title>Page-1</title>
		<v:pageProperties v:drawingScale="0.0393701" v:pageScale="0.0393701" v:drawingUnits="24" v:shadowOffsetX="8.50394"
				v:shadowOffsetY="-8.50394"/>
		<g id="group15-1" transform="translate(213.598,-110.344)" v:mID="15" v:groupContext="group">
			<title>Sheet.15</title>
			<g id="shape16-2" v:mID="16" v:groupContext="shape" transform="translate(1.39888E-014,-42.5197)">
				<title>Circle.16</title>
				<desc>A</desc>
				<v:userDefs>
					<v:ud v:nameU="visVersion" v:val="VT0(11):26"/>
				</v:userDefs>
				<v:textBlock v:margins="rect(4,4,4,4)" v:tabSpace="42.5197"/>
				<v:textRect cx="14.1732" cy="210.556" width="24.81" height="21.2598"/>
				<path d="M0 210.56 A14.1732 14.1732 0 0 1 28.35 210.56 A14.1732 14.1732 0 1 1 0 210.56 Z" class="st1"/>
				<text x="8.97" y="215.96" class="st2" v:langID="1033"><v:paragraph v:horizAlign="1"/><v:tabList/>A</text>			</g>
			<g id="shape17-5" v:mID="17" v:groupContext="shape" transform="translate(56.6929,-85.0394)">
				<title>Circle.17</title>
				<desc>C</desc>
				<v:userDefs>
					<v:ud v:nameU="visVersion" v:val="VT0(11):26"/>
				</v:userDefs>
				<v:textBlock v:margins="rect(4,4,4,4)" v:tabSpace="42.5197"/>
				<v:textRect cx="14.1732" cy="210.556" width="24.81" height="21.2598"/>
				<path d="M0 210.56 A14.1732 14.1732 0 0 1 28.35 210.56 A14.1732 14.1732 0 1 1 0 210.56 Z" class="st1"/>
				<text x="9.37" y="215.96" class="st2" v:langID="1033"><v:paragraph v:horizAlign="1"/><v:tabList/>C</text>			</g>
			<g id="shape18-8" v:mID="18" v:groupContext="shape" transform="translate(28.3465,-2.84217E-014)">
				<title>Circle.20</title>
				<desc>B</desc>
				<v:userDefs>
					<v:ud v:nameU="visVersion" v:val="VT0(11):26"/>
				</v:userDefs>
				<v:textBlock v:margins="rect(4,4,4,4)" v:tabSpace="42.5197"/>
				<v:textRect cx="14.1732" cy="210.556" width="24.81" height="21.2598"/>
				<path d="M0 210.56 A14.1732 14.1732 0 0 1 28.35 210.56 A14.1732 14.1732 0 1 1 0 210.56 Z" class="st1"/>
				<text x="9.28" y="215.96" class="st2" v:langID="1033"><v:paragraph v:horizAlign="1"/><v:tabList/>B</text>			</g>
			<g id="shape19-11" v:mID="19" v:groupContext="shape" transform="translate(113.386,-42.5197)">
				<title>Circle.21</title>
				<desc>E</desc>
				<v:userDefs>
					<v:ud v:nameU="visVersion" v:val="VT0(11):26"/>
				</v:userDefs>
				<v:textBlock v:margins="rect(4,4,4,4)" v:tabSpace="42.5197"/>
				<v:textRect cx="14.1732" cy="210.556" width="24.81" height="21.2598"/>
				<path d="M0 210.56 A14.1732 14.1732 0 0 1 28.35 210.56 A14.1732 14.1732 0 1 1 0 210.56 Z" class="st1"/>
				<text x="9.78" y="215.96" class="st2" v:langID="1033"><v:paragraph v:horizAlign="1"/><v:tabList/>E</text>			</g>
			<g id="shape20-14" v:mID="20" v:groupContext="shape" transform="translate(125.371,357.71) rotate(165.964)">
				<title>Sheet.20</title>
				<path d="M0 224.73 L58.44 224.73" class="st3"/>
			</g>
			<g id="shape21-17" v:mID="21" v:groupContext="shape" transform="translate(114.675,-18.7943) rotate(26.5651)">
				<title>Sheet.21</title>
				<path d="M0 224.73 L31.69 224.73" class="st3"/>
			</g>
			<g id="shape22-20" v:mID="22" v:groupContext="shape" transform="translate(125.371,-78.3295) rotate(14.0362)">
				<title>Sheet.22</title>
				<path d="M0 224.73 L58.44 224.73" class="st3"/>
			</g>
			<g id="shape23-23" v:mID="23" v:groupContext="shape" transform="translate(85.0394,-2.84217E-014)">
				<title>Circle.23</title>
				<desc>D</desc>
				<v:userDefs>
					<v:ud v:nameU="visVersion" v:val="VT0(11):26"/>
				</v:userDefs>
				<v:textBlock v:margins="rect(4,4,4,4)" v:tabSpace="42.5197"/>
				<v:textRect cx="14.1732" cy="210.556" width="24.81" height="21.2598"/>
				<path d="M0 210.56 A14.1732 14.1732 0 0 1 28.35 210.56 A14.1732 14.1732 0 1 1 0 210.56 Z" class="st1"/>
				<text x="8.64" y="215.96" class="st2" v:langID="1033"><v:paragraph v:horizAlign="1"/><v:tabList/>D</text>			</g>
			<g id="shape24-26" v:mID="24" v:groupContext="shape" transform="translate(228.061,383.214) rotate(153.435)">
				<title>Sheet.24</title>
				<path d="M0 224.73 L31.69 224.73" class="st3"/>
			</g>
			<g id="shape25-29" v:mID="25" v:groupContext="shape" transform="translate(141.732,-2.84217E-014)">
				<title>Circle.27</title>
				<desc>F</desc>
				<v:userDefs>
					<v:ud v:nameU="visVersion" v:val="VT0(11):26"/>
				</v:userDefs>
				<v:textBlock v:margins="rect(4,4,4,4)" v:tabSpace="42.5197"/>
				<v:textRect cx="14.1732" cy="210.556" width="24.81" height="21.2598"/>
				<path d="M0 210.56 A14.1732 14.1732 0 0 1 28.35 210.56 A14.1732 14.1732 0 1 1 0 210.56 Z" class="st1"/>
				<text x="10.04" y="215.96" class="st2" v:langID="1033"><v:paragraph v:horizAlign="1"/><v:tabList/>F</text>			</g>
			<g id="shape26-32" v:mID="26" v:groupContext="shape" transform="translate(228.061,-18.7943) rotate(26.5651)">
				<title>Sheet.26</title>
				<path d="M0 224.73 L31.69 224.73" class="st3"/>
			</g>
		</g>
		<g id="shape85-35" v:mID="85" v:groupContext="shape" transform="translate(199.425,-11.1312)">
			<title>Ellipse</title>
			<v:userDefs>
				<v:ud v:nameU="visVersion" v:val="VT0(11):26"/>
			</v:userDefs>
			<path d="M0 182.21 A85.0394 42.5197 0 1 1 170.08 182.21 A85.0394 42.5197 0 1 1 -0 182.21 Z" class="st1"/>
		</g>
		<g id="shape86-39" v:mID="86" v:groupContext="shape" transform="translate(326.984,-30.9737)">
			<title>Circle.86</title>
			<desc>s</desc>
			<v:userDefs>
				<v:ud v:nameU="visVersion" v:val="VT0(11):26"/>
			</v:userDefs>
			<v:textBlock v:margins="rect(4,4,4,4)" v:tabSpace="42.5197"/>
			<v:textRect cx="14.1732" cy="210.556" width="24.81" height="21.2598"/>
			<path d="M0 210.56 A14.1732 14.1732 0 0 1 28.35 210.56 A14.1732 14.1732 0 1 1 0 210.56 Z" class="st1"/>
			<text x="10.65" y="215.96" class="st2" v:langID="1033"><v:paragraph v:horizAlign="1"/><v:tabList/>s</text>		</g>
		<g id="shape87-43" v:mID="87" v:groupContext="shape" transform="translate(298.638,-16.8005)">
			<title>Circle.87</title>
			<desc>B</desc>
			<v:userDefs>
				<v:ud v:nameU="visVersion" v:val="VT0(11):26"/>
			</v:userDefs>
			<v:textBlock v:margins="rect(4,4,4,4)" v:tabSpace="42.5197"/>
			<v:textRect cx="14.1732" cy="210.556" width="24.81" height="21.2598"/>
			<path d="M0 210.56 A14.1732 14.1732 0 0 1 28.35 210.56 A14.1732 14.1732 0 1 1 0 210.56 Z" class="st1"/>
			<text x="9.28" y="215.96" class="st2" v:langID="1033"><v:paragraph v:horizAlign="1"/><v:tabList/>B</text>		</g>
		<g id="shape88-47" v:mID="88" v:groupContext="shape" transform="translate(298.638,-59.3202)">
			<title>Circle.88</title>
			<desc>C</desc>
			<v:userDefs>
				<v:ud v:nameU="visVersion" v:val="VT0(11):26"/>
			</v:userDefs>
			<v:textBlock v:margins="rect(4,4,4,4)" v:tabSpace="42.5197"/>
			<v:textRect cx="14.1732" cy="210.556" width="24.81" height="21.2598"/>
			<path d="M0 210.56 A14.1732 14.1732 0 0 1 28.35 210.56 A14.1732 14.1732 0 1 1 0 210.56 Z" class="st1"/>
			<text x="9.37" y="215.96" class="st2" v:langID="1033"><v:paragraph v:horizAlign="1"/><v:tabList/>C</text>		</g>
		<g id="shape89-51" v:mID="89" v:groupContext="shape" transform="translate(247.614,-16.8005)">
			<title>Circle.89</title>
			<desc>E</desc>
			<v:userDefs>
				<v:ud v:nameU="visVersion" v:val="VT0(11):26"/>
			</v:userDefs>
			<v:textBlock v:margins="rect(4,4,4,4)" v:tabSpace="42.5197"/>
			<v:textRect cx="14.1732" cy="210.556" width="24.81" height="21.2598"/>
			<path d="M0 210.56 A14.1732 14.1732 0 0 1 28.35 210.56 A14.1732 14.1732 0 1 1 0 210.56 Z" class="st1"/>
			<text x="9.78" y="215.96" class="st2" v:langID="1033"><v:paragraph v:horizAlign="1"/><v:tabList/>E</text>		</g>
		<g id="shape101-55" v:mID="101" v:groupContext="shape" transform="translate(256.118,-59.3202)">
			<title>Circle.101</title>
			<desc>A</desc>
			<v:userDefs>
				<v:ud v:nameU="visVersion" v:val="VT0(11):26"/>
			</v:userDefs>
			<v:textBlock v:margins="rect(4,4,4,4)" v:tabSpace="42.5197"/>
			<v:textRect cx="14.1732" cy="210.556" width="24.81" height="21.2598"/>
			<path d="M0 210.56 A14.1732 14.1732 0 0 1 28.35 210.56 A14.1732 14.1732 0 1 1 0 210.56 Z" class="st1"/>
			<text x="8.97" y="215.96" class="st2" v:langID="1033"><v:paragraph v:horizAlign="1"/><v:tabList/>A</text>		</g>
		<g id="shape109-59" v:mID="109" v:groupContext="shape" transform="translate(213.598,-30.9737)">
			<title>Circle.109</title>
			<desc>D</desc>
			<v:userDefs>
				<v:ud v:nameU="visVersion" v:val="VT0(11):26"/>
			</v:userDefs>
			<v:textBlock v:margins="rect(4,4,4,4)" v:tabSpace="42.5197"/>
			<v:textRect cx="14.1732" cy="210.556" width="24.81" height="21.2598"/>
			<path d="M0 210.56 A14.1732 14.1732 0 0 1 28.35 210.56 A14.1732 14.1732 0 1 1 0 210.56 Z" class="st1"/>
			<text x="8.64" y="215.96" class="st2" v:langID="1033"><v:paragraph v:horizAlign="1"/><v:tabList/>D</text>		</g>
		<g id="group350-63" transform="translate(1,-181.21)" v:mID="350" v:groupContext="group">
			<title>Sheet.350</title>
			<g id="group335-64" v:mID="335" v:groupContext="group">
				<title>Sheet.335</title>
				<g id="shape336-65" v:mID="336" v:groupContext="shape">
					<title>Circle</title>
					<desc>A</desc>
					<v:userDefs>
						<v:ud v:nameU="visVersion" v:val="VT0(11):26"/>
					</v:userDefs>
					<v:textBlock v:margins="rect(4,4,4,4)" v:tabSpace="42.5197"/>
					<v:textRect cx="14.1732" cy="210.556" width="24.81" height="21.2598"/>
					<path d="M0 210.56 A14.1732 14.1732 0 0 1 28.35 210.56 A14.1732 14.1732 0 1 1 0 210.56 Z" class="st1"/>
					<text x="8.97" y="215.96" class="st2" v:langID="1033"><v:paragraph v:horizAlign="1"/><v:tabList/>A</text>				</g>
				<g id="shape337-68" v:mID="337" v:groupContext="shape" transform="translate(42.5197,-4.26326E-013)">
					<title>Circle.9</title>
					<desc>B</desc>
					<v:userDefs>
						<v:ud v:nameU="visVersion" v:val="VT0(11):26"/>
					</v:userDefs>
					<v:textBlock v:margins="rect(4,4,4,4)" v:tabSpace="42.5197"/>
					<v:textRect cx="14.1732" cy="210.556" width="24.81" height="21.2598"/>
					<path d="M0 210.56 A14.1732 14.1732 0 0 1 28.35 210.56 A14.1732 14.1732 0 1 1 0 210.56 Z" class="st1"/>
					<text x="9.28" y="215.96" class="st2" v:langID="1033"><v:paragraph v:horizAlign="1"/><v:tabList/>B</text>				</g>
				<g id="shape338-71" v:mID="338" v:groupContext="shape" transform="translate(85.0394,-2.55795E-013)">
					<title>Circle.10</title>
					<desc>C</desc>
					<v:userDefs>
						<v:ud v:nameU="visVersion" v:val="VT0(11):26"/>
					</v:userDefs>
					<v:textBlock v:margins="rect(4,4,4,4)" v:tabSpace="42.5197"/>
					<v:textRect cx="14.1732" cy="210.556" width="24.81" height="21.2598"/>
					<path d="M0 210.56 A14.1732 14.1732 0 0 1 28.35 210.56 A14.1732 14.1732 0 1 1 0 210.56 Z" class="st1"/>
					<text x="9.37" y="215.96" class="st2" v:langID="1033"><v:paragraph v:horizAlign="1"/><v:tabList/>C</text>				</g>
				<g id="shape339-74" v:mID="339" v:groupContext="shape" transform="translate(127.559,-1.42109E-013)">
					<title>Circle.11</title>
					<desc>A</desc>
					<v:userDefs>
						<v:ud v:nameU="visVersion" v:val="VT0(11):26"/>
					</v:userDefs>
					<v:textBlock v:margins="rect(4,4,4,4)" v:tabSpace="42.5197"/>
					<v:textRect cx="14.1732" cy="210.556" width="24.81" height="21.2598"/>
					<path d="M0 210.56 A14.1732 14.1732 0 0 1 28.35 210.56 A14.1732 14.1732 0 1 1 0 210.56 Z" class="st1"/>
					<text x="8.97" y="215.96" class="st2" v:langID="1033"><v:paragraph v:horizAlign="1"/><v:tabList/>A</text>				</g>
				<g id="shape340-77" v:mID="340" v:groupContext="shape" transform="translate(170.079,8.52651E-014)">
					<title>Circle.12</title>
					<desc>A</desc>
					<v:userDefs>
						<v:ud v:nameU="visVersion" v:val="VT0(11):26"/>
					</v:userDefs>
					<v:textBlock v:margins="rect(4,4,4,4)" v:tabSpace="42.5197"/>
					<v:textRect cx="14.1732" cy="210.556" width="24.81" height="21.2598"/>
					<path d="M0 210.56 A14.1732 14.1732 0 0 1 28.35 210.56 A14.1732 14.1732 0 1 1 0 210.56 Z" class="st1"/>
					<text x="8.97" y="215.96" class="st2" v:langID="1033"><v:paragraph v:horizAlign="1"/><v:tabList/>A</text>				</g>
				<g id="shape341-80" v:mID="341" v:groupContext="shape" transform="translate(28.3465,-14.1732)">
					<title>Sheet.341</title>
					<path d="M0 224.73 L14.17 224.73" class="st3"/>
				</g>
				<g id="shape342-83" v:mID="342" v:groupContext="shape" transform="translate(70.8661,-14.1732)">
					<title>Sheet.342</title>
					<path d="M0 224.73 L14.17 224.73" class="st3"/>
				</g>
				<g id="shape343-86" v:mID="343" v:groupContext="shape" transform="translate(113.386,-14.1732)">
					<title>Sheet.343</title>
					<path d="M0 224.73 L14.17 224.73" class="st3"/>
				</g>
				<g id="shape344-89" v:mID="344" v:groupContext="shape" transform="translate(155.906,-14.1732)">
					<title>Sheet.344</title>
					<path d="M0 224.73 L14.17 224.73" class="st3"/>
				</g>
			</g>
			<g id="shape345-92" v:mID="345" v:groupContext="shape" transform="translate(42.5197,-28.3465)">
				<title>Sheet.345</title>
				<desc>1</desc>
				<v:textBlock v:margins="rect(4,4,4,4)" v:tabSpace="42.5197"/>
				<v:textRect cx="14.1732" cy="217.643" width="28.35" height="14.1732"/>
				<rect x="0" y="210.556" width="28.3465" height="14.1732" class="st5"/>
				<text x="11.13" y="221.24" class="st6" v:langID="1033"><v:paragraph v:horizAlign="1"/><v:tabList/>1</text>			</g>
			<g id="shape346-95" v:mID="346" v:groupContext="shape" transform="translate(85.0394,-28.3465)">
				<title>Sheet.346</title>
				<desc>2</desc>
				<v:textBlock v:margins="rect(4,4,4,4)" v:tabSpace="42.5197"/>
				<v:textRect cx="14.1732" cy="217.643" width="28.35" height="14.1732"/>
				<rect x="0" y="210.556" width="28.3465" height="14.1732" class="st5"/>
				<text x="11.13" y="221.24" class="st6" v:langID="1033"><v:paragraph v:horizAlign="1"/><v:tabList/>2</text>			</g>
			<g id="shape347-98" v:mID="347" v:groupContext="shape" transform="translate(127.559,-28.3465)">
				<title>Sheet.347</title>
				<desc>3</desc>
				<v:textBlock v:margins="rect(4,4,4,4)" v:tabSpace="42.5197"/>
				<v:textRect cx="14.1732" cy="217.643" width="28.35" height="14.1732"/>
				<rect x="0" y="210.556" width="28.3465" height="14.1732" class="st5"/>
				<text x="11.13" y="221.24" class="st6" v:langID="1033"><v:paragraph v:horizAlign="1"/><v:tabList/>3</text>			</g>
			<g id="shape348-101" v:mID="348" v:groupContext="shape" transform="translate(170.079,-28.3465)">
				<title>Sheet.348</title>
				<desc>4</desc>
				<v:textBlock v:margins="rect(4,4,4,4)" v:tabSpace="42.5197"/>
				<v:textRect cx="14.1732" cy="217.643" width="28.35" height="14.1732"/>
				<rect x="0" y="210.556" width="28.3465" height="14.1732" class="st5"/>
				<text x="11.13" y="221.24" class="st6" v:langID="1033"><v:paragraph v:horizAlign="1"/><v:tabList/>4</text>			</g>
			<g id="shape349-104" v:mID="349" v:groupContext="shape" transform="translate(8.27338E-013,-28.3465)">
				<title>Sheet.349</title>
				<desc>0</desc>
				<v:textBlock v:margins="rect(4,4,4,4)" v:tabSpace="42.5197"/>
				<v:textRect cx="14.1732" cy="217.643" width="28.35" height="14.1732"/>
				<rect x="0" y="210.556" width="28.3465" height="14.1732" class="st5"/>
				<text x="11.13" y="221.24" class="st6" v:langID="1033"><v:paragraph v:horizAlign="1"/><v:tabList/>0</text>			</g>
		</g>
		<g id="group352-107" transform="translate(43.5197,-11.1312)" v:mID="352" v:groupContext="group">
			<title>Sheet.352</title>
			<g id="group36-108" transform="translate(14.1732,-14.1732)" v:mID="36" v:groupContext="group">
				<title>Sheet.36</title>
				<g id="shape37-109" v:mID="37" v:groupContext="shape" transform="translate(-1.39888E-014,-85.0394)">
					<title>Circle</title>
					<desc>A</desc>
					<v:userDefs>
						<v:ud v:nameU="visVersion" v:val="VT0(11):26"/>
					</v:userDefs>
					<v:textBlock v:margins="rect(4,4,4,4)" v:tabSpace="42.5197"/>
					<v:textRect cx="14.1732" cy="210.556" width="24.81" height="21.2598"/>
					<path d="M0 210.56 A14.1732 14.1732 0 0 1 28.35 210.56 A14.1732 14.1732 0 1 1 0 210.56 Z" class="st1"/>
					<text x="8.97" y="215.96" class="st2" v:langID="1033"><v:paragraph v:horizAlign="1"/><v:tabList/>A</text>				</g>
				<g id="shape38-113" v:mID="38" v:groupContext="shape" transform="translate(56.6929,-85.0394)">
					<title>Circle.33</title>
					<desc>1</desc>
					<v:userDefs>
						<v:ud v:nameU="visVersion" v:val="VT0(11):26"/>
					</v:userDefs>
					<v:textBlock v:margins="rect(4,4,4,4)" v:tabSpace="42.5197"/>
					<v:textRect cx="14.1732" cy="210.556" width="24.81" height="21.2598"/>
					<path d="M0 210.56 A14.1732 14.1732 0 0 1 28.35 210.56 A14.1732 14.1732 0 1 1 0 210.56 Z" class="st1"/>
					<text x="9.61" y="215.96" class="st2" v:langID="1033"><v:paragraph v:horizAlign="1"/><v:tabList/>1</text>				</g>
				<g id="shape39-117" v:mID="39" v:groupContext="shape">
					<title>Circle.34</title>
					<desc>B</desc>
					<v:userDefs>
						<v:ud v:nameU="visVersion" v:val="VT0(11):26"/>
					</v:userDefs>
					<v:textBlock v:margins="rect(4,4,4,4)" v:tabSpace="42.5197"/>
					<v:textRect cx="14.1732" cy="210.556" width="24.81" height="21.2598"/>
					<path d="M0 210.56 A14.1732 14.1732 0 0 1 28.35 210.56 A14.1732 14.1732 0 1 1 0 210.56 Z" class="st1"/>
					<text x="9.28" y="215.96" class="st2" v:langID="1033"><v:paragraph v:horizAlign="1"/><v:tabList/>B</text>				</g>
				<g id="shape40-121" v:mID="40" v:groupContext="shape" transform="translate(56.6929,2.84217E-014)">
					<title>Circle.35</title>
					<desc>5</desc>
					<v:userDefs>
						<v:ud v:nameU="visVersion" v:val="VT0(11):26"/>
					</v:userDefs>
					<v:textBlock v:margins="rect(4,4,4,4)" v:tabSpace="42.5197"/>
					<v:textRect cx="14.1732" cy="210.556" width="24.81" height="21.2598"/>
					<path d="M0 210.56 A14.1732 14.1732 0 0 1 28.35 210.56 A14.1732 14.1732 0 1 1 0 210.56 Z" class="st1"/>
					<text x="9.61" y="215.96" class="st2" v:langID="1033"><v:paragraph v:horizAlign="1"/><v:tabList/>5</text>				</g>
				<g id="shape41-125" v:mID="41" v:groupContext="shape" transform="translate(-1.39888E-014,-42.5197)">
					<title>Circle.36</title>
					<desc>C</desc>
					<v:userDefs>
						<v:ud v:nameU="visVersion" v:val="VT0(11):26"/>
					</v:userDefs>
					<v:textBlock v:margins="rect(4,4,4,4)" v:tabSpace="42.5197"/>
					<v:textRect cx="14.1732" cy="210.556" width="24.81" height="21.2598"/>
					<path d="M0 210.56 A14.1732 14.1732 0 0 1 28.35 210.56 A14.1732 14.1732 0 1 1 0 210.56 Z" class="st1"/>
					<text x="9.37" y="215.96" class="st2" v:langID="1033"><v:paragraph v:horizAlign="1"/><v:tabList/>C</text>				</g>
				<g id="shape42-129" v:mID="42" v:groupContext="shape" transform="translate(56.6929,-42.5197)">
					<title>Circle.37</title>
					<desc>1</desc>
					<v:userDefs>
						<v:ud v:nameU="visVersion" v:val="VT0(11):26"/>
					</v:userDefs>
					<v:textBlock v:margins="rect(4,4,4,4)" v:tabSpace="42.5197"/>
					<v:textRect cx="14.1732" cy="210.556" width="24.81" height="21.2598"/>
					<path d="M0 210.56 A14.1732 14.1732 0 0 1 28.35 210.56 A14.1732 14.1732 0 1 1 0 210.56 Z" class="st1"/>
					<text x="9.61" y="215.96" class="st2" v:langID="1033"><v:paragraph v:horizAlign="1"/><v:tabList/>1</text>				</g>
				<g id="shape43-133" v:mID="43" v:groupContext="shape" transform="translate(28.3465,-99.2126)">
					<title>Sheet.43</title>
					<path d="M0 224.73 L17.79 224.73" class="st7"/>
				</g>
				<g id="shape44-138" v:mID="44" v:groupContext="shape" transform="translate(28.3465,-14.1732)">
					<title>Sheet.44</title>
					<path d="M0 224.73 L17.79 224.73" class="st7"/>
				</g>
				<g id="shape45-143" v:mID="45" v:groupContext="shape" transform="translate(28.3465,-56.6929)">
					<title>Sheet.45</title>
					<path d="M0 224.73 L17.79 224.73" class="st7"/>
				</g>
			</g>
			<g id="shape351-148" v:mID="351" v:groupContext="shape">
				<title>Sheet.351</title>
				<rect x="0" y="82.9974" width="113.386" height="141.732" rx="14.1732" ry="14.1732" class="st8"/>
			</g>
		</g>
	</g>
</svg>
