<?xml version="1.0" encoding="UTF-8" standalone="no"?>
<!DOCTYPE svg PUBLIC "-//W3C//DTD SVG 1.0//EN" "http://www.w3.org/TR/2001/REC-SVG-20010904/DTD/svg10.dtd">
<!-- Generated by Microsoft Visio 11.0, SVG Export, v1.0 Collection-Iterator.svg Page-1 -->
<svg xmlns="http://www.w3.org/2000/svg" xmlns:xlink="http://www.w3.org/1999/xlink" xmlns:ev="http://www.w3.org/2001/xml-events"
		xmlns:v="http://schemas.microsoft.com/visio/2003/SVGExtensions/" width="2.67141in" height="1.68715in"
		viewBox="0 0 192.341 121.475" xml:space="preserve" color-interpolation-filters="sRGB" class="st5">
	<v:documentProperties v:langID="1033" v:metric="true" v:viewMarkup="false"/>

	<style type="text/css">
	<![CDATA[
		.st1 {fill:none;stroke:#000000;stroke-linecap:round;stroke-linejoin:round;stroke-width:1}
		.st2 {fill:#000000;fill-opacity:1;stroke:#000000;stroke-opacity:1;stroke-width:0.28409090909091}
		.st3 {fill:#000000;font-family:Calibri;font-size:1.5em}
		.st4 {marker-end:url(#mrkr13-5);stroke:#000000;stroke-linecap:round;stroke-linejoin:round;stroke-width:1}
		.st5 {fill:none;fill-rule:evenodd;font-size:12px;overflow:visible;stroke-linecap:square;stroke-miterlimit:3}
	]]>
	</style>

	<defs id="Markers">
		<g id="lend13">
			<path d="M 3 1 L 0 0 L 3 -1 L 3 1 " style="stroke:none"/>
		</g>
		<marker id="mrkr13-5" class="st2" v:arrowType="13" v:arrowSize="2" v:setback="10.56" refX="-10.56" orient="auto"
				markerUnits="strokeWidth" overflow="visible">
			<use xlink:href="#lend13" transform="scale(-3.52,-3.52) "/>
		</marker>
	</defs>
	<g v:mID="0" v:index="1" v:groupContext="foregroundPage">
		<title>Page-1</title>
		<v:pageProperties v:drawingScale="0.0393701" v:pageScale="0.0393701" v:drawingUnits="24" v:shadowOffsetX="8.50394"
				v:shadowOffsetY="-8.50394"/>
		<g id="group2-1" transform="translate(11.1312,-11.1312)" v:mID="2" v:groupContext="group">
			<title>Sheet.2</title>
			<g id="shape3-2" v:mID="3" v:groupContext="shape">
				<title>Ellipse</title>
				<v:userDefs>
					<v:ud v:nameU="visVersion" v:val="VT0(11):26"/>
				</v:userDefs>
				<path d="M0 71.87 A85.0394 49.6063 0 0 1 170.08 71.87 A85.0394 49.6063 0 1 1 -0 71.87 Z" class="st1"/>
			</g>
			<g id="shape4-6" v:mID="4" v:groupContext="shape" transform="translate(127.559,-35.8268)">
				<title>Circle.17</title>
				<desc>A</desc>
				<v:userDefs>
					<v:ud v:nameU="visVersion" v:val="VT0(11):26"/>
				</v:userDefs>
				<v:textBlock v:margins="rect(4,4,4,4)" v:tabSpace="42.5197"/>
				<v:textRect cx="14.1732" cy="107.696" width="24.81" height="20.6693"/>
				<path d="M0 107.7 A14.1732 13.7795 0 0 1 28.35 107.7 A14.1732 13.7795 0 1 1 0 107.7 Z" class="st1"/>
				<text x="8.97" y="113.1" class="st3" v:langID="1033"><v:paragraph v:horizAlign="1"/><v:tabList/>A</text>			</g>
			<g id="shape5-10" v:mID="5" v:groupContext="shape" transform="translate(99.2126,-8.26772)">
				<title>Circle.2</title>
				<desc>B</desc>
				<v:userDefs>
					<v:ud v:nameU="visVersion" v:val="VT0(11):26"/>
				</v:userDefs>
				<v:textBlock v:margins="rect(4,4,4,4)" v:tabSpace="42.5197"/>
				<v:textRect cx="14.1732" cy="107.696" width="24.81" height="20.6693"/>
				<path d="M0 107.7 A14.1732 13.7795 0 0 1 28.35 107.7 A14.1732 13.7795 0 1 1 0 107.7 Z" class="st1"/>
				<text x="9.28" y="113.1" class="st3" v:langID="1033"><v:paragraph v:horizAlign="1"/><v:tabList/>B</text>			</g>
			<g id="shape6-14" v:mID="6" v:groupContext="shape" transform="translate(99.2126,-63.3858)">
				<title>Circle.3</title>
				<desc>C</desc>
				<v:userDefs>
					<v:ud v:nameU="visVersion" v:val="VT0(11):26"/>
				</v:userDefs>
				<v:textBlock v:margins="rect(4,4,4,4)" v:tabSpace="42.5197"/>
				<v:textRect cx="14.1732" cy="107.696" width="24.81" height="20.6693"/>
				<path d="M0 107.7 A14.1732 13.7795 0 0 1 28.35 107.7 A14.1732 13.7795 0 1 1 0 107.7 Z" class="st1"/>
				<text x="9.37" y="113.1" class="st3" v:langID="1033"><v:paragraph v:horizAlign="1"/><v:tabList/>C</text>			</g>
			<g id="shape7-18" v:mID="7" v:groupContext="shape" transform="translate(48.189,-22.0472)">
				<title>Circle.4</title>
				<desc>E</desc>
				<v:userDefs>
					<v:ud v:nameU="visVersion" v:val="VT0(11):26"/>
				</v:userDefs>
				<v:textBlock v:margins="rect(4,4,4,4)" v:tabSpace="42.5197"/>
				<v:textRect cx="14.1732" cy="107.696" width="24.81" height="20.6693"/>
				<path d="M0 107.7 A14.1732 13.7795 0 0 1 28.35 107.7 A14.1732 13.7795 0 1 1 0 107.7 Z" class="st1"/>
				<text x="9.78" y="113.1" class="st3" v:langID="1033"><v:paragraph v:horizAlign="1"/><v:tabList/>E</text>			</g>
			<g id="shape8-22" v:mID="8" v:groupContext="shape" transform="translate(56.6929,-63.3858)">
				<title>Circle.1</title>
				<desc>A</desc>
				<v:userDefs>
					<v:ud v:nameU="visVersion" v:val="VT0(11):26"/>
				</v:userDefs>
				<v:textBlock v:margins="rect(4,4,4,4)" v:tabSpace="42.5197"/>
				<v:textRect cx="14.1732" cy="107.696" width="24.81" height="20.6693"/>
				<path d="M0 107.7 A14.1732 13.7795 0 0 1 28.35 107.7 A14.1732 13.7795 0 1 1 0 107.7 Z" class="st1"/>
				<text x="8.97" y="113.1" class="st3" v:langID="1033"><v:paragraph v:horizAlign="1"/><v:tabList/>A</text>			</g>
			<g id="shape9-26" v:mID="9" v:groupContext="shape" transform="translate(14.1732,-35.8268)">
				<title>Circle.25</title>
				<desc>D</desc>
				<v:userDefs>
					<v:ud v:nameU="visVersion" v:val="VT0(11):26"/>
				</v:userDefs>
				<v:textBlock v:margins="rect(4,4,4,4)" v:tabSpace="42.5197"/>
				<v:textRect cx="14.1732" cy="107.696" width="24.81" height="20.6693"/>
				<path d="M0 107.7 A14.1732 13.7795 0 0 1 28.35 107.7 A14.1732 13.7795 0 1 1 0 107.7 Z" class="st1"/>
				<text x="8.64" y="113.1" class="st3" v:langID="1033"><v:paragraph v:horizAlign="1"/><v:tabList/>D</text>			</g>
			<g id="shape10-30" v:mID="10" v:groupContext="shape" transform="translate(154.858,25.6494) rotate(67.6363)">
				<title>Sheet.10</title>
				<path d="M0 121.48 L4.34 121.48" class="st4"/>
			</g>
			<g id="shape11-35" v:mID="11" v:groupContext="shape" transform="translate(139.616,-18.1642) rotate(31.2845)">
				<title>Sheet.11</title>
				<path d="M0 121.48 L15.98 121.48" class="st4"/>
			</g>
			<g id="shape12-40" v:mID="12" v:groupContext="shape" transform="translate(47.3161,187.584) rotate(-147.051)">
				<title>Sheet.12</title>
				<path d="M0 121.48 L40.11 121.48" class="st4"/>
			</g>
			<g id="shape13-45" v:mID="13" v:groupContext="shape" transform="translate(85.0394,-77.1654)">
				<title>Sheet.13</title>
				<path d="M0 121.48 L3.61 121.48" class="st4"/>
			</g>
			<g id="shape14-50" v:mID="14" v:groupContext="shape" transform="translate(212.237,-42.7873) rotate(44.1931)">
				<title>Sheet.14</title>
				<path d="M0 121.48 L9.21 121.48" class="st4"/>
			</g>
		</g>
	</g>
</svg>
