<?xml version="1.0" encoding="UTF-8" standalone="no"?>
<!DOCTYPE svg PUBLIC "-//W3C//DTD SVG 1.1//EN" "http://www.w3.org/Graphics/SVG/1.1/DTD/svg11.dtd">
<!-- Generated by Microsoft Visio, SVG Export ComponentEventTermination.svg Page-1 -->
<svg xmlns="http://www.w3.org/2000/svg" xmlns:xlink="http://www.w3.org/1999/xlink" xmlns:ev="http://www.w3.org/2001/xml-events"
		width="3.9017in" height="2.22847in" viewBox="0 0 280.923 160.45" xml:space="preserve" color-interpolation-filters="sRGB"
		class="st10">
	<style type="text/css">
	<![CDATA[
		.st1 {fill:#e8eef7;stroke:#000000;stroke-linecap:round;stroke-linejoin:round;stroke-width:1}
		.st2 {fill:#000000;font-family:Calibri;font-size:1.33333em}
		.st3 {stroke:#000000;stroke-linecap:round;stroke-linejoin:round;stroke-width:1}
		.st4 {fill:#e8eef7;marker-end:url(#mrkr13-17);stroke:#000000;stroke-linecap:round;stroke-linejoin:round;stroke-width:1}
		.st5 {fill:#000000;fill-opacity:1;stroke:#000000;stroke-opacity:1;stroke-width:0.28409090909091}
		.st6 {marker-end:url(#mrkr13-17);stroke:#000000;stroke-linecap:round;stroke-linejoin:round;stroke-width:1}
		.st7 {fill:none;marker-end:url(#mrkr13-17);stroke:none;stroke-linecap:round;stroke-linejoin:round;stroke-width:1}
		.st8 {fill:#000000;font-family:Arial;font-size:0.666664em}
		.st9 {fill:#000000;font-family:Calibri;font-size:0.666664em}
		.st10 {fill:none;fill-rule:evenodd;font-size:12px;overflow:visible;stroke-linecap:square;stroke-miterlimit:3}
	]]>
	</style>

	<defs id="Markers">
		<g id="lend13">
			<path d="M 3 1 L 0 0 L 3 -1 L 3 1 " style="stroke:none"/>
		</g>
		<marker id="mrkr13-17" class="st5" refX="-10.56" orient="auto" markerUnits="strokeWidth" overflow="visible">
			<use xlink:href="#lend13" transform="scale(-3.52,-3.52) "/>
		</marker>
	</defs>
	<g>
		<title>Page-1</title>
		<g id="group85-1" transform="translate(11.1312,-4.0446)">
			<title>Sheet.85</title>
			<g id="shape64-2" transform="translate(14.1732,-127.559)">
				<title>Sheet.64</title>
				<desc>Компонента</desc>
				<rect x="0" y="132.104" width="113.386" height="28.3465" class="st1"/>
				<text x="14.87" y="151.08" class="st2">Компонента</text>			</g>
			<g id="shape65-5" transform="translate(155.906,-127.559)">
				<title>Sheet.65</title>
				<desc>Модель</desc>
				<rect x="0" y="132.104" width="113.386" height="28.3465" class="st1"/>
				<text x="29.35" y="151.08" class="st2">Модель</text>			</g>
			<g id="shape66-8" transform="translate(231.316,32.8911) rotate(90)">
				<title>Sheet.66</title>
				<path d="M0 160.45 L127.56 160.45" class="st3"/>
			</g>
			<g id="shape67-11" transform="translate(373.049,32.8911) rotate(90)">
				<title>Sheet.67</title>
				<path d="M0 160.45 L127.56 160.45" class="st3"/>
			</g>
			<g id="shape68-14" transform="translate(205.512,-14.1732)">
				<title>Sheet.68</title>
				<rect x="0" y="96.6706" width="14.1732" height="63.7795" class="st4"/>
			</g>
			<g id="shape69-18" transform="translate(63.7795,-7.08661)">
				<title>Sheet.69</title>
				<rect x="0" y="54.1509" width="14.1732" height="106.299" class="st4"/>
			</g>
			<g id="shape70-21" transform="translate(77.9528,-70.8661)">
				<title>Sheet.70</title>
				<path d="M0 160.45 L117 160.45" class="st6"/>
			</g>
			<g id="shape71-26" transform="translate(77.9528,-21.2598)">
				<title>Sheet.71</title>
				<desc>Извещение слушателя</desc>
				<rect x="0" y="146.277" width="127.559" height="14.1732" class="st7"/>
				<text x="21.1" y="155.76" class="st8">Извещение слушателя</text>			</g>
			<g id="shape72-30" transform="translate(1.59872E-014,-14.1732)">
				<title>Sheet.72</title>
				<desc>Значения равны</desc>
				<rect x="0" y="146.56" width="63.7795" height="13.8898" class="st7"/>
				<text x="4.24" y="155.91" class="st9">Значения равны</text>			</g>
			<g id="shape73-34" transform="translate(0.713105,-106.581) rotate(0.254646)">
				<title>Sheet.73</title>
				<path d="M0 160.45 L53.22 160.45" class="st6"/>
			</g>
			<g id="shape74-39" transform="translate(1.59872E-014,-106.583)">
				<title>Sheet.74</title>
				<desc>Модификация</desc>
				<rect x="0" y="146.56" width="63.7795" height="13.8898" class="st7"/>
				<text x="7.31" y="155.91" class="st9">Модификация</text>			</g>
			<g id="shape75-43" transform="translate(77.9528,-92.0551)">
				<title>Sheet.75</title>
				<path d="M0 153.01 L63.78 153.01 L63.78 160.45 L10.56 160.15" class="st6"/>
			</g>
			<g id="shape76-48" transform="translate(77.9528,-99.4961)">
				<title>Sheet.76</title>
				<desc>Установка нового значения</desc>
				<rect x="0" y="146.56" width="113.386" height="13.8898" class="st7"/>
				<text x="10.11" y="155.91" class="st9">Установка нового значения</text>			</g>
			<g id="shape77-52" transform="translate(77.9528,-70.8661)">
				<title>Sheet.77</title>
				<desc>Извещение слушателя</desc>
				<rect x="0" y="146.277" width="127.559" height="14.1732" class="st7"/>
				<text x="21.1" y="155.76" class="st8">Извещение слушателя</text>			</g>
			<g id="shape78-56" transform="translate(205.512,-42.5197) scale(-1,1)">
				<title>Sheet.78</title>
				<path d="M0 153.01 L63.78 153.01 L63.78 160.45 L10.56 160.15" class="st6"/>
			</g>
			<g id="shape79-61" transform="translate(92.126,-49.8898)">
				<title>Sheet.79</title>
				<desc>Установка нового значения</desc>
				<rect x="0" y="146.56" width="113.386" height="13.8898" class="st7"/>
				<text x="10.11" y="155.91" class="st9">Установка нового значения</text>			</g>
			<g id="shape80-65" transform="translate(205.512,299.64) rotate(180)">
				<title>Sheet.80</title>
				<path d="M0 160.45 L109.91 160.45" class="st6"/>
			</g>
			<g id="shape81-70" transform="translate(70.8661,-14.1732)">
				<title>Sheet.81</title>
				<rect x="0" y="146.277" width="14.1732" height="14.1732" class="st1"/>
			</g>
		</g>
	</g>
</svg>
