<?xml version="1.0" encoding="UTF-8" standalone="no"?>
<!DOCTYPE svg PUBLIC "-//W3C//DTD SVG 1.1//EN" "http://www.w3.org/Graphics/SVG/1.1/DTD/svg11.dtd">
<!-- Generated by Microsoft Visio, SVG Export DeadlockDiagram.svg Page-1 -->
<svg xmlns="http://www.w3.org/2000/svg" xmlns:xlink="http://www.w3.org/1999/xlink" xmlns:ev="http://www.w3.org/2001/xml-events"
		width="4.57315in" height="4.57315in" viewBox="0 0 329.267 329.267" xml:space="preserve" color-interpolation-filters="sRGB"
		class="st15">
	<style type="text/css">
	<![CDATA[
		.st1 {fill:none;marker-end:url(#mrkr13-5);stroke:#000000;stroke-linecap:round;stroke-linejoin:round;stroke-width:0.24}
		.st2 {fill:#000000;fill-opacity:1;stroke:#000000;stroke-opacity:1;stroke-width:0.08695652173913}
		.st3 {fill:#000000;font-family:Calibri;font-size:1.66667em}
		.st4 {stroke:#000000;stroke-linecap:round;stroke-linejoin:round;stroke-width:3.12}
		.st5 {fill:none;marker-end:url(#mrkr13-155);stroke:#000000;stroke-linecap:round;stroke-linejoin:round;stroke-width:1}
		.st6 {fill:#000000;fill-opacity:1;stroke:#000000;stroke-opacity:1;stroke-width:0.28409090909091}
		.st7 {fill:#ff0000;marker-end:url(#mrkr13-155);stroke:#000000;stroke-linecap:round;stroke-linejoin:round;stroke-width:1}
		.st8 {fill:#ffffff;marker-end:url(#mrkr13-195);stroke:#e6e6e6;stroke-linecap:round;stroke-linejoin:round;stroke-width:1}
		.st9 {fill:#e6e6e6;fill-opacity:1;stroke:#e6e6e6;stroke-opacity:1;stroke-width:0.28409090909091}
		.st10 {marker-end:url(#mrkr13-155);stroke:#000000;stroke-linecap:round;stroke-linejoin:round;stroke-width:1}
		.st11 {stroke:#000000;stroke-linecap:round;stroke-linejoin:round;stroke-width:3}
		.st12 {marker-end:url(#mrkr13-195);stroke:#e6e6e6;stroke-linecap:round;stroke-linejoin:round;stroke-width:1}
		.st13 {fill:none;marker-end:url(#mrkr13-5);stroke:none;stroke-linecap:round;stroke-linejoin:round;stroke-width:0.24}
		.st14 {fill:#000000;font-family:Calibri;font-size:1.83334em}
		.st15 {fill:none;fill-rule:evenodd;font-size:12px;overflow:visible;stroke-linecap:square;stroke-miterlimit:3}
	]]>
	</style>

	<defs id="Markers">
		<g id="lend13">
			<path d="M 3 1 L 0 0 L 3 -1 L 3 1 " style="stroke:none"/>
		</g>
		<marker id="mrkr13-5" class="st2" refX="-34.5" orient="auto" markerUnits="strokeWidth" overflow="visible">
			<use xlink:href="#lend13" transform="scale(-11.5,-11.5) "/>
		</marker>
		<marker id="mrkr13-155" class="st6" refX="-10.56" orient="auto" markerUnits="strokeWidth" overflow="visible">
			<use xlink:href="#lend13" transform="scale(-3.52,-3.52) "/>
		</marker>
		<marker id="mrkr13-195" class="st9" refX="-10.56" orient="auto" markerUnits="strokeWidth" overflow="visible">
			<use xlink:href="#lend13" transform="scale(-3.52,-3.52) "/>
		</marker>
	</defs>
	<g>
		<title>Page-1</title>
		<g id="group592-1" transform="translate(8.72789,-8.07518)">
			<title>Sheet.592</title>
			<g id="shape407-2" transform="translate(56.6929,-284.117)">
				<title>Sheet.407</title>
				<desc>0</desc>
				<rect x="0" y="300.92" width="28.3465" height="28.3465" class="st1"/>
				<text x="9.1" y="321.09" class="st3">0</text>			</g>
			<g id="shape408-7" transform="translate(85.0394,-284.117)">
				<title>Sheet.408</title>
				<desc>1</desc>
				<rect x="0" y="300.92" width="28.3465" height="28.3465" class="st1"/>
				<text x="9.1" y="321.09" class="st3">1</text>			</g>
			<g id="shape409-11" transform="translate(113.386,-284.117)">
				<title>Sheet.409</title>
				<desc>2</desc>
				<rect x="0" y="300.92" width="28.3465" height="28.3465" class="st1"/>
				<text x="9.1" y="321.09" class="st3">2</text>			</g>
			<g id="shape410-15" transform="translate(141.732,-284.117)">
				<title>Sheet.410</title>
				<desc>3</desc>
				<rect x="0" y="300.92" width="28.3465" height="28.3465" class="st1"/>
				<text x="9.1" y="321.09" class="st3">3</text>			</g>
			<g id="shape411-19" transform="translate(170.079,-284.117)">
				<title>Sheet.411</title>
				<desc>4</desc>
				<rect x="0" y="300.92" width="28.3465" height="28.3465" class="st1"/>
				<text x="9.1" y="321.09" class="st3">4</text>			</g>
			<g id="shape412-23" transform="translate(198.425,-284.117)">
				<title>Sheet.412</title>
				<desc>5</desc>
				<rect x="0" y="300.92" width="28.3465" height="28.3465" class="st1"/>
				<text x="9.1" y="321.09" class="st3">5</text>			</g>
			<g id="shape413-27" transform="translate(226.772,-284.117)">
				<title>Sheet.413</title>
				<desc>6</desc>
				<rect x="0" y="300.92" width="28.3465" height="28.3465" class="st1"/>
				<text x="9.1" y="321.09" class="st3">6</text>			</g>
			<g id="shape414-31" transform="translate(255.118,-284.117)">
				<title>Sheet.414</title>
				<desc>7</desc>
				<rect x="0" y="300.92" width="28.3465" height="28.3465" class="st1"/>
				<text x="9.1" y="321.09" class="st3">7</text>			</g>
			<g id="shape415-35" transform="translate(283.465,-284.117)">
				<title>Sheet.415</title>
				<desc>8</desc>
				<rect x="0" y="300.92" width="28.3465" height="28.3465" class="st1"/>
				<text x="9.1" y="321.09" class="st3">8</text>			</g>
			<g id="shape416-39" transform="translate(56.6929,-255.771)">
				<title>Sheet.416</title>
				<rect x="0" y="300.92" width="28.3465" height="28.3465" class="st1"/>
			</g>
			<g id="shape417-42" transform="translate(85.0394,-255.771)">
				<title>Sheet.417</title>
				<desc>2</desc>
				<rect x="0" y="300.92" width="28.3465" height="28.3465" class="st1"/>
				<text x="9.1" y="321.09" class="st3">2</text>			</g>
			<g id="shape418-46" transform="translate(113.386,-255.771)">
				<title>Sheet.418</title>
				<desc>2</desc>
				<rect x="0" y="300.92" width="28.3465" height="28.3465" class="st1"/>
				<text x="9.1" y="321.09" class="st3">2</text>			</g>
			<g id="shape419-50" transform="translate(141.732,-255.771)">
				<title>Sheet.419</title>
				<desc>1,2</desc>
				<rect x="0" y="300.92" width="28.3465" height="28.3465" class="st1"/>
				<text x="1.54" y="321.09" class="st3">1,2</text>			</g>
			<g id="shape420-54" transform="translate(170.079,-255.771)">
				<title>Sheet.420</title>
				<desc>2</desc>
				<rect x="0" y="300.92" width="28.3465" height="28.3465" class="st1"/>
				<text x="9.1" y="321.09" class="st3">2</text>			</g>
			<g id="shape421-58" transform="translate(198.425,-255.771)">
				<title>Sheet.421</title>
				<desc>2</desc>
				<rect x="0" y="300.92" width="28.3465" height="28.3465" class="st1"/>
				<text x="9.1" y="321.09" class="st3">2</text>			</g>
			<g id="shape422-62" transform="translate(226.772,-255.771)">
				<title>Sheet.422</title>
				<desc>1,2</desc>
				<rect x="0" y="300.92" width="28.3465" height="28.3465" class="st1"/>
				<text x="1.54" y="321.09" class="st3">1,2</text>			</g>
			<g id="shape423-66" transform="translate(255.118,-255.771)">
				<title>Sheet.423</title>
				<desc>2</desc>
				<rect x="0" y="300.92" width="28.3465" height="28.3465" class="st1"/>
				<text x="9.1" y="321.09" class="st3">2</text>			</g>
			<g id="shape424-70" transform="translate(283.465,-255.771)">
				<title>Sheet.424</title>
				<rect x="0" y="300.92" width="28.3465" height="28.3465" class="st1"/>
			</g>
			<g id="shape425-73" transform="translate(3.8809E-012,-227.424)">
				<title>Sheet.425</title>
				<desc>0</desc>
				<rect x="0" y="300.92" width="28.3465" height="28.3465" class="st1"/>
				<text x="9.1" y="321.09" class="st3">0</text>			</g>
			<g id="shape426-77" transform="translate(3.55516E-012,-199.078)">
				<title>Sheet.426</title>
				<desc>1</desc>
				<rect x="0" y="300.92" width="28.3465" height="28.3465" class="st1"/>
				<text x="9.1" y="321.09" class="st3">1</text>			</g>
			<g id="shape427-81" transform="translate(2.91567E-012,-170.731)">
				<title>Sheet.427</title>
				<desc>2</desc>
				<rect x="0" y="300.92" width="28.3465" height="28.3465" class="st1"/>
				<text x="9.1" y="321.09" class="st3">2</text>			</g>
			<g id="shape428-85" transform="translate(2.53397E-012,-142.385)">
				<title>Sheet.428</title>
				<desc>3</desc>
				<rect x="0" y="300.92" width="28.3465" height="28.3465" class="st1"/>
				<text x="9.1" y="321.09" class="st3">3</text>			</g>
			<g id="shape429-89" transform="translate(1.95843E-012,-114.039)">
				<title>Sheet.429</title>
				<desc>4</desc>
				<rect x="0" y="300.92" width="28.3465" height="28.3465" class="st1"/>
				<text x="9.1" y="321.09" class="st3">4</text>			</g>
			<g id="shape430-93" transform="translate(1.32494E-012,-85.6921)">
				<title>Sheet.430</title>
				<desc>5</desc>
				<rect x="0" y="300.92" width="28.3465" height="28.3465" class="st1"/>
				<text x="9.1" y="321.09" class="st3">5</text>			</g>
			<g id="shape431-97" transform="translate(9.99201E-013,-57.3456)">
				<title>Sheet.431</title>
				<desc>6</desc>
				<rect x="0" y="300.92" width="28.3465" height="28.3465" class="st1"/>
				<text x="9.1" y="321.09" class="st3">6</text>			</g>
			<g id="shape432-101" transform="translate(3.59712E-013,-28.9992)">
				<title>Sheet.432</title>
				<desc>7</desc>
				<rect x="0" y="300.92" width="28.3465" height="28.3465" class="st1"/>
				<text x="9.1" y="321.09" class="st3">7</text>			</g>
			<g id="shape433-105" transform="translate(4.19664E-014,-0.652711)">
				<title>Sheet.433</title>
				<desc>8</desc>
				<rect x="0" y="300.92" width="28.3465" height="28.3465" class="st1"/>
				<text x="9.1" y="321.09" class="st3">8</text>			</g>
			<g id="shape434-109" transform="translate(28.3465,-227.424)">
				<title>Sheet.434</title>
				<rect x="0" y="300.92" width="28.3465" height="28.3465" class="st1"/>
			</g>
			<g id="shape435-112" transform="translate(28.3465,-170.731)">
				<title>Sheet.435</title>
				<desc>1</desc>
				<rect x="0" y="300.92" width="28.3465" height="28.3465" class="st1"/>
				<text x="9.1" y="321.09" class="st3">1</text>			</g>
			<g id="shape436-116" transform="translate(28.3465,-142.385)">
				<title>Sheet.436</title>
				<desc>1,2</desc>
				<rect x="0" y="300.92" width="28.3465" height="28.3465" class="st1"/>
				<text x="1.54" y="321.09" class="st3">1,2</text>			</g>
			<g id="shape437-120" transform="translate(28.3465,-114.039)">
				<title>Sheet.437</title>
				<desc>1</desc>
				<rect x="0" y="300.92" width="28.3465" height="28.3465" class="st1"/>
				<text x="9.1" y="321.09" class="st3">1</text>			</g>
			<g id="shape438-124" transform="translate(28.3465,-85.6921)">
				<title>Sheet.438</title>
				<desc>1</desc>
				<rect x="0" y="300.92" width="28.3465" height="28.3465" class="st1"/>
				<text x="9.1" y="321.09" class="st3">1</text>			</g>
			<g id="shape439-128" transform="translate(28.3465,-57.3456)">
				<title>Sheet.439</title>
				<desc>1,2</desc>
				<rect x="0" y="300.92" width="28.3465" height="28.3465" class="st1"/>
				<text x="1.54" y="321.09" class="st3">1,2</text>			</g>
			<g id="shape440-132" transform="translate(28.3465,-28.9992)">
				<title>Sheet.440</title>
				<desc>1</desc>
				<rect x="0" y="300.92" width="28.3465" height="28.3465" class="st1"/>
				<text x="9.1" y="321.09" class="st3">1</text>			</g>
			<g id="shape441-136" transform="translate(28.3465,-0.652711)">
				<title>Sheet.441</title>
				<rect x="0" y="300.92" width="28.3465" height="28.3465" class="st1"/>
			</g>
			<g id="shape442-139" transform="translate(385.96,16.8031) rotate(90)">
				<title>Sheet.442</title>
				<path d="M0 329.27 L311.81 329.27" class="st4"/>
			</g>
			<g id="shape443-142" transform="translate(311.811,402.763) rotate(180)">
				<title>Sheet.443</title>
				<path d="M0 329.27 L311.81 329.27" class="st4"/>
			</g>
			<g id="shape444-145" transform="translate(28.3465,-199.078)">
				<title>Sheet.444</title>
				<desc>1</desc>
				<rect x="0" y="300.92" width="28.3465" height="28.3465" class="st1"/>
				<text x="9.1" y="321.09" class="st3">1</text>			</g>
			<g id="shape445-149" transform="translate(56.6929,-113.386)">
				<title>Sheet.445</title>
				<path d="M0 329.27 L49.61 329.27" class="st4"/>
			</g>
			<g id="shape446-152" transform="translate(63.7795,-234.511)">
				<title>Sheet.446</title>
				<ellipse cx="7.08661" cy="322.18" rx="7.08661" ry="7.08661" class="st5"/>
			</g>
			<g id="shape447-156" transform="translate(92.126,-234.511)">
				<title>Sheet.447</title>
				<ellipse cx="7.08661" cy="322.18" rx="7.08661" ry="7.08661" class="st5"/>
			</g>
			<g id="shape448-159" transform="translate(120.472,-234.511)">
				<title>Sheet.448</title>
				<ellipse cx="7.08661" cy="322.18" rx="7.08661" ry="7.08661" class="st5"/>
			</g>
			<g id="shape449-162" transform="translate(148.819,-234.511)">
				<title>Sheet.449</title>
				<ellipse cx="7.08661" cy="322.18" rx="7.08661" ry="7.08661" class="st5"/>
			</g>
			<g id="shape450-165" transform="translate(177.165,-234.511)">
				<title>Sheet.450</title>
				<ellipse cx="7.08661" cy="322.18" rx="7.08661" ry="7.08661" class="st5"/>
			</g>
			<g id="shape451-168" transform="translate(63.7795,-206.165)">
				<title>Sheet.451</title>
				<ellipse cx="7.08661" cy="322.18" rx="7.08661" ry="7.08661" class="st5"/>
			</g>
			<g id="shape452-171" transform="translate(92.126,-206.165)">
				<title>Sheet.452</title>
				<ellipse cx="7.08661" cy="322.18" rx="7.08661" ry="7.08661" class="st5"/>
			</g>
			<g id="shape453-174" transform="translate(120.472,-206.165)">
				<title>Sheet.453</title>
				<ellipse cx="7.08661" cy="322.18" rx="7.08661" ry="7.08661" class="st5"/>
			</g>
			<g id="shape454-177" transform="translate(148.819,-206.165)">
				<title>Sheet.454</title>
				<ellipse cx="7.08661" cy="322.18" rx="7.08661" ry="7.08661" class="st7"/>
			</g>
			<g id="shape455-180" transform="translate(177.165,-206.165)">
				<title>Sheet.455</title>
				<ellipse cx="7.08661" cy="322.18" rx="7.08661" ry="7.08661" class="st5"/>
			</g>
			<g id="shape456-183" transform="translate(92.126,-177.818)">
				<title>Sheet.456</title>
				<ellipse cx="7.08661" cy="322.18" rx="7.08661" ry="7.08661" class="st5"/>
			</g>
			<g id="shape457-186" transform="translate(120.472,-177.818)">
				<title>Sheet.457</title>
				<ellipse cx="7.08661" cy="322.18" rx="7.08661" ry="7.08661" class="st5"/>
			</g>
			<g id="shape458-189" transform="translate(148.819,-177.818)">
				<title>Sheet.458</title>
				<ellipse cx="7.08661" cy="322.18" rx="7.08661" ry="7.08661" class="st7"/>
			</g>
			<g id="shape459-192" transform="translate(177.165,-177.818)">
				<title>Sheet.459</title>
				<ellipse cx="7.08661" cy="322.18" rx="7.08661" ry="7.08661" class="st8"/>
			</g>
			<g id="shape460-196" transform="translate(92.126,-149.472)">
				<title>Sheet.460</title>
				<ellipse cx="7.08661" cy="322.18" rx="7.08661" ry="7.08661" class="st7"/>
			</g>
			<g id="shape461-199" transform="translate(120.472,-149.472)">
				<title>Sheet.461</title>
				<ellipse cx="7.08661" cy="322.18" rx="7.08661" ry="7.08661" class="st7"/>
			</g>
			<g id="shape462-202" transform="translate(148.819,-149.472)">
				<title>Sheet.462</title>
				<ellipse cx="7.08661" cy="322.18" rx="7.08661" ry="7.08661" class="st7"/>
			</g>
			<g id="shape463-205" transform="translate(177.165,-149.472)">
				<title>Sheet.463</title>
				<ellipse cx="7.08661" cy="322.18" rx="7.08661" ry="7.08661" class="st7"/>
			</g>
			<g id="shape464-208" transform="translate(148.819,-121.125)">
				<title>Sheet.464</title>
				<ellipse cx="7.08661" cy="322.18" rx="7.08661" ry="7.08661" class="st7"/>
			</g>
			<g id="shape465-211" transform="translate(177.165,-121.125)">
				<title>Sheet.465</title>
				<ellipse cx="7.08661" cy="322.18" rx="7.08661" ry="7.08661" class="st8"/>
			</g>
			<g id="shape466-214" transform="translate(63.7795,-177.818)">
				<title>Sheet.466</title>
				<ellipse cx="7.08661" cy="322.18" rx="7.08661" ry="7.08661" class="st5"/>
			</g>
			<g id="shape467-217" transform="translate(63.7795,-149.472)">
				<title>Sheet.467</title>
				<ellipse cx="7.08661" cy="322.18" rx="7.08661" ry="7.08661" class="st5"/>
			</g>
			<g id="shape468-220" transform="translate(63.7795,-121.125)">
				<title>Sheet.468</title>
				<ellipse cx="7.08661" cy="322.18" rx="7.08661" ry="7.08661" class="st5"/>
			</g>
			<g id="shape469-223" transform="translate(92.126,-121.125)">
				<title>Sheet.469</title>
				<ellipse cx="7.08661" cy="322.18" rx="7.08661" ry="7.08661" class="st5"/>
			</g>
			<g id="shape470-226" transform="translate(120.472,-121.125)">
				<title>Sheet.470</title>
				<ellipse cx="7.08661" cy="322.18" rx="7.08661" ry="7.08661" class="st8"/>
			</g>
			<g id="shape471-229" transform="translate(77.9528,-234.511)">
				<title>Dynamic connector.72</title>
				<path d="M0 322.18 L3.61 322.18" class="st10"/>
			</g>
			<g id="shape472-234" transform="translate(106.299,-234.511)">
				<title>Dynamic connector.73</title>
				<path d="M0 322.18 L3.61 322.18" class="st10"/>
			</g>
			<g id="shape473-239" transform="translate(134.646,-234.511)">
				<title>Dynamic connector.74</title>
				<path d="M0 322.18 L3.61 322.18" class="st10"/>
			</g>
			<g id="shape474-244" transform="translate(162.992,-234.511)">
				<title>Dynamic connector.75</title>
				<path d="M0 322.18 L3.61 322.18" class="st10"/>
			</g>
			<g id="shape475-249" transform="translate(63.7795,-234.511)">
				<title>Dynamic connector.76</title>
				<path d="M7.09 329.27 L7.09 332.88" class="st10"/>
			</g>
			<g id="shape476-254" transform="translate(63.7795,-206.165)">
				<title>Dynamic connector.77</title>
				<path d="M7.09 329.27 L7.09 332.88" class="st10"/>
			</g>
			<g id="shape477-259" transform="translate(63.7795,-177.818)">
				<title>Dynamic connector.78</title>
				<path d="M7.09 329.27 L7.09 332.88" class="st10"/>
			</g>
			<g id="shape478-264" transform="translate(63.7795,-149.472)">
				<title>Dynamic connector.79</title>
				<path d="M7.09 329.27 L7.09 332.88" class="st10"/>
			</g>
			<g id="shape479-269" transform="translate(77.9528,-206.165)">
				<title>Dynamic connector.80</title>
				<path d="M0 322.18 L3.61 322.18" class="st10"/>
			</g>
			<g id="shape480-274" transform="translate(106.299,-206.165)">
				<title>Dynamic connector.81</title>
				<path d="M0 322.18 L3.61 322.18" class="st10"/>
			</g>
			<g id="shape481-279" transform="translate(77.9528,-191.991)">
				<title>Dynamic connector.286</title>
				<path d="M0 336.35 L3.61 336.35" class="st10"/>
			</g>
			<g id="shape482-284" transform="translate(106.299,-177.818)">
				<title>Dynamic connector.287</title>
				<path d="M0 322.18 L3.61 322.18" class="st10"/>
			</g>
			<g id="shape483-289" transform="translate(77.9528,-121.125)">
				<title>Dynamic connector.92</title>
				<path d="M0 322.18 L3.61 322.18" class="st10"/>
			</g>
			<g id="shape484-294" transform="translate(104.166,-123.144)">
				<title>Dynamic connector.93</title>
				<path d="M0 329.27 L11.06 340.58" class="st10"/>
			</g>
			<g id="shape485-299" transform="translate(92.126,-234.511)">
				<title>Dynamic connector.96</title>
				<path d="M7.09 329.27 L7.09 332.88" class="st10"/>
			</g>
			<g id="shape486-304" transform="translate(92.126,-206.165)">
				<title>Dynamic connector.97</title>
				<path d="M7.09 329.27 L7.09 332.88" class="st10"/>
			</g>
			<g id="shape487-309" transform="translate(120.472,-234.511)">
				<title>Dynamic connector.302</title>
				<path d="M7.09 329.27 L7.09 332.88" class="st10"/>
			</g>
			<g id="shape488-314" transform="translate(120.472,-206.165)">
				<title>Dynamic connector.303</title>
				<path d="M7.09 329.27 L7.09 332.88" class="st10"/>
			</g>
			<g id="shape489-319" transform="translate(177.165,-234.511)">
				<title>Dynamic connector.109</title>
				<path d="M7.09 329.27 L7.09 332.88" class="st10"/>
			</g>
			<g id="shape490-324" transform="translate(189.206,-208.183)">
				<title>Dynamic connector.110</title>
				<path d="M0 329.27 L11.06 340.58" class="st10"/>
			</g>
			<g id="shape491-329" transform="translate(120.472,-113.386)">
				<title>Sheet.491</title>
				<path d="M0 329.27 L191.34 329.27" class="st4"/>
			</g>
			<g id="shape492-332" transform="translate(527.692,73.496) rotate(90)">
				<title>Sheet.492</title>
				<path d="M0 329.27 L50.26 329.27" class="st4"/>
			</g>
			<g id="shape493-335" transform="translate(527.692,137.928) rotate(90)">
				<title>Sheet.493</title>
				<path d="M0 329.27 L191.34 329.27" class="st11"/>
			</g>
			<g id="shape494-338" transform="translate(205.512,-233.858)">
				<title>Sheet.494</title>
				<ellipse cx="7.08661" cy="322.18" rx="7.08661" ry="7.08661" class="st8"/>
			</g>
			<g id="shape495-341" transform="translate(233.858,-233.858)">
				<title>Sheet.495</title>
				<ellipse cx="7.08661" cy="322.18" rx="7.08661" ry="7.08661" class="st8"/>
			</g>
			<g id="shape496-344" transform="translate(262.205,-233.858)">
				<title>Sheet.496</title>
				<ellipse cx="7.08661" cy="322.18" rx="7.08661" ry="7.08661" class="st8"/>
			</g>
			<g id="shape497-347" transform="translate(290.551,-233.858)">
				<title>Sheet.497</title>
				<ellipse cx="7.08661" cy="322.18" rx="7.08661" ry="7.08661" class="st8"/>
			</g>
			<g id="shape498-350" transform="translate(205.512,-205.512)">
				<title>Sheet.498</title>
				<ellipse cx="7.08661" cy="322.18" rx="7.08661" ry="7.08661" class="st8"/>
			</g>
			<g id="shape499-353" transform="translate(233.858,-205.512)">
				<title>Sheet.499</title>
				<ellipse cx="7.08661" cy="322.18" rx="7.08661" ry="7.08661" class="st7"/>
			</g>
			<g id="shape500-356" transform="translate(262.205,-205.512)">
				<title>Sheet.500</title>
				<ellipse cx="7.08661" cy="322.18" rx="7.08661" ry="7.08661" class="st8"/>
			</g>
			<g id="shape501-359" transform="translate(290.551,-205.512)">
				<title>Sheet.501</title>
				<ellipse cx="7.08661" cy="322.18" rx="7.08661" ry="7.08661" class="st8"/>
			</g>
			<g id="shape502-362" transform="translate(233.858,-177.165)">
				<title>Sheet.502</title>
				<ellipse cx="7.08661" cy="322.18" rx="7.08661" ry="7.08661" class="st7"/>
			</g>
			<g id="shape503-365" transform="translate(262.205,-177.165)">
				<title>Sheet.503</title>
				<ellipse cx="7.08661" cy="322.18" rx="7.08661" ry="7.08661" class="st8"/>
			</g>
			<g id="shape504-368" transform="translate(290.551,-177.165)">
				<title>Sheet.504</title>
				<ellipse cx="7.08661" cy="322.18" rx="7.08661" ry="7.08661" class="st8"/>
			</g>
			<g id="shape505-371" transform="translate(233.858,-148.819)">
				<title>Sheet.505</title>
				<ellipse cx="7.08661" cy="322.18" rx="7.08661" ry="7.08661" class="st7"/>
			</g>
			<g id="shape506-374" transform="translate(262.205,-148.819)">
				<title>Sheet.506</title>
				<ellipse cx="7.08661" cy="322.18" rx="7.08661" ry="7.08661" class="st7"/>
			</g>
			<g id="shape507-377" transform="translate(290.551,-148.819)">
				<title>Sheet.507</title>
				<ellipse cx="7.08661" cy="322.18" rx="7.08661" ry="7.08661" class="st8"/>
			</g>
			<g id="shape508-380" transform="translate(290.551,-120.472)">
				<title>Sheet.508</title>
				<ellipse cx="7.08661" cy="322.18" rx="7.08661" ry="7.08661" class="st8"/>
			</g>
			<g id="shape509-383" transform="translate(205.512,-177.165)">
				<title>Sheet.509</title>
				<ellipse cx="7.08661" cy="322.18" rx="7.08661" ry="7.08661" class="st5"/>
			</g>
			<g id="shape510-386" transform="translate(205.512,-148.819)">
				<title>Sheet.510</title>
				<ellipse cx="7.08661" cy="322.18" rx="7.08661" ry="7.08661" class="st7"/>
			</g>
			<g id="shape511-389" transform="translate(205.512,-120.472)">
				<title>Sheet.511</title>
				<ellipse cx="7.08661" cy="322.18" rx="7.08661" ry="7.08661" class="st8"/>
			</g>
			<g id="shape512-392" transform="translate(233.858,-120.472)">
				<title>Sheet.512</title>
				<ellipse cx="7.08661" cy="322.18" rx="7.08661" ry="7.08661" class="st7"/>
			</g>
			<g id="shape513-395" transform="translate(262.205,-120.472)">
				<title>Sheet.513</title>
				<ellipse cx="7.08661" cy="322.18" rx="7.08661" ry="7.08661" class="st8"/>
			</g>
			<g id="shape514-398" transform="translate(219.685,-233.858)">
				<title>Dynamic connector.130</title>
				<path d="M0 322.18 L3.61 322.18" class="st12"/>
			</g>
			<g id="shape515-403" transform="translate(248.031,-233.858)">
				<title>Dynamic connector.131</title>
				<path d="M0 322.18 L3.61 322.18" class="st12"/>
			</g>
			<g id="shape516-408" transform="translate(276.378,-233.858)">
				<title>Dynamic connector.132</title>
				<path d="M0 322.18 L3.61 322.18" class="st12"/>
			</g>
			<g id="shape517-413" transform="translate(205.512,-233.858)">
				<title>Dynamic connector.134</title>
				<path d="M7.09 329.27 L7.09 332.88" class="st12"/>
			</g>
			<g id="shape518-418" transform="translate(205.512,-205.512)">
				<title>Dynamic connector.135</title>
				<path d="M7.09 329.27 L7.09 332.88" class="st12"/>
			</g>
			<g id="shape519-423" transform="translate(276.378,-205.512)">
				<title>Dynamic connector.140</title>
				<path d="M0 322.18 L3.61 322.18" class="st12"/>
			</g>
			<g id="shape520-428" transform="translate(276.378,-177.165)">
				<title>Dynamic connector.144</title>
				<path d="M0 322.18 L3.61 322.18" class="st12"/>
			</g>
			<g id="shape521-433" transform="translate(276.378,-134.646)">
				<title>Dynamic connector.152</title>
				<path d="M0 336.35 L3.61 336.35" class="st12"/>
			</g>
			<g id="shape522-438" transform="translate(262.205,-233.858)">
				<title>Dynamic connector.158</title>
				<path d="M7.09 329.27 L7.09 332.88" class="st12"/>
			</g>
			<g id="shape523-443" transform="translate(262.205,-205.512)">
				<title>Dynamic connector.159</title>
				<path d="M7.09 329.27 L7.09 332.88" class="st12"/>
			</g>
			<g id="shape524-448" transform="translate(290.551,-233.858)">
				<title>Dynamic connector.162</title>
				<path d="M7.09 329.27 L7.09 332.88" class="st12"/>
			</g>
			<g id="shape525-453" transform="translate(290.551,-205.512)">
				<title>Dynamic connector.163</title>
				<path d="M7.09 329.27 L7.09 332.88" class="st12"/>
			</g>
			<g id="shape526-458" transform="translate(290.551,-177.165)">
				<title>Dynamic connector.164</title>
				<path d="M7.09 329.27 L7.09 332.88" class="st12"/>
			</g>
			<g id="shape527-463" transform="translate(290.551,-148.819)">
				<title>Dynamic connector.165</title>
				<path d="M7.09 329.27 L7.09 332.88" class="st12"/>
			</g>
			<g id="shape528-468" transform="translate(63.7795,-92.126)">
				<title>Sheet.528</title>
				<ellipse cx="7.08661" cy="322.18" rx="7.08661" ry="7.08661" class="st8"/>
			</g>
			<g id="shape529-471" transform="translate(92.126,-92.126)">
				<title>Sheet.529</title>
				<ellipse cx="7.08661" cy="322.18" rx="7.08661" ry="7.08661" class="st8"/>
			</g>
			<g id="shape530-474" transform="translate(120.472,-92.126)">
				<title>Sheet.530</title>
				<ellipse cx="7.08661" cy="322.18" rx="7.08661" ry="7.08661" class="st5"/>
			</g>
			<g id="shape531-477" transform="translate(148.819,-92.126)">
				<title>Sheet.531</title>
				<ellipse cx="7.08661" cy="322.18" rx="7.08661" ry="7.08661" class="st7"/>
			</g>
			<g id="shape532-480" transform="translate(177.165,-92.126)">
				<title>Sheet.532</title>
				<ellipse cx="7.08661" cy="322.18" rx="7.08661" ry="7.08661" class="st8"/>
			</g>
			<g id="shape533-483" transform="translate(63.7795,-63.7795)">
				<title>Sheet.533</title>
				<ellipse cx="7.08661" cy="322.18" rx="7.08661" ry="7.08661" class="st8"/>
			</g>
			<g id="shape534-486" transform="translate(92.126,-63.7795)">
				<title>Sheet.534</title>
				<ellipse cx="7.08661" cy="322.18" rx="7.08661" ry="7.08661" class="st7"/>
			</g>
			<g id="shape535-489" transform="translate(120.472,-63.7795)">
				<title>Sheet.535</title>
				<ellipse cx="7.08661" cy="322.18" rx="7.08661" ry="7.08661" class="st7"/>
			</g>
			<g id="shape536-492" transform="translate(148.819,-63.7795)">
				<title>Sheet.536</title>
				<ellipse cx="7.08661" cy="322.18" rx="7.08661" ry="7.08661" class="st7"/>
			</g>
			<g id="shape537-495" transform="translate(177.165,-63.7795)">
				<title>Sheet.537</title>
				<ellipse cx="7.08661" cy="322.18" rx="7.08661" ry="7.08661" class="st7"/>
			</g>
			<g id="shape538-498" transform="translate(92.126,-35.4331)">
				<title>Sheet.538</title>
				<ellipse cx="7.08661" cy="322.18" rx="7.08661" ry="7.08661" class="st8"/>
			</g>
			<g id="shape539-501" transform="translate(120.472,-35.4331)">
				<title>Sheet.539</title>
				<ellipse cx="7.08661" cy="322.18" rx="7.08661" ry="7.08661" class="st8"/>
			</g>
			<g id="shape540-504" transform="translate(148.819,-35.4331)">
				<title>Sheet.540</title>
				<ellipse cx="7.08661" cy="322.18" rx="7.08661" ry="7.08661" class="st7"/>
			</g>
			<g id="shape541-507" transform="translate(177.165,-35.4331)">
				<title>Sheet.541</title>
				<ellipse cx="7.08661" cy="322.18" rx="7.08661" ry="7.08661" class="st8"/>
			</g>
			<g id="shape542-510" transform="translate(92.126,-7.08661)">
				<title>Sheet.542</title>
				<ellipse cx="7.08661" cy="322.18" rx="7.08661" ry="7.08661" class="st8"/>
			</g>
			<g id="shape543-513" transform="translate(120.472,-7.08661)">
				<title>Sheet.543</title>
				<ellipse cx="7.08661" cy="322.18" rx="7.08661" ry="7.08661" class="st8"/>
			</g>
			<g id="shape544-516" transform="translate(148.819,-7.08661)">
				<title>Sheet.544</title>
				<ellipse cx="7.08661" cy="322.18" rx="7.08661" ry="7.08661" class="st8"/>
			</g>
			<g id="shape545-519" transform="translate(177.165,-7.08661)">
				<title>Sheet.545</title>
				<ellipse cx="7.08661" cy="322.18" rx="7.08661" ry="7.08661" class="st8"/>
			</g>
			<g id="shape546-522" transform="translate(63.7795,-35.4331)">
				<title>Sheet.546</title>
				<ellipse cx="7.08661" cy="322.18" rx="7.08661" ry="7.08661" class="st8"/>
			</g>
			<g id="shape547-525" transform="translate(63.7795,-7.08661)">
				<title>Sheet.547</title>
				<ellipse cx="7.08661" cy="322.18" rx="7.08661" ry="7.08661" class="st8"/>
			</g>
			<g id="shape548-528" transform="translate(77.9528,-92.126)">
				<title>Dynamic connector.195</title>
				<path d="M0 322.18 L3.61 322.18" class="st12"/>
			</g>
			<g id="shape549-533" transform="translate(106.299,-92.126)">
				<title>Dynamic connector.196</title>
				<path d="M0 322.18 L3.61 322.18" class="st12"/>
			</g>
			<g id="shape550-538" transform="translate(63.7795,-92.126)">
				<title>Dynamic connector.199</title>
				<path d="M7.09 329.27 L7.09 332.88" class="st12"/>
			</g>
			<g id="shape551-543" transform="translate(63.7795,-63.7795)">
				<title>Dynamic connector.200</title>
				<path d="M7.09 329.27 L7.09 332.88" class="st12"/>
			</g>
			<g id="shape552-548" transform="translate(63.7795,-35.4331)">
				<title>Dynamic connector.201</title>
				<path d="M7.09 329.27 L7.09 332.88" class="st12"/>
			</g>
			<g id="shape553-553" transform="translate(77.9528,-49.6063)">
				<title>Dynamic connector.207</title>
				<path d="M0 336.35 L3.61 336.35" class="st12"/>
			</g>
			<g id="shape554-558" transform="translate(106.299,-35.4331)">
				<title>Dynamic connector.208</title>
				<path d="M0 322.18 L3.61 322.18" class="st12"/>
			</g>
			<g id="shape555-563" transform="translate(77.9528,-21.2598)">
				<title>Dynamic connector.211</title>
				<path d="M0 336.35 L3.61 336.35" class="st12"/>
			</g>
			<g id="shape556-568" transform="translate(106.299,-7.08661)">
				<title>Dynamic connector.212</title>
				<path d="M0 322.18 L3.61 322.18" class="st12"/>
			</g>
			<g id="shape557-573" transform="translate(134.646,-7.08661)">
				<title>Dynamic connector.213</title>
				<path d="M0 322.18 L3.61 322.18" class="st12"/>
			</g>
			<g id="shape558-578" transform="translate(162.992,-7.08661)">
				<title>Dynamic connector.214</title>
				<path d="M0 322.18 L3.61 322.18" class="st12"/>
			</g>
			<g id="shape559-583" transform="translate(92.126,-35.4331)">
				<title>Dynamic connector.221</title>
				<path d="M7.09 329.27 L7.09 332.88" class="st12"/>
			</g>
			<g id="shape560-588" transform="translate(120.472,-35.4331)">
				<title>Dynamic connector.225</title>
				<path d="M7.09 329.27 L7.09 332.88" class="st12"/>
			</g>
			<g id="shape561-593" transform="translate(177.165,-35.4331)">
				<title>Dynamic connector.234</title>
				<path d="M7.09 329.27 L7.09 332.88" class="st12"/>
			</g>
			<g id="shape562-598" transform="translate(205.512,-92.126)">
				<title>Sheet.562</title>
				<ellipse cx="7.08661" cy="322.18" rx="7.08661" ry="7.08661" class="st8"/>
			</g>
			<g id="shape563-601" transform="translate(233.858,-92.126)">
				<title>Sheet.563</title>
				<ellipse cx="7.08661" cy="322.18" rx="7.08661" ry="7.08661" class="st7"/>
			</g>
			<g id="shape564-604" transform="translate(262.205,-92.126)">
				<title>Sheet.564</title>
				<ellipse cx="7.08661" cy="322.18" rx="7.08661" ry="7.08661" class="st8"/>
			</g>
			<g id="shape565-607" transform="translate(290.551,-92.126)">
				<title>Sheet.565</title>
				<ellipse cx="7.08661" cy="322.18" rx="7.08661" ry="7.08661" class="st8"/>
			</g>
			<g id="shape566-610" transform="translate(205.512,-63.7795)">
				<title>Sheet.566</title>
				<ellipse cx="7.08661" cy="322.18" rx="7.08661" ry="7.08661" class="st7"/>
			</g>
			<g id="shape567-613" transform="translate(233.858,-63.7795)">
				<title>Sheet.567</title>
				<ellipse cx="7.08661" cy="322.18" rx="7.08661" ry="7.08661" class="st7"/>
			</g>
			<g id="shape568-616" transform="translate(262.205,-63.7795)">
				<title>Sheet.568</title>
				<ellipse cx="7.08661" cy="322.18" rx="7.08661" ry="7.08661" class="st7"/>
			</g>
			<g id="shape569-619" transform="translate(290.551,-63.7795)">
				<title>Sheet.569</title>
				<ellipse cx="7.08661" cy="322.18" rx="7.08661" ry="7.08661" class="st8"/>
			</g>
			<g id="shape570-622" transform="translate(233.858,-35.4331)">
				<title>Sheet.570</title>
				<ellipse cx="7.08661" cy="322.18" rx="7.08661" ry="7.08661" class="st7"/>
			</g>
			<g id="shape571-625" transform="translate(262.205,-35.4331)">
				<title>Sheet.571</title>
				<ellipse cx="7.08661" cy="322.18" rx="7.08661" ry="7.08661" class="st8"/>
			</g>
			<g id="shape572-628" transform="translate(290.551,-35.4331)">
				<title>Sheet.572</title>
				<ellipse cx="7.08661" cy="322.18" rx="7.08661" ry="7.08661" class="st8"/>
			</g>
			<g id="shape573-631" transform="translate(233.858,-7.08661)">
				<title>Sheet.573</title>
				<ellipse cx="7.08661" cy="322.18" rx="7.08661" ry="7.08661" class="st8"/>
			</g>
			<g id="shape574-634" transform="translate(262.205,-7.08661)">
				<title>Sheet.574</title>
				<ellipse cx="7.08661" cy="322.18" rx="7.08661" ry="7.08661" class="st8"/>
			</g>
			<g id="shape575-637" transform="translate(290.551,-7.08661)">
				<title>Sheet.575</title>
				<ellipse cx="7.08661" cy="322.18" rx="7.08661" ry="7.08661" class="st8"/>
			</g>
			<g id="shape576-640" transform="translate(205.512,-35.4331)">
				<title>Sheet.576</title>
				<ellipse cx="7.08661" cy="322.18" rx="7.08661" ry="7.08661" class="st8"/>
			</g>
			<g id="shape577-643" transform="translate(205.512,-7.08661)">
				<title>Sheet.577</title>
				<ellipse cx="7.08661" cy="322.18" rx="7.08661" ry="7.08661" class="st8"/>
			</g>
			<g id="shape578-646" transform="translate(276.378,-92.126)">
				<title>Dynamic connector.262</title>
				<path d="M0 322.18 L3.61 322.18" class="st12"/>
			</g>
			<g id="shape579-651" transform="translate(205.512,-35.4331)">
				<title>Dynamic connector.266</title>
				<path d="M7.09 329.27 L7.09 332.88" class="st12"/>
			</g>
			<g id="shape580-656" transform="translate(276.378,-35.4331)">
				<title>Dynamic connector.274</title>
				<path d="M0 322.18 L3.61 322.18" class="st12"/>
			</g>
			<g id="shape581-661" transform="translate(219.685,-21.2598)">
				<title>Dynamic connector.276</title>
				<path d="M0 336.35 L3.61 336.35" class="st12"/>
			</g>
			<g id="shape582-666" transform="translate(248.031,-7.08661)">
				<title>Dynamic connector.277</title>
				<path d="M0 322.18 L3.61 322.18" class="st12"/>
			</g>
			<g id="shape583-671" transform="translate(276.378,-7.08661)">
				<title>Dynamic connector.278</title>
				<path d="M0 322.18 L3.61 322.18" class="st12"/>
			</g>
			<g id="shape584-676" transform="translate(262.205,-35.4331)">
				<title>Dynamic connector.290</title>
				<path d="M7.09 329.27 L7.09 332.88" class="st12"/>
			</g>
			<g id="shape585-681" transform="translate(290.551,-92.126)">
				<title>Dynamic connector.292</title>
				<path d="M7.09 329.27 L7.09 332.88" class="st12"/>
			</g>
			<g id="shape586-686" transform="translate(290.551,-63.7795)">
				<title>Dynamic connector.293</title>
				<path d="M7.09 329.27 L7.09 332.88" class="st12"/>
			</g>
			<g id="shape587-691" transform="translate(290.551,-35.4331)">
				<title>Dynamic connector.294</title>
				<path d="M7.09 329.27 L7.09 332.88" class="st12"/>
			</g>
			<g id="shape588-696" transform="translate(4.26259E-012,-255.771)">
				<title>Sheet.588</title>
				<desc>S</desc>
				<rect x="0" y="300.92" width="28.3465" height="28.3465" class="st13"/>
				<text x="9.12" y="321.69" class="st14">S</text>			</g>
			<g id="shape589-700" transform="translate(28.3465,-284.117)">
				<title>Sheet.589</title>
				<desc>S</desc>
				<rect x="0" y="300.92" width="28.3465" height="28.3465" class="st13"/>
				<text x="9.12" y="321.69" class="st14">S</text>			</g>
			<g id="shape590-704" transform="translate(28.3465,-255.771)">
				<title>Sheet.590</title>
				<desc>L</desc>
				<rect x="0" y="300.92" width="28.3465" height="28.3465" class="st13"/>
				<text x="9.55" y="321.69" class="st14">L</text>			</g>
		</g>
	</g>
</svg>
