<?xml version="1.0" encoding="UTF-8" standalone="no"?>
<!DOCTYPE svg PUBLIC "-//W3C//DTD SVG 1.1//EN" "http://www.w3.org/Graphics/SVG/1.1/DTD/svg11.dtd">
<!-- Generated by Microsoft Visio, SVG Export DocumentText.svg Page-1 -->
<svg xmlns="http://www.w3.org/2000/svg" xmlns:xlink="http://www.w3.org/1999/xlink" xmlns:ev="http://www.w3.org/2001/xml-events"
		width="5.132in" height="1.98066in" viewBox="0 0 369.504 142.607" xml:space="preserve" color-interpolation-filters="sRGB"
		class="st9">
	<style type="text/css">
	<![CDATA[
		.st1 {fill:#ffffff;stroke:#000000;stroke-linecap:round;stroke-linejoin:round;stroke-width:1}
		.st2 {fill:#000000;font-family:Calibri;font-size:1.99999em}
		.st3 {stroke:#000000;stroke-linecap:round;stroke-linejoin:round;stroke-width:1}
		.st4 {fill:none;stroke:none;stroke-linecap:round;stroke-linejoin:round;stroke-width:0.75}
		.st5 {fill:#000000;font-family:Calibri;font-size:1.16666em}
		.st6 {marker-end:url(#mrkr13-54);stroke:#000000;stroke-linecap:round;stroke-linejoin:round;stroke-width:1}
		.st7 {fill:#000000;fill-opacity:1;stroke:#000000;stroke-opacity:1;stroke-width:0.28409090909091}
		.st8 {fill:none;stroke:none;stroke-linecap:round;stroke-linejoin:round;stroke-width:1}
		.st9 {fill:none;fill-rule:evenodd;font-size:12px;overflow:visible;stroke-linecap:square;stroke-miterlimit:3}
	]]>
	</style>

	<defs id="Markers">
		<g id="lend13">
			<path d="M 3 1 L 0 0 L 3 -1 L 3 1 " style="stroke:none"/>
		</g>
		<marker id="mrkr13-54" class="st7" refX="-10.56" orient="auto" markerUnits="strokeWidth" overflow="visible">
			<use xlink:href="#lend13" transform="scale(-3.52,-3.52) "/>
		</marker>
	</defs>
	<g>
		<title>Page-1</title>
		<g id="group139-1" transform="translate(0.5,-0.5)">
			<title>Sheet.139</title>
			<g id="shape72-2" transform="translate(5.9952E-015,-56.6929)">
				<title>Sheet.72</title>
				<desc>П</desc>
				<rect x="0" y="114.261" width="28.3465" height="28.3465" class="st1"/>
				<text x="6.71" y="135.63" class="st2">П</text>			</g>
			<g id="shape73-5" transform="translate(28.3465,-56.6929)">
				<title>Sheet.73</title>
				<desc>р</desc>
				<rect x="0" y="114.261" width="28.3465" height="28.3465" class="st1"/>
				<text x="7.87" y="135.63" class="st2">р</text>			</g>
			<g id="shape74-8" transform="translate(56.6929,-56.6929)">
				<title>Sheet.74</title>
				<desc>о</desc>
				<rect x="0" y="114.261" width="28.3465" height="28.3465" class="st1"/>
				<text x="7.85" y="135.63" class="st2">о</text>			</g>
			<g id="shape75-11" transform="translate(85.0394,-56.6929)">
				<title>Sheet.75</title>
				<desc>с</desc>
				<rect x="0" y="114.261" width="28.3465" height="28.3465" class="st1"/>
				<text x="9.1" y="135.63" class="st2">с</text>			</g>
			<g id="shape76-14" transform="translate(113.386,-56.6929)">
				<title>Sheet.76</title>
				<desc>т</desc>
				<rect x="0" y="114.261" width="28.3465" height="28.3465" class="st1"/>
				<text x="9.53" y="135.63" class="st2">т</text>			</g>
			<g id="shape77-17" transform="translate(141.732,-56.6929)">
				<title>Sheet.77</title>
				<desc>о</desc>
				<rect x="0" y="114.261" width="28.3465" height="28.3465" class="st1"/>
				<text x="7.85" y="135.63" class="st2">о</text>			</g>
			<g id="shape78-20" transform="translate(170.079,-56.6929)">
				<title>Sheet.78</title>
				<desc>й</desc>
				<rect x="0" y="114.261" width="28.3465" height="28.3465" class="st1"/>
				<text x="7.69" y="135.63" class="st2">й</text>			</g>
			<g id="shape79-23" transform="translate(198.425,-56.6929)">
				<title>Sheet.79</title>
				<rect x="0" y="114.261" width="28.3465" height="28.3465" class="st1"/>
			</g>
			<g id="shape80-25" transform="translate(226.772,-56.6929)">
				<title>Sheet.80</title>
				<desc>т</desc>
				<rect x="0" y="114.261" width="28.3465" height="28.3465" class="st1"/>
				<text x="9.53" y="135.63" class="st2">т</text>			</g>
			<g id="shape81-28" transform="translate(255.118,-56.6929)">
				<title>Sheet.81</title>
				<desc>е</desc>
				<rect x="0" y="114.261" width="28.3465" height="28.3465" class="st1"/>
				<text x="8.2" y="135.63" class="st2">е</text>			</g>
			<g id="shape82-31" transform="translate(283.465,-56.6929)">
				<title>Sheet.82</title>
				<desc>к</desc>
				<rect x="0" y="114.261" width="28.3465" height="28.3465" class="st1"/>
				<text x="8.61" y="135.63" class="st2">к</text>			</g>
			<g id="shape83-34" transform="translate(311.811,-56.6929)">
				<title>Sheet.83</title>
				<desc>с</desc>
				<rect x="0" y="114.261" width="28.3465" height="28.3465" class="st1"/>
				<text x="9.1" y="135.63" class="st2">с</text>			</g>
			<g id="shape84-37" transform="translate(199.3,43.3947) rotate(90)">
				<title>Sheet.84</title>
				<path d="M0 142.61 L56.69 142.61" class="st3"/>
			</g>
			<g id="shape85-40" transform="translate(312.686,43.3947) rotate(90)">
				<title>Sheet.85</title>
				<path d="M0 142.61 L56.69 142.61" class="st3"/>
			</g>
			<g id="shape86-43" transform="translate(397.725,43.3947) rotate(90)">
				<title>Sheet.86</title>
				<path d="M0 142.61 L56.69 142.61" class="st3"/>
			</g>
			<g id="shape87-46" transform="translate(113.386,-113.386)">
				<title>Sheet.87</title>
				<desc>Смещение</desc>
				<rect x="0" y="114.261" width="85.0394" height="28.3465" class="st4"/>
				<text x="10.84" y="132.63" class="st5">Смещение</text>			</g>
			<g id="shape88-49" transform="translate(312.686,24.9695) rotate(90)">
				<title>Sheet.88</title>
				<path d="M0 142.61 L0.78 142.61" class="st6"/>
			</g>
			<g id="shape89-55" transform="translate(163.459,148.576) rotate(159.444)">
				<title>Sheet.89</title>
				<path d="M0 142.61 L49.99 142.61" class="st6"/>
			</g>
			<g id="shape90-60" transform="translate(248.498,-118.479) rotate(20.556)">
				<title>Sheet.90</title>
				<path d="M0 142.61 L49.99 142.61" class="st6"/>
			</g>
			<g id="shape91-65" transform="translate(170.079,-21.2598)">
				<title>Sheet.91</title>
				<path d="M42.52 142.61 A14.1732 7.08661 -180 0 0 28.35 135.52 L14.17 135.52 A14.1732 7.08661 -180 0 1 0 128.43"
						class="st3"/>
			</g>
			<g id="shape92-68" transform="translate(212.595,-21.3369)">
				<title>Sheet.92</title>
				<path d="M42.52 128.59 A14.1732 7.08661 0 0 1 28.35 135.67 L14.18 135.67 A14.1766 6.93259 -180 0 0 0 142.61"
						class="st3"/>
			</g>
			<g id="shape93-71" transform="translate(170.079,2.84217E-014)">
				<title>Sheet.93</title>
				<desc>Диапазон</desc>
				<rect x="0" y="114.261" width="85.0394" height="28.3465" class="st8"/>
				<text x="13.48" y="132.63" class="st5">Диапазон</text>			</g>
			<g id="shape94-74" transform="translate(340.157,-56.6929)">
				<title>Sheet.94</title>
				<desc>т</desc>
				<rect x="0" y="114.261" width="28.3465" height="28.3465" class="st1"/>
				<text x="9.53" y="135.63" class="st2">т</text>			</g>
		</g>
	</g>
</svg>
