<?xml version="1.0" encoding="UTF-8" standalone="no"?>
<!DOCTYPE svg PUBLIC "-//W3C//DTD SVG 1.1//EN" "http://www.w3.org/Graphics/SVG/1.1/DTD/svg11.dtd">
<!-- Generated by Microsoft Visio, SVG Export DocumentPosition.svg Page-1 -->
<svg xmlns="http://www.w3.org/2000/svg" xmlns:xlink="http://www.w3.org/1999/xlink" xmlns:ev="http://www.w3.org/2001/xml-events"
		width="2.91745in" height="2.57294in" viewBox="0 0 210.056 185.252" xml:space="preserve" color-interpolation-filters="sRGB"
		class="st7">
	<style type="text/css">
	<![CDATA[
		.st1 {fill:#e8eef7;stroke:#000000;stroke-linecap:round;stroke-linejoin:round;stroke-width:1}
		.st2 {fill:#ffffff;stroke:#000000;stroke-linecap:round;stroke-linejoin:round;stroke-width:1}
		.st3 {fill:#000000;font-family:Calibri;font-size:1.99999em}
		.st4 {stroke:#000000;stroke-linecap:round;stroke-linejoin:round;stroke-width:1}
		.st5 {marker-end:url(#mrkr13-77);stroke:#000000;stroke-linecap:round;stroke-linejoin:round;stroke-width:1}
		.st6 {fill:#000000;fill-opacity:1;stroke:#000000;stroke-opacity:1;stroke-width:0.28409090909091}
		.st7 {fill:none;fill-rule:evenodd;font-size:12px;overflow:visible;stroke-linecap:square;stroke-miterlimit:3}
	]]>
	</style>

	<defs id="Markers">
		<g id="lend13">
			<path d="M 3 1 L 0 0 L 3 -1 L 3 1 " style="stroke:none"/>
		</g>
		<marker id="mrkr13-77" class="st6" refX="-10.56" orient="auto" markerUnits="strokeWidth" overflow="visible">
			<use xlink:href="#lend13" transform="scale(-3.52,-3.52) "/>
		</marker>
	</defs>
	<g>
		<title>Page-1</title>
		<g id="group141-1" transform="translate(11.1312,-0.500001)">
			<title>Sheet.141</title>
			<g id="shape70-2" transform="translate(56.6929,292.551) scale(1,-1)">
				<title>Sheet.70</title>
				<path d="M0 142.73 L0 185.25 L113.39 185.25 L0 142.73 Z" class="st1"/>
			</g>
			<g id="shape71-4" transform="translate(28.3465,-106.299)">
				<title>Sheet.71</title>
				<path d="M0 142.73 L0 185.25 L85.04 185.25 L0 142.73 Z" class="st1"/>
			</g>
			<g id="shape95-6" transform="translate(5.9952E-015,-77.9528)">
				<title>Sheet.95</title>
				<desc>К</desc>
				<rect x="0" y="156.906" width="28.3465" height="28.3465" class="st2"/>
				<text x="7.66" y="178.28" class="st3">К</text>			</g>
			<g id="shape96-9" transform="translate(28.3465,-77.9528)">
				<title>Sheet.96</title>
				<desc>о</desc>
				<rect x="0" y="156.906" width="28.3465" height="28.3465" class="st2"/>
				<text x="7.85" y="178.28" class="st3">о</text>			</g>
			<g id="shape97-12" transform="translate(56.6929,-77.9528)">
				<title>Sheet.97</title>
				<desc>л</desc>
				<rect x="0" y="156.906" width="28.3465" height="28.3465" class="st2"/>
				<text x="8.05" y="178.28" class="st3">л</text>			</g>
			<g id="shape98-15" transform="translate(85.0394,-77.9528)">
				<title>Sheet.98</title>
				<desc>о</desc>
				<rect x="0" y="156.906" width="28.3465" height="28.3465" class="st2"/>
				<text x="7.85" y="178.28" class="st3">о</text>			</g>
			<g id="shape99-18" transform="translate(113.386,-77.9528)">
				<title>Sheet.99</title>
				<desc>р</desc>
				<rect x="0" y="156.906" width="28.3465" height="28.3465" class="st2"/>
				<text x="7.87" y="178.28" class="st3">р</text>			</g>
			<g id="shape100-21" transform="translate(141.732,-77.9528)">
				<title>Sheet.100</title>
				<desc>и</desc>
				<rect x="0" y="156.906" width="28.3465" height="28.3465" class="st2"/>
				<text x="7.69" y="178.28" class="st3">и</text>			</g>
			<g id="shape101-24" transform="translate(170.079,-77.9528)">
				<title>Sheet.101</title>
				<desc>т</desc>
				<rect x="0" y="156.906" width="28.3465" height="28.3465" class="st2"/>
				<text x="9.53" y="178.28" class="st3">т</text>			</g>
			<g id="shape102-27" transform="translate(5.9952E-015,-148.819)">
				<title>Sheet.102</title>
				<desc>К</desc>
				<rect x="0" y="156.906" width="28.3465" height="28.3465" class="st2"/>
				<text x="7.66" y="178.28" class="st3">К</text>			</g>
			<g id="shape103-30" transform="translate(28.3465,-148.819)">
				<title>Sheet.103</title>
				<desc>р</desc>
				<rect x="0" y="156.906" width="28.3465" height="28.3465" class="st2"/>
				<text x="7.87" y="178.28" class="st3">р</text>			</g>
			<g id="shape104-33" transform="translate(56.6929,-148.819)">
				<title>Sheet.104</title>
				<desc>и</desc>
				<rect x="0" y="156.906" width="28.3465" height="28.3465" class="st2"/>
				<text x="7.69" y="178.28" class="st3">и</text>			</g>
			<g id="shape105-36" transform="translate(85.0394,-148.819)">
				<title>Sheet.105</title>
				<desc>т</desc>
				<rect x="0" y="156.906" width="28.3465" height="28.3465" class="st2"/>
				<text x="9.53" y="178.28" class="st3">т</text>			</g>
			<g id="shape106-39" transform="translate(5.9952E-015,-7.08661)">
				<title>Sheet.106</title>
				<desc>К</desc>
				<rect x="0" y="156.906" width="28.3465" height="28.3465" class="st2"/>
				<text x="7.66" y="178.28" class="st3">К</text>			</g>
			<g id="shape107-42" transform="translate(28.3465,-7.08661)">
				<title>Sheet.107</title>
				<desc>о</desc>
				<rect x="0" y="156.906" width="28.3465" height="28.3465" class="st2"/>
				<text x="7.85" y="178.28" class="st3">о</text>			</g>
			<g id="shape108-45" transform="translate(56.6929,-7.08661)">
				<title>Sheet.108</title>
				<desc>т</desc>
				<rect x="0" y="156.906" width="28.3465" height="28.3465" class="st2"/>
				<text x="9.53" y="178.28" class="st3">т</text>			</g>
			<g id="shape109-48" transform="translate(298.638,71.8661) rotate(90)">
				<title>Sheet.109</title>
				<path d="M0 185.25 L42.52 185.25" class="st4"/>
			</g>
			<g id="shape110-51" transform="translate(326.984,71.8661) rotate(90)">
				<title>Sheet.110</title>
				<path d="M0 185.25 L42.52 185.25" class="st4"/>
			</g>
			<g id="shape111-54" transform="translate(213.598,1) rotate(90)">
				<title>Sheet.111</title>
				<path d="M0 185.25 L42.52 185.25" class="st4"/>
			</g>
			<g id="shape112-57" transform="translate(185.252,71.8661) rotate(90)">
				<title>Sheet.112</title>
				<path d="M0 185.25 L42.52 185.25" class="st4"/>
			</g>
			<g id="shape113-60" transform="translate(241.945,1) rotate(90)">
				<title>Sheet.113</title>
				<path d="M0 185.25 L42.52 185.25" class="st4"/>
			</g>
			<g id="shape114-63" transform="translate(185.252,1) rotate(90)">
				<title>Sheet.114</title>
				<path d="M0 185.25 L42.52 185.25" class="st4"/>
			</g>
			<g id="shape115-66" transform="translate(241.945,142.732) rotate(90)">
				<title>Sheet.115</title>
				<path d="M0 185.25 L42.52 185.25" class="st4"/>
			</g>
			<g id="shape116-69" transform="translate(185.252,142.732) rotate(90)">
				<title>Sheet.116</title>
				<path d="M0 185.25 L42.52 185.25" class="st4"/>
			</g>
			<g id="shape117-72" transform="translate(86.9283,-132.226) rotate(18.4349)">
				<title>Sheet.117</title>
				<path d="M0 185.25 L79.08 185.25" class="st5"/>
			</g>
			<g id="shape118-78" transform="translate(115.275,-132.226) rotate(18.4349)">
				<title>Sheet.118</title>
				<path d="M0 185.25 L79.08 185.25" class="st5"/>
			</g>
			<g id="shape119-83" transform="translate(196.233,280.08) rotate(153.435)">
				<title>Sheet.119</title>
				<path d="M0 185.25 L52.82 185.25" class="st5"/>
			</g>
			<g id="shape120-88" transform="translate(200.314,290.131) rotate(161.565)">
				<title>Sheet.120</title>
				<path d="M0 185.25 L79.08 185.25" class="st5"/>
			</g>
			<g id="shape121-93" transform="translate(185.252,43.5197) rotate(90)">
				<title>Sheet.121</title>
				<path d="M0 185.25 L17.79 185.25" class="st5"/>
			</g>
			<g id="shape122-98" transform="translate(185.252,114.386) rotate(90)">
				<title>Sheet.122</title>
				<path d="M0 185.25 L17.79 185.25" class="st5"/>
			</g>
		</g>
	</g>
</svg>
