<?xml version="1.0" encoding="UTF-8" standalone="no"?>
<!DOCTYPE svg PUBLIC "-//W3C//DTD SVG 1.1//EN" "http://www.w3.org/Graphics/SVG/1.1/DTD/svg11.dtd">
<!-- Generated by Microsoft Visio, SVG Export FocusHierarchy.svg Page-1 -->
<svg xmlns="http://www.w3.org/2000/svg" xmlns:xlink="http://www.w3.org/1999/xlink" xmlns:ev="http://www.w3.org/2001/xml-events"
		width="2.96664in" height="2.06508in" viewBox="0 0 213.598 148.686" xml:space="preserve" color-interpolation-filters="sRGB"
		class="st12">
	<style type="text/css">
	<![CDATA[
		.st1 {fill:none;stroke:#339966;stroke-linecap:round;stroke-linejoin:round;stroke-width:1}
		.st2 {fill:#c0c0c0;stroke:#000000;stroke-linecap:round;stroke-linejoin:round;stroke-width:1}
		.st3 {fill:#ffffff;stroke:#000000;stroke-linecap:round;stroke-linejoin:round;stroke-width:1}
		.st4 {fill:none;stroke:#3366ff;stroke-linecap:round;stroke-linejoin:round;stroke-width:1}
		.st5 {fill:#3366ff;fill-opacity:1;stroke:#3366ff;stroke-opacity:1;stroke-width:0.28409090909091}
		.st6 {marker-end:url(#mrkr5-25);stroke:#ff0000;stroke-linecap:round;stroke-linejoin:round;stroke-width:1}
		.st7 {fill:#ff0000;fill-opacity:1;stroke:#ff0000;stroke-opacity:1;stroke-width:0.28409090909091}
		.st8 {marker-end:url(#mrkr5-42);stroke:#339966;stroke-linecap:round;stroke-linejoin:round;stroke-width:1}
		.st9 {fill:#339966;fill-opacity:1;stroke:#339966;stroke-opacity:1;stroke-width:0.28409090909091}
		.st10 {marker-end:url(#mrkr5-18);stroke:#3366ff;stroke-linecap:round;stroke-linejoin:round;stroke-width:1}
		.st11 {fill:none;stroke:#ff0000;stroke-linecap:round;stroke-linejoin:round;stroke-width:1}
		.st12 {fill:none;fill-rule:evenodd;font-size:12px;overflow:visible;stroke-linecap:square;stroke-miterlimit:3}
	]]>
	</style>

	<defs id="Markers">
		<g id="lend5">
			<path d="M 2 1 L 0 0 L 1.98117 -0.993387 C 1.67173 -0.364515 1.67301 0.372641 1.98465 1.00043 " style="stroke:none"/>
		</g>
		<marker id="mrkr5-18" class="st5" refX="-6.16" orient="auto" markerUnits="strokeWidth" overflow="visible">
			<use xlink:href="#lend5" transform="scale(-3.52,-3.52) "/>
		</marker>
		<marker id="mrkr5-25" class="st7" refX="-6.16" orient="auto" markerUnits="strokeWidth" overflow="visible">
			<use xlink:href="#lend5" transform="scale(-3.52,-3.52) "/>
		</marker>
		<marker id="mrkr5-42" class="st9" refX="-6.16" orient="auto" markerUnits="strokeWidth" overflow="visible">
			<use xlink:href="#lend5" transform="scale(-3.52,-3.52) "/>
		</marker>
	</defs>
	<g>
		<title>Page-1</title>
		<g id="group136-1" transform="translate(0.5,-0.5)">
			<title>Sheet.136</title>
			<g id="shape7-2" transform="translate(113.386,5.68434E-014)">
				<title>Sheet.7</title>
				<path d="M61.3 69.87 L59.96 68.15 L59.89 68.25 A16.5341 21.2598 -180 0 0 37.92 69.87 L4.85 112.39 L4.18 113.25 A16.557
							 21.2893 -180 0 0 16.54 148.69 L82.68 148.69 A16.5341 21.2598 -180 0 0 93.68 111.56 L61.3 69.87 Z"
						class="st1"/>
			</g>
			<g id="shape17-4" transform="translate(92.126,-106.299)">
				<title>Sheet.17</title>
				<ellipse cx="14.1732" cy="134.513" rx="14.1732" ry="14.1732" class="st2"/>
			</g>
			<g id="shape19-6" transform="translate(148.819,-49.6063)">
				<title>Sheet.19</title>
				<ellipse cx="14.1732" cy="134.513" rx="14.1732" ry="14.1732" class="st2"/>
			</g>
			<g id="shape22-8" transform="translate(120.472,-7.08661)">
				<title>Sheet.22</title>
				<ellipse cx="14.1732" cy="134.513" rx="14.1732" ry="14.1732" class="st3"/>
			</g>
			<g id="shape23-10" transform="translate(177.165,-7.08661)">
				<title>Sheet.23</title>
				<ellipse cx="14.1732" cy="134.513" rx="14.1732" ry="14.1732" class="st3"/>
			</g>
			<g id="shape24-12" transform="translate(92.126,-49.6063)">
				<title>Sheet.24</title>
				<ellipse cx="14.1732" cy="134.513" rx="14.1732" ry="14.1732" class="st3"/>
			</g>
			<g id="shape26-14" transform="translate(28.3465,-42.5197)">
				<title>Sheet.26</title>
				<path d="M17.99 148.69 L137.92 148.69 A17.9891 18.3366 -180 0 0 150.64 117.38 L90.67 56.26 A17.9891 18.3366 -180
							 0 0 65.23 56.26 L5.27 117.38 A17.9891 18.3366 -180 0 0 17.99 148.69 Z" class="st4"/>
			</g>
			<g id="shape27-19" transform="translate(35.4331,-14.1732)">
				<title>Dynamic connector.40</title>
				<path d="M0 141.6 L22.19 141.6" class="st6"/>
			</g>
			<g id="shape28-26" transform="translate(70.8661,-33.0527)">
				<title>Dynamic connector.28</title>
				<path d="M-0.78 148.69 L-9.98 134.88" class="st6"/>
			</g>
			<g id="shape29-31" transform="translate(42.5197,-51.9867)">
				<title>Dynamic connector.39</title>
				<path d="M-0.78 148.69 L-9.98 162.49" class="st6"/>
			</g>
			<g id="shape30-36" transform="translate(155.906,-51.9867)">
				<title>Dynamic connector.30</title>
				<path d="M-0.78 148.69 L-9.98 162.49" class="st8"/>
			</g>
			<g id="shape31-43" transform="translate(148.819,-14.1732)">
				<title>Dynamic connector.31</title>
				<path d="M0 141.6 L22.19 141.6" class="st8"/>
			</g>
			<g id="shape32-48" transform="translate(184.252,-33.0527)">
				<title>Dynamic connector.32</title>
				<path d="M-0.78 148.69 L-9.98 134.88" class="st8"/>
			</g>
			<g id="shape33-53" transform="translate(96.2772,-110.45)">
				<title>Dynamic connector.33</title>
				<path d="M0 148.69 L-32.29 180.98" class="st10"/>
			</g>
			<g id="shape34-58" transform="translate(63.7795,-56.6929)">
				<title>Dynamic connector.34</title>
				<path d="M0 141.6 L22.19 141.6" class="st10"/>
			</g>
			<g id="shape35-63" transform="translate(120.472,-56.6929)">
				<title>Dynamic connector.35</title>
				<path d="M0 141.6 L22.19 141.6" class="st10"/>
			</g>
			<g id="shape36-68" transform="translate(152.97,-73.8015)">
				<title>Dynamic connector.36</title>
				<path d="M0 148.69 L-32.29 116.39" class="st10"/>
			</g>
			<g id="shape8-73">
				<title>Sheet.8</title>
				<path d="M61.3 69.87 L59.96 68.15 L59.89 68.25 A16.5341 21.2598 -180 0 0 37.92 69.87 L4.85 112.39 L4.18 113.25 A16.557
							 21.2893 -180 0 0 16.54 148.69 L82.68 148.69 A16.5341 21.2598 -180 0 0 93.68 111.56 L61.3 69.87 Z"
						class="st11"/>
			</g>
			<g id="shape18-75" transform="translate(35.4331,-49.6063)">
				<title>Sheet.18</title>
				<ellipse cx="14.1732" cy="134.513" rx="14.1732" ry="14.1732" class="st2"/>
			</g>
			<g id="shape20-77" transform="translate(7.08661,-7.08661)">
				<title>Sheet.20</title>
				<ellipse cx="14.1732" cy="134.513" rx="14.1732" ry="14.1732" class="st3"/>
			</g>
			<g id="shape21-79" transform="translate(63.7795,-7.08661)">
				<title>Sheet.21</title>
				<ellipse cx="14.1732" cy="134.513" rx="14.1732" ry="14.1732" class="st3"/>
			</g>
		</g>
	</g>
</svg>
