<?xml version="1.0" encoding="UTF-8" standalone="no"?>
<!DOCTYPE svg PUBLIC "-//W3C//DTD SVG 1.0//EN" "http://www.w3.org/TR/2001/REC-SVG-20010904/DTD/svg10.dtd">
<!-- Generated by Microsoft Visio 11.0, SVG Export, v1.0 Iterator.svg Page-1 -->
<svg xmlns="http://www.w3.org/2000/svg" xmlns:xlink="http://www.w3.org/1999/xlink" xmlns:ev="http://www.w3.org/2001/xml-events"
		xmlns:v="http://schemas.microsoft.com/visio/2003/SVGExtensions/" width="3.72857in" height="0.815179in"
		viewBox="0 0 268.457 58.6929" xml:space="preserve" color-interpolation-filters="sRGB" class="st5">
	<v:documentProperties v:langID="1033" v:metric="true" v:viewMarkup="false"/>

	<style type="text/css">
	<![CDATA[
		.st1 {fill:none;stroke:#000000;stroke-linecap:round;stroke-linejoin:round;stroke-width:1}
		.st2 {fill:#000000;font-family:Calibri;font-size:1.5em}
		.st3 {fill:#000000;stroke:none;stroke-linecap:round;stroke-linejoin:round;stroke-width:1}
		.st4 {fill:#ff0000;stroke:none;stroke-linecap:round;stroke-linejoin:round;stroke-width:1}
		.st5 {fill:none;fill-rule:evenodd;font-size:12px;overflow:visible;stroke-linecap:square;stroke-miterlimit:3}
	]]>
	</style>

	<g v:mID="0" v:index="1" v:groupContext="foregroundPage">
		<title>Page-1</title>
		<v:pageProperties v:drawingScale="0.0393701" v:pageScale="0.0393701" v:drawingUnits="24" v:shadowOffsetX="8.50394"
				v:shadowOffsetY="-8.50394"/>
		<g id="group34-1" transform="translate(1,-1)" v:mID="34" v:groupContext="group">
			<title>Sheet.34</title>
			<g id="shape28-2" v:mID="28" v:groupContext="shape" transform="translate(11.3386,-28.3465)">
				<title>Circle.28</title>
				<desc>D</desc>
				<v:userDefs>
					<v:ud v:nameU="visVersion" v:val="VT0(11):26"/>
				</v:userDefs>
				<v:textBlock v:margins="rect(4,4,4,4)" v:tabSpace="42.5197"/>
				<v:textRect cx="14.1732" cy="44.5197" width="24.81" height="21.2598"/>
				<path d="M0 44.52 A14.1732 14.1732 0 0 1 28.35 44.52 A14.1732 14.1732 0 1 1 0 44.52 Z" class="st1"/>
				<text x="8.64" y="49.92" class="st2" v:langID="1033"><v:paragraph v:horizAlign="1"/><v:tabList/>D</text>			</g>
			<g id="shape29-5" v:mID="29" v:groupContext="shape" transform="translate(53.8583,-28.3465)">
				<title>Circle.9</title>
				<desc>E</desc>
				<v:userDefs>
					<v:ud v:nameU="visVersion" v:val="VT0(11):26"/>
				</v:userDefs>
				<v:textBlock v:margins="rect(4,4,4,4)" v:tabSpace="42.5197"/>
				<v:textRect cx="14.1732" cy="44.5197" width="24.81" height="21.2598"/>
				<path d="M0 44.52 A14.1732 14.1732 0 0 1 28.35 44.52 A14.1732 14.1732 0 1 1 0 44.52 Z" class="st1"/>
				<text x="9.78" y="49.92" class="st2" v:langID="1033"><v:paragraph v:horizAlign="1"/><v:tabList/>E</text>			</g>
			<g id="shape30-8" v:mID="30" v:groupContext="shape" transform="translate(96.378,-28.3465)">
				<title>Circle.10</title>
				<desc>B</desc>
				<v:userDefs>
					<v:ud v:nameU="visVersion" v:val="VT0(11):26"/>
				</v:userDefs>
				<v:textBlock v:margins="rect(4,4,4,4)" v:tabSpace="42.5197"/>
				<v:textRect cx="14.1732" cy="44.5197" width="24.81" height="21.2598"/>
				<path d="M0 44.52 A14.1732 14.1732 0 0 1 28.35 44.52 A14.1732 14.1732 0 1 1 0 44.52 Z" class="st1"/>
				<text x="9.28" y="49.92" class="st2" v:langID="1033"><v:paragraph v:horizAlign="1"/><v:tabList/>B</text>			</g>
			<g id="shape31-11" v:mID="31" v:groupContext="shape" transform="translate(138.898,-28.3465)">
				<title>Circle.11</title>
				<desc>A</desc>
				<v:userDefs>
					<v:ud v:nameU="visVersion" v:val="VT0(11):26"/>
				</v:userDefs>
				<v:textBlock v:margins="rect(4,4,4,4)" v:tabSpace="42.5197"/>
				<v:textRect cx="14.1732" cy="44.5197" width="24.81" height="21.2598"/>
				<path d="M0 44.52 A14.1732 14.1732 0 0 1 28.35 44.52 A14.1732 14.1732 0 1 1 0 44.52 Z" class="st1"/>
				<text x="8.97" y="49.92" class="st2" v:langID="1033"><v:paragraph v:horizAlign="1"/><v:tabList/>A</text>			</g>
			<g id="shape32-14" v:mID="32" v:groupContext="shape" transform="translate(181.417,-28.3465)">
				<title>Circle.12</title>
				<desc>C</desc>
				<v:userDefs>
					<v:ud v:nameU="visVersion" v:val="VT0(11):26"/>
				</v:userDefs>
				<v:textBlock v:margins="rect(4,4,4,4)" v:tabSpace="42.5197"/>
				<v:textRect cx="14.1732" cy="44.5197" width="24.81" height="21.2598"/>
				<path d="M0 44.52 A14.1732 14.1732 0 0 1 28.35 44.52 A14.1732 14.1732 0 1 1 0 44.52 Z" class="st1"/>
				<text x="9.37" y="49.92" class="st2" v:langID="1033"><v:paragraph v:horizAlign="1"/><v:tabList/>C</text>			</g>
			<g id="shape84-17" v:mID="84" v:groupContext="shape" transform="translate(223.937,-28.3465)">
				<title>Circle.84</title>
				<desc>A</desc>
				<v:userDefs>
					<v:ud v:nameU="visVersion" v:val="VT0(11):26"/>
				</v:userDefs>
				<v:textBlock v:margins="rect(4,4,4,4)" v:tabSpace="42.5197"/>
				<v:textRect cx="14.1732" cy="44.5197" width="24.81" height="21.2598"/>
				<path d="M0 44.52 A14.1732 14.1732 0 0 1 28.35 44.52 A14.1732 14.1732 0 1 1 0 44.52 Z" class="st1"/>
				<text x="8.97" y="49.92" class="st2" v:langID="1033"><v:paragraph v:horizAlign="1"/><v:tabList/>A</text>			</g>
			<g id="shape52-20" v:mID="52" v:groupContext="shape">
				<title>Sheet.52</title>
				<path d="M0 58.69 L14.17 58.69 L7.09 30.35 L0 58.69 Z" class="st3"/>
			</g>
			<g id="shape110-22" v:mID="110" v:groupContext="shape" transform="translate(39.685,-1.42109E-013)">
				<title>Sheet.110</title>
				<path d="M0 58.69 L14.17 58.69 L7.09 30.35 L0 58.69 Z" class="st3"/>
			</g>
			<g id="shape111-24" v:mID="111" v:groupContext="shape" transform="translate(82.2047,-1.42109E-013)">
				<title>Sheet.111</title>
				<path d="M0 58.69 L14.17 58.69 L7.09 30.35 L0 58.69 Z" class="st3"/>
			</g>
			<g id="shape112-26" v:mID="112" v:groupContext="shape" transform="translate(124.724,-1.42109E-013)">
				<title>Sheet.112</title>
				<path d="M0 58.69 L14.17 58.69 L7.09 30.35 L0 58.69 Z" class="st3"/>
			</g>
			<g id="shape113-28" v:mID="113" v:groupContext="shape" transform="translate(167.244,-4.9738E-014)">
				<title>Sheet.113</title>
				<path d="M0 58.69 L14.17 58.69 L7.09 30.35 L0 58.69 Z" class="st3"/>
			</g>
			<g id="shape114-30" v:mID="114" v:groupContext="shape" transform="translate(209.764,-1.42109E-013)">
				<title>Sheet.114</title>
				<path d="M0 58.69 L14.17 58.69 L7.09 30.35 L0 58.69 Z" class="st3"/>
			</g>
			<g id="shape33-32" v:mID="33" v:groupContext="shape" transform="translate(252.283,-4.9738E-014)">
				<title>Sheet.33</title>
				<path d="M0 58.69 L14.17 58.69 L7.09 30.35 L0 58.69 Z" class="st4"/>
			</g>
		</g>
	</g>
</svg>
