<?xml version="1.0" encoding="UTF-8" standalone="no"?>
<!DOCTYPE svg PUBLIC "-//W3C//DTD SVG 1.0//EN" "http://www.w3.org/TR/2001/REC-SVG-20010904/DTD/svg10.dtd">
<!-- Generated by Microsoft Visio 11.0, SVG Export, v1.0 List-Iterator.svg Page-1 -->
<svg xmlns="http://www.w3.org/2000/svg" xmlns:xlink="http://www.w3.org/1999/xlink" xmlns:ev="http://www.w3.org/2001/xml-events"
		xmlns:v="http://schemas.microsoft.com/visio/2003/SVGExtensions/" width="3.37423in" height="1.20888in"
		viewBox="0 0 242.945 87.0394" xml:space="preserve" color-interpolation-filters="sRGB" class="st7">
	<v:documentProperties v:langID="1033" v:metric="true" v:viewMarkup="false"/>

	<style type="text/css">
	<![CDATA[
		.st1 {fill:none;stroke:#000000;stroke-linecap:round;stroke-linejoin:round;stroke-width:1}
		.st2 {fill:#000000;font-family:Calibri;font-size:1.5em}
		.st3 {stroke:#000000;stroke-linecap:round;stroke-linejoin:round;stroke-width:1}
		.st4 {fill:none;stroke:none;stroke-linecap:round;stroke-linejoin:round;stroke-width:1}
		.st5 {fill:#000000;font-family:Calibri;font-size:1.00001em}
		.st6 {fill:#000000;stroke:none;stroke-linecap:round;stroke-linejoin:round;stroke-width:1}
		.st7 {fill:none;fill-rule:evenodd;font-size:12px;overflow:visible;stroke-linecap:square;stroke-miterlimit:3}
	]]>
	</style>

	<g v:mID="0" v:index="1" v:groupContext="foregroundPage">
		<title>Page-1</title>
		<v:pageProperties v:drawingScale="0.0393701" v:pageScale="0.0393701" v:drawingUnits="24" v:shadowOffsetX="8.50394"
				v:shadowOffsetY="-8.50394"/>
		<g id="group307-1" transform="translate(1,-1)" v:mID="307" v:groupContext="group">
			<title>Sheet.307</title>
			<g id="group308-2" transform="translate(21.2598,-42.5197)" v:mID="308" v:groupContext="group">
				<title>Sheet.308</title>
				<g id="shape309-3" v:mID="309" v:groupContext="shape">
					<title>Circle</title>
					<desc>A</desc>
					<v:userDefs>
						<v:ud v:nameU="visVersion" v:val="VT0(11):26"/>
					</v:userDefs>
					<v:textBlock v:margins="rect(4,4,4,4)" v:tabSpace="42.5197"/>
					<v:textRect cx="14.1732" cy="72.8661" width="24.81" height="21.2598"/>
					<path d="M0 72.87 A14.1732 14.1732 0 0 1 28.35 72.87 A14.1732 14.1732 0 1 1 0 72.87 Z" class="st1"/>
					<text x="8.97" y="78.27" class="st2" v:langID="1033"><v:paragraph v:horizAlign="1"/><v:tabList/>A</text>				</g>
				<g id="shape310-6" v:mID="310" v:groupContext="shape" transform="translate(42.5197,-4.26326E-013)">
					<title>Circle.9</title>
					<desc>B</desc>
					<v:userDefs>
						<v:ud v:nameU="visVersion" v:val="VT0(11):26"/>
					</v:userDefs>
					<v:textBlock v:margins="rect(4,4,4,4)" v:tabSpace="42.5197"/>
					<v:textRect cx="14.1732" cy="72.8661" width="24.81" height="21.2598"/>
					<path d="M0 72.87 A14.1732 14.1732 0 0 1 28.35 72.87 A14.1732 14.1732 0 1 1 0 72.87 Z" class="st1"/>
					<text x="9.28" y="78.27" class="st2" v:langID="1033"><v:paragraph v:horizAlign="1"/><v:tabList/>B</text>				</g>
				<g id="shape311-9" v:mID="311" v:groupContext="shape" transform="translate(85.0394,-3.12639E-013)">
					<title>Circle.10</title>
					<desc>C</desc>
					<v:userDefs>
						<v:ud v:nameU="visVersion" v:val="VT0(11):26"/>
					</v:userDefs>
					<v:textBlock v:margins="rect(4,4,4,4)" v:tabSpace="42.5197"/>
					<v:textRect cx="14.1732" cy="72.8661" width="24.81" height="21.2598"/>
					<path d="M0 72.87 A14.1732 14.1732 0 0 1 28.35 72.87 A14.1732 14.1732 0 1 1 0 72.87 Z" class="st1"/>
					<text x="9.37" y="78.27" class="st2" v:langID="1033"><v:paragraph v:horizAlign="1"/><v:tabList/>C</text>				</g>
				<g id="shape312-12" v:mID="312" v:groupContext="shape" transform="translate(127.559,-1.7053E-013)">
					<title>Circle.11</title>
					<desc>A</desc>
					<v:userDefs>
						<v:ud v:nameU="visVersion" v:val="VT0(11):26"/>
					</v:userDefs>
					<v:textBlock v:margins="rect(4,4,4,4)" v:tabSpace="42.5197"/>
					<v:textRect cx="14.1732" cy="72.8661" width="24.81" height="21.2598"/>
					<path d="M0 72.87 A14.1732 14.1732 0 0 1 28.35 72.87 A14.1732 14.1732 0 1 1 0 72.87 Z" class="st1"/>
					<text x="8.97" y="78.27" class="st2" v:langID="1033"><v:paragraph v:horizAlign="1"/><v:tabList/>A</text>				</g>
				<g id="shape313-15" v:mID="313" v:groupContext="shape" transform="translate(170.079,8.52651E-014)">
					<title>Circle.12</title>
					<desc>A</desc>
					<v:userDefs>
						<v:ud v:nameU="visVersion" v:val="VT0(11):26"/>
					</v:userDefs>
					<v:textBlock v:margins="rect(4,4,4,4)" v:tabSpace="42.5197"/>
					<v:textRect cx="14.1732" cy="72.8661" width="24.81" height="21.2598"/>
					<path d="M0 72.87 A14.1732 14.1732 0 0 1 28.35 72.87 A14.1732 14.1732 0 1 1 0 72.87 Z" class="st1"/>
					<text x="8.97" y="78.27" class="st2" v:langID="1033"><v:paragraph v:horizAlign="1"/><v:tabList/>A</text>				</g>
				<g id="shape314-18" v:mID="314" v:groupContext="shape" transform="translate(28.3465,-14.1732)">
					<title>Sheet.314</title>
					<path d="M0 87.04 L14.17 87.04" class="st3"/>
				</g>
				<g id="shape315-21" v:mID="315" v:groupContext="shape" transform="translate(70.8661,-14.1732)">
					<title>Sheet.315</title>
					<path d="M0 87.04 L14.17 87.04" class="st3"/>
				</g>
				<g id="shape316-24" v:mID="316" v:groupContext="shape" transform="translate(113.386,-14.1732)">
					<title>Sheet.316</title>
					<path d="M0 87.04 L14.17 87.04" class="st3"/>
				</g>
				<g id="shape317-27" v:mID="317" v:groupContext="shape" transform="translate(155.906,-14.1732)">
					<title>Sheet.317</title>
					<path d="M0 87.04 L14.17 87.04" class="st3"/>
				</g>
			</g>
			<g id="shape318-30" v:mID="318" v:groupContext="shape" transform="translate(63.7795,-70.8661)">
				<title>Sheet.318</title>
				<desc>1</desc>
				<v:textBlock v:margins="rect(4,4,4,4)" v:tabSpace="42.5197"/>
				<v:textRect cx="14.1732" cy="79.9528" width="28.35" height="14.1732"/>
				<rect x="0" y="72.8661" width="28.3465" height="14.1732" class="st4"/>
				<text x="11.13" y="83.55" class="st5" v:langID="1033"><v:paragraph v:horizAlign="1"/><v:tabList/>1</text>			</g>
			<g id="shape319-33" v:mID="319" v:groupContext="shape" transform="translate(106.299,-70.8661)">
				<title>Sheet.319</title>
				<desc>2</desc>
				<v:textBlock v:margins="rect(4,4,4,4)" v:tabSpace="42.5197"/>
				<v:textRect cx="14.1732" cy="79.9528" width="28.35" height="14.1732"/>
				<rect x="0" y="72.8661" width="28.3465" height="14.1732" class="st4"/>
				<text x="11.13" y="83.55" class="st5" v:langID="1033"><v:paragraph v:horizAlign="1"/><v:tabList/>2</text>			</g>
			<g id="shape320-36" v:mID="320" v:groupContext="shape" transform="translate(148.819,-70.8661)">
				<title>Sheet.320</title>
				<desc>3</desc>
				<v:textBlock v:margins="rect(4,4,4,4)" v:tabSpace="42.5197"/>
				<v:textRect cx="14.1732" cy="79.9528" width="28.35" height="14.1732"/>
				<rect x="0" y="72.8661" width="28.3465" height="14.1732" class="st4"/>
				<text x="11.13" y="83.55" class="st5" v:langID="1033"><v:paragraph v:horizAlign="1"/><v:tabList/>3</text>			</g>
			<g id="shape321-39" v:mID="321" v:groupContext="shape" transform="translate(191.339,-70.8661)">
				<title>Sheet.321</title>
				<desc>4</desc>
				<v:textBlock v:margins="rect(4,4,4,4)" v:tabSpace="42.5197"/>
				<v:textRect cx="14.1732" cy="79.9528" width="28.35" height="14.1732"/>
				<rect x="0" y="72.8661" width="28.3465" height="14.1732" class="st4"/>
				<text x="11.13" y="83.55" class="st5" v:langID="1033"><v:paragraph v:horizAlign="1"/><v:tabList/>4</text>			</g>
			<g id="shape322-42" v:mID="322" v:groupContext="shape" transform="translate(7.08661,-14.1732)">
				<title>Sheet.322</title>
				<path d="M0 87.04 L14.17 87.04 L7.09 58.69 L0 87.04 Z" class="st6"/>
			</g>
			<g id="shape323-44" v:mID="323" v:groupContext="shape" transform="translate(49.6063,-14.1732)">
				<title>Sheet.323</title>
				<path d="M0 87.04 L14.17 87.04 L7.09 58.69 L0 87.04 Z" class="st6"/>
			</g>
			<g id="shape324-46" v:mID="324" v:groupContext="shape" transform="translate(92.126,-14.1732)">
				<title>Sheet.324</title>
				<path d="M0 87.04 L14.17 87.04 L7.09 58.69 L0 87.04 Z" class="st6"/>
			</g>
			<g id="shape325-48" v:mID="325" v:groupContext="shape" transform="translate(134.646,-14.1732)">
				<title>Sheet.325</title>
				<path d="M0 87.04 L14.17 87.04 L7.09 58.69 L0 87.04 Z" class="st6"/>
			</g>
			<g id="shape326-50" v:mID="326" v:groupContext="shape" transform="translate(177.165,-14.1732)">
				<title>Sheet.326</title>
				<path d="M0 87.04 L14.17 87.04 L7.09 58.69 L0 87.04 Z" class="st6"/>
			</g>
			<g id="shape327-52" v:mID="327" v:groupContext="shape" transform="translate(21.2598,-70.8661)">
				<title>Sheet.327</title>
				<desc>0</desc>
				<v:textBlock v:margins="rect(4,4,4,4)" v:tabSpace="42.5197"/>
				<v:textRect cx="14.1732" cy="79.9528" width="28.35" height="14.1732"/>
				<rect x="0" y="72.8661" width="28.3465" height="14.1732" class="st4"/>
				<text x="11.13" y="83.55" class="st5" v:langID="1033"><v:paragraph v:horizAlign="1"/><v:tabList/>0</text>			</g>
			<g id="shape328-55" v:mID="328" v:groupContext="shape" transform="translate(219.685,-14.1732)">
				<title>Sheet.328</title>
				<path d="M0 87.04 L14.17 87.04 L7.09 58.69 L0 87.04 Z" class="st6"/>
			</g>
			<g id="shape329-57" v:mID="329" v:groupContext="shape" transform="translate(42.5197,0)">
				<title>Sheet.329</title>
				<desc>1</desc>
				<v:textBlock v:margins="rect(4,4,4,4)" v:tabSpace="42.5197"/>
				<v:textRect cx="14.1732" cy="79.9528" width="28.35" height="14.1732"/>
				<rect x="0" y="72.8661" width="28.3465" height="14.1732" class="st4"/>
				<text x="11.13" y="83.55" class="st5" v:langID="1033"><v:paragraph v:horizAlign="1"/><v:tabList/>1</text>			</g>
			<g id="shape330-60" v:mID="330" v:groupContext="shape" transform="translate(85.0394,0)">
				<title>Sheet.330</title>
				<desc>2</desc>
				<v:textBlock v:margins="rect(4,4,4,4)" v:tabSpace="42.5197"/>
				<v:textRect cx="14.1732" cy="79.9528" width="28.35" height="14.1732"/>
				<rect x="0" y="72.8661" width="28.3465" height="14.1732" class="st4"/>
				<text x="11.13" y="83.55" class="st5" v:langID="1033"><v:paragraph v:horizAlign="1"/><v:tabList/>2</text>			</g>
			<g id="shape331-63" v:mID="331" v:groupContext="shape" transform="translate(127.559,0)">
				<title>Sheet.331</title>
				<desc>3</desc>
				<v:textBlock v:margins="rect(4,4,4,4)" v:tabSpace="42.5197"/>
				<v:textRect cx="14.1732" cy="79.9528" width="28.35" height="14.1732"/>
				<rect x="0" y="72.8661" width="28.3465" height="14.1732" class="st4"/>
				<text x="11.13" y="83.55" class="st5" v:langID="1033"><v:paragraph v:horizAlign="1"/><v:tabList/>3</text>			</g>
			<g id="shape332-66" v:mID="332" v:groupContext="shape" transform="translate(170.079,0)">
				<title>Sheet.332</title>
				<desc>4</desc>
				<v:textBlock v:margins="rect(4,4,4,4)" v:tabSpace="42.5197"/>
				<v:textRect cx="14.1732" cy="79.9528" width="28.35" height="14.1732"/>
				<rect x="0" y="72.8661" width="28.3465" height="14.1732" class="st4"/>
				<text x="11.13" y="83.55" class="st5" v:langID="1033"><v:paragraph v:horizAlign="1"/><v:tabList/>4</text>			</g>
			<g id="shape333-69" v:mID="333" v:groupContext="shape" transform="translate(212.598,0)">
				<title>Sheet.333</title>
				<desc>5</desc>
				<v:textBlock v:margins="rect(4,4,4,4)" v:tabSpace="42.5197"/>
				<v:textRect cx="14.1732" cy="79.9528" width="28.35" height="14.1732"/>
				<rect x="0" y="72.8661" width="28.3465" height="14.1732" class="st4"/>
				<text x="11.13" y="83.55" class="st5" v:langID="1033"><v:paragraph v:horizAlign="1"/><v:tabList/>5</text>			</g>
			<g id="shape334-72" v:mID="334" v:groupContext="shape">
				<title>Sheet.334</title>
				<desc>0</desc>
				<v:textBlock v:margins="rect(4,4,4,4)" v:tabSpace="42.5197"/>
				<v:textRect cx="14.1732" cy="79.9528" width="28.35" height="14.1732"/>
				<rect x="0" y="72.8661" width="28.3465" height="14.1732" class="st4"/>
				<text x="11.13" y="83.55" class="st5" v:langID="1049"><v:paragraph v:horizAlign="1"/><v:tabList/>0</text>			</g>
		</g>
	</g>
</svg>
