<?xml version="1.0" encoding="UTF-8" standalone="no"?>
<!DOCTYPE svg PUBLIC "-//W3C//DTD SVG 1.0//EN" "http://www.w3.org/TR/2001/REC-SVG-20010904/DTD/svg10.dtd">
<!-- Generated by Microsoft Visio 11.0, SVG Export, v1.0 List.svg Page-1 -->
<svg xmlns="http://www.w3.org/2000/svg" xmlns:xlink="http://www.w3.org/1999/xlink" xmlns:ev="http://www.w3.org/2001/xml-events"
		xmlns:v="http://schemas.microsoft.com/visio/2003/SVGExtensions/" width="2.78368in" height="0.618329in"
		viewBox="0 0 200.425 44.5197" xml:space="preserve" color-interpolation-filters="sRGB" class="st6">
	<v:documentProperties v:langID="1033" v:metric="true" v:viewMarkup="false"/>

	<style type="text/css">
	<![CDATA[
		.st1 {fill:none;stroke:#000000;stroke-linecap:round;stroke-linejoin:round;stroke-width:1}
		.st2 {fill:#000000;font-family:Calibri;font-size:1.5em}
		.st3 {stroke:#000000;stroke-linecap:round;stroke-linejoin:round;stroke-width:1}
		.st4 {fill:none;stroke:none;stroke-linecap:round;stroke-linejoin:round;stroke-width:1}
		.st5 {fill:#000000;font-family:Calibri;font-size:1.00001em}
		.st6 {fill:none;fill-rule:evenodd;font-size:12px;overflow:visible;stroke-linecap:square;stroke-miterlimit:3}
	]]>
	</style>

	<g v:mID="0" v:index="1" v:groupContext="foregroundPage">
		<title>Page-1</title>
		<v:pageProperties v:drawingScale="0.0393701" v:pageScale="0.0393701" v:drawingUnits="24" v:shadowOffsetX="8.50394"
				v:shadowOffsetY="-8.50394"/>
		<g id="group57-1" transform="translate(1,-1)" v:mID="57" v:groupContext="group">
			<title>Sheet.57</title>
			<g id="shape58-2" v:mID="58" v:groupContext="shape">
				<title>Circle</title>
				<desc>A</desc>
				<v:userDefs>
					<v:ud v:nameU="visVersion" v:val="VT0(11):26"/>
				</v:userDefs>
				<v:textBlock v:margins="rect(4,4,4,4)" v:tabSpace="42.5197"/>
				<v:textRect cx="14.1732" cy="30.3465" width="24.81" height="21.2598"/>
				<path d="M0 30.35 A14.1732 14.1732 0 0 1 28.35 30.35 A14.1732 14.1732 0 1 1 0 30.35 Z" class="st1"/>
				<text x="8.97" y="35.75" class="st2" v:langID="1033"><v:paragraph v:horizAlign="1"/><v:tabList/>A</text>			</g>
			<g id="shape59-5" v:mID="59" v:groupContext="shape" transform="translate(42.5197,-4.26326E-013)">
				<title>Circle.9</title>
				<desc>B</desc>
				<v:userDefs>
					<v:ud v:nameU="visVersion" v:val="VT0(11):26"/>
				</v:userDefs>
				<v:textBlock v:margins="rect(4,4,4,4)" v:tabSpace="42.5197"/>
				<v:textRect cx="14.1732" cy="30.3465" width="24.81" height="21.2598"/>
				<path d="M0 30.35 A14.1732 14.1732 0 0 1 28.35 30.35 A14.1732 14.1732 0 1 1 0 30.35 Z" class="st1"/>
				<text x="9.28" y="35.75" class="st2" v:langID="1033"><v:paragraph v:horizAlign="1"/><v:tabList/>B</text>			</g>
			<g id="shape60-8" v:mID="60" v:groupContext="shape" transform="translate(85.0394,-2.98428E-013)">
				<title>Circle.10</title>
				<desc>C</desc>
				<v:userDefs>
					<v:ud v:nameU="visVersion" v:val="VT0(11):26"/>
				</v:userDefs>
				<v:textBlock v:margins="rect(4,4,4,4)" v:tabSpace="42.5197"/>
				<v:textRect cx="14.1732" cy="30.3465" width="24.81" height="21.2598"/>
				<path d="M0 30.35 A14.1732 14.1732 0 0 1 28.35 30.35 A14.1732 14.1732 0 1 1 0 30.35 Z" class="st1"/>
				<text x="9.37" y="35.75" class="st2" v:langID="1033"><v:paragraph v:horizAlign="1"/><v:tabList/>C</text>			</g>
			<g id="shape61-11" v:mID="61" v:groupContext="shape" transform="translate(127.559,-1.63425E-013)">
				<title>Circle.11</title>
				<desc>A</desc>
				<v:userDefs>
					<v:ud v:nameU="visVersion" v:val="VT0(11):26"/>
				</v:userDefs>
				<v:textBlock v:margins="rect(4,4,4,4)" v:tabSpace="42.5197"/>
				<v:textRect cx="14.1732" cy="30.3465" width="24.81" height="21.2598"/>
				<path d="M0 30.35 A14.1732 14.1732 0 0 1 28.35 30.35 A14.1732 14.1732 0 1 1 0 30.35 Z" class="st1"/>
				<text x="8.97" y="35.75" class="st2" v:langID="1033"><v:paragraph v:horizAlign="1"/><v:tabList/>A</text>			</g>
			<g id="shape62-14" v:mID="62" v:groupContext="shape" transform="translate(170.079,8.52651E-014)">
				<title>Circle.12</title>
				<desc>A</desc>
				<v:userDefs>
					<v:ud v:nameU="visVersion" v:val="VT0(11):26"/>
				</v:userDefs>
				<v:textBlock v:margins="rect(4,4,4,4)" v:tabSpace="42.5197"/>
				<v:textRect cx="14.1732" cy="30.3465" width="24.81" height="21.2598"/>
				<path d="M0 30.35 A14.1732 14.1732 0 0 1 28.35 30.35 A14.1732 14.1732 0 1 1 0 30.35 Z" class="st1"/>
				<text x="8.97" y="35.75" class="st2" v:langID="1033"><v:paragraph v:horizAlign="1"/><v:tabList/>A</text>			</g>
			<g id="shape63-17" v:mID="63" v:groupContext="shape" transform="translate(28.3465,-14.1732)">
				<title>Sheet.63</title>
				<path d="M0 44.52 L14.17 44.52" class="st3"/>
			</g>
			<g id="shape64-20" v:mID="64" v:groupContext="shape" transform="translate(70.8661,-14.1732)">
				<title>Sheet.64</title>
				<path d="M0 44.52 L14.17 44.52" class="st3"/>
			</g>
			<g id="shape65-23" v:mID="65" v:groupContext="shape" transform="translate(113.386,-14.1732)">
				<title>Sheet.65</title>
				<path d="M0 44.52 L14.17 44.52" class="st3"/>
			</g>
			<g id="shape66-26" v:mID="66" v:groupContext="shape" transform="translate(155.906,-14.1732)">
				<title>Sheet.66</title>
				<path d="M0 44.52 L14.17 44.52" class="st3"/>
			</g>
		</g>
		<g id="shape67-29" v:mID="67" v:groupContext="shape" transform="translate(43.5197,-29.3465)">
			<title>Sheet.67</title>
			<desc>1</desc>
			<v:textBlock v:margins="rect(4,4,4,4)" v:tabSpace="42.5197"/>
			<v:textRect cx="14.1732" cy="37.4331" width="28.35" height="14.1732"/>
			<rect x="0" y="30.3465" width="28.3465" height="14.1732" class="st4"/>
			<text x="11.13" y="41.03" class="st5" v:langID="1033"><v:paragraph v:horizAlign="1"/><v:tabList/>1</text>		</g>
		<g id="shape68-32" v:mID="68" v:groupContext="shape" transform="translate(86.0394,-29.3465)">
			<title>Sheet.68</title>
			<desc>2</desc>
			<v:textBlock v:margins="rect(4,4,4,4)" v:tabSpace="42.5197"/>
			<v:textRect cx="14.1732" cy="37.4331" width="28.35" height="14.1732"/>
			<rect x="0" y="30.3465" width="28.3465" height="14.1732" class="st4"/>
			<text x="11.13" y="41.03" class="st5" v:langID="1033"><v:paragraph v:horizAlign="1"/><v:tabList/>2</text>		</g>
		<g id="shape69-35" v:mID="69" v:groupContext="shape" transform="translate(128.559,-29.3465)">
			<title>Sheet.69</title>
			<desc>3</desc>
			<v:textBlock v:margins="rect(4,4,4,4)" v:tabSpace="42.5197"/>
			<v:textRect cx="14.1732" cy="37.4331" width="28.35" height="14.1732"/>
			<rect x="0" y="30.3465" width="28.3465" height="14.1732" class="st4"/>
			<text x="11.13" y="41.03" class="st5" v:langID="1033"><v:paragraph v:horizAlign="1"/><v:tabList/>3</text>		</g>
		<g id="shape70-38" v:mID="70" v:groupContext="shape" transform="translate(171.079,-29.3465)">
			<title>Sheet.70</title>
			<desc>4</desc>
			<v:textBlock v:margins="rect(4,4,4,4)" v:tabSpace="42.5197"/>
			<v:textRect cx="14.1732" cy="37.4331" width="28.35" height="14.1732"/>
			<rect x="0" y="30.3465" width="28.3465" height="14.1732" class="st4"/>
			<text x="11.13" y="41.03" class="st5" v:langID="1033"><v:paragraph v:horizAlign="1"/><v:tabList/>4</text>		</g>
		<g id="shape76-41" v:mID="76" v:groupContext="shape" transform="translate(1,-29.3465)">
			<title>Sheet.76</title>
			<desc>0</desc>
			<v:textBlock v:margins="rect(4,4,4,4)" v:tabSpace="42.5197"/>
			<v:textRect cx="14.1732" cy="37.4331" width="28.35" height="14.1732"/>
			<rect x="0" y="30.3465" width="28.3465" height="14.1732" class="st4"/>
			<text x="11.13" y="41.03" class="st5" v:langID="1033"><v:paragraph v:horizAlign="1"/><v:tabList/>0</text>		</g>
	</g>
</svg>
