<?xml version="1.0" encoding="UTF-8" standalone="no"?>
<!DOCTYPE svg PUBLIC "-//W3C//DTD SVG 1.0//EN" "http://www.w3.org/TR/2001/REC-SVG-20010904/DTD/svg10.dtd">
<!-- Generated by Microsoft Visio 11.0, SVG Export, v1.0 Map.svg Page-1 -->
<svg xmlns="http://www.w3.org/2000/svg" xmlns:xlink="http://www.w3.org/1999/xlink" xmlns:ev="http://www.w3.org/2001/xml-events"
		xmlns:v="http://schemas.microsoft.com/visio/2003/SVGExtensions/" width="1.58147in" height="1.97517in"
		viewBox="0 0 113.866 142.212" xml:space="preserve" color-interpolation-filters="sRGB" class="st6">
	<v:documentProperties v:langID="1033" v:metric="true" v:viewMarkup="false"/>

	<style type="text/css">
	<![CDATA[
		.st1 {fill:none;stroke:#000000;stroke-linecap:round;stroke-linejoin:round;stroke-width:1}
		.st2 {fill:#000000;fill-opacity:1;stroke:#000000;stroke-opacity:1;stroke-width:0.28409090909091}
		.st3 {fill:#000000;font-family:Calibri;font-size:1.5em}
		.st4 {marker-end:url(#mrkr13-6);stroke:#000000;stroke-linecap:round;stroke-linejoin:round;stroke-width:1}
		.st5 {fill:none;stroke:#000000;stroke-linecap:round;stroke-linejoin:round;stroke-width:0.24}
		.st6 {fill:none;fill-rule:evenodd;font-size:12px;overflow:visible;stroke-linecap:square;stroke-miterlimit:3}
	]]>
	</style>

	<defs id="Markers">
		<g id="lend13">
			<path d="M 3 1 L 0 0 L 3 -1 L 3 1 " style="stroke:none"/>
		</g>
		<marker id="mrkr13-6" class="st2" v:arrowType="13" v:arrowSize="2" v:setback="10.56" refX="-10.56" orient="auto"
				markerUnits="strokeWidth" overflow="visible">
			<use xlink:href="#lend13" transform="scale(-3.52,-3.52) "/>
		</marker>
	</defs>
	<g v:mID="0" v:index="1" v:groupContext="foregroundPage">
		<title>Page-1</title>
		<v:pageProperties v:drawingScale="0.0393701" v:pageScale="0.0393701" v:drawingUnits="24" v:shadowOffsetX="8.50394"
				v:shadowOffsetY="-8.50394"/>
		<g id="group352-1" transform="translate(0.24,-0.24)" v:mID="352" v:groupContext="group">
			<title>Sheet.352</title>
			<g id="group36-2" transform="translate(14.1732,-14.1732)" v:mID="36" v:groupContext="group">
				<title>Sheet.36</title>
				<g id="shape37-3" v:mID="37" v:groupContext="shape" transform="translate(-1.39888E-014,-85.0394)">
					<title>Circle</title>
					<desc>A</desc>
					<v:userDefs>
						<v:ud v:nameU="visVersion" v:val="VT0(11):26"/>
					</v:userDefs>
					<v:textBlock v:margins="rect(4,4,4,4)" v:tabSpace="42.5197"/>
					<v:textRect cx="14.1732" cy="128.039" width="24.81" height="21.2598"/>
					<path d="M0 128.04 A14.1732 14.1732 0 0 1 28.35 128.04 A14.1732 14.1732 0 1 1 0 128.04 Z" class="st1"/>
					<text x="8.97" y="133.44" class="st3" v:langID="1033"><v:paragraph v:horizAlign="1"/><v:tabList/>A</text>				</g>
				<g id="shape38-8" v:mID="38" v:groupContext="shape" transform="translate(56.6929,-85.0394)">
					<title>Circle.33</title>
					<desc>1</desc>
					<v:userDefs>
						<v:ud v:nameU="visVersion" v:val="VT0(11):26"/>
					</v:userDefs>
					<v:textBlock v:margins="rect(4,4,4,4)" v:tabSpace="42.5197"/>
					<v:textRect cx="14.1732" cy="128.039" width="24.81" height="21.2598"/>
					<path d="M0 128.04 A14.1732 14.1732 0 0 1 28.35 128.04 A14.1732 14.1732 0 1 1 0 128.04 Z" class="st1"/>
					<text x="9.61" y="133.44" class="st3" v:langID="1033"><v:paragraph v:horizAlign="1"/><v:tabList/>1</text>				</g>
				<g id="shape39-12" v:mID="39" v:groupContext="shape">
					<title>Circle.34</title>
					<desc>B</desc>
					<v:userDefs>
						<v:ud v:nameU="visVersion" v:val="VT0(11):26"/>
					</v:userDefs>
					<v:textBlock v:margins="rect(4,4,4,4)" v:tabSpace="42.5197"/>
					<v:textRect cx="14.1732" cy="128.039" width="24.81" height="21.2598"/>
					<path d="M0 128.04 A14.1732 14.1732 0 0 1 28.35 128.04 A14.1732 14.1732 0 1 1 0 128.04 Z" class="st1"/>
					<text x="9.28" y="133.44" class="st3" v:langID="1033"><v:paragraph v:horizAlign="1"/><v:tabList/>B</text>				</g>
				<g id="shape40-16" v:mID="40" v:groupContext="shape" transform="translate(56.6929,0)">
					<title>Circle.35</title>
					<desc>5</desc>
					<v:userDefs>
						<v:ud v:nameU="visVersion" v:val="VT0(11):26"/>
					</v:userDefs>
					<v:textBlock v:margins="rect(4,4,4,4)" v:tabSpace="42.5197"/>
					<v:textRect cx="14.1732" cy="128.039" width="24.81" height="21.2598"/>
					<path d="M0 128.04 A14.1732 14.1732 0 0 1 28.35 128.04 A14.1732 14.1732 0 1 1 0 128.04 Z" class="st1"/>
					<text x="9.61" y="133.44" class="st3" v:langID="1033"><v:paragraph v:horizAlign="1"/><v:tabList/>5</text>				</g>
				<g id="shape41-20" v:mID="41" v:groupContext="shape" transform="translate(-1.39888E-014,-42.5197)">
					<title>Circle.36</title>
					<desc>C</desc>
					<v:userDefs>
						<v:ud v:nameU="visVersion" v:val="VT0(11):26"/>
					</v:userDefs>
					<v:textBlock v:margins="rect(4,4,4,4)" v:tabSpace="42.5197"/>
					<v:textRect cx="14.1732" cy="128.039" width="24.81" height="21.2598"/>
					<path d="M0 128.04 A14.1732 14.1732 0 0 1 28.35 128.04 A14.1732 14.1732 0 1 1 0 128.04 Z" class="st1"/>
					<text x="9.37" y="133.44" class="st3" v:langID="1033"><v:paragraph v:horizAlign="1"/><v:tabList/>C</text>				</g>
				<g id="shape42-24" v:mID="42" v:groupContext="shape" transform="translate(56.6929,-42.5197)">
					<title>Circle.37</title>
					<desc>1</desc>
					<v:userDefs>
						<v:ud v:nameU="visVersion" v:val="VT0(11):26"/>
					</v:userDefs>
					<v:textBlock v:margins="rect(4,4,4,4)" v:tabSpace="42.5197"/>
					<v:textRect cx="14.1732" cy="128.039" width="24.81" height="21.2598"/>
					<path d="M0 128.04 A14.1732 14.1732 0 0 1 28.35 128.04 A14.1732 14.1732 0 1 1 0 128.04 Z" class="st1"/>
					<text x="9.61" y="133.44" class="st3" v:langID="1033"><v:paragraph v:horizAlign="1"/><v:tabList/>1</text>				</g>
				<g id="shape43-28" v:mID="43" v:groupContext="shape" transform="translate(28.3465,-99.2126)">
					<title>Sheet.43</title>
					<path d="M0 142.21 L17.79 142.21" class="st4"/>
				</g>
				<g id="shape44-33" v:mID="44" v:groupContext="shape" transform="translate(28.3465,-14.1732)">
					<title>Sheet.44</title>
					<path d="M0 142.21 L17.79 142.21" class="st4"/>
				</g>
				<g id="shape45-38" v:mID="45" v:groupContext="shape" transform="translate(28.3465,-56.6929)">
					<title>Sheet.45</title>
					<path d="M0 142.21 L17.79 142.21" class="st4"/>
				</g>
			</g>
			<g id="shape351-43" v:mID="351" v:groupContext="shape">
				<title>Sheet.351</title>
				<rect x="0" y="0.48" width="113.386" height="141.732" rx="14.1732" ry="14.1732" class="st5"/>
			</g>
		</g>
	</g>
</svg>
