<?xml version="1.0" encoding="UTF-8" standalone="no"?>
<!DOCTYPE svg PUBLIC "-//W3C//DTD SVG 1.1//EN" "http://www.w3.org/Graphics/SVG/1.1/DTD/svg11.dtd">
<!-- Generated by Microsoft Visio, SVG Export ModelComponent.svg Page-1 -->
<svg xmlns="http://www.w3.org/2000/svg" xmlns:xlink="http://www.w3.org/1999/xlink" xmlns:ev="http://www.w3.org/2001/xml-events"
		width="1.74524in" height="2.06901in" viewBox="0 0 125.657 148.969" xml:space="preserve" color-interpolation-filters="sRGB"
		class="st14">
	<style type="text/css">
	<![CDATA[
		.st1 {marker-end:url(#mrkr5-8);stroke:#ff0000;stroke-linecap:round;stroke-linejoin:round;stroke-width:1}
		.st2 {fill:#ff0000;fill-opacity:1;stroke:#ff0000;stroke-opacity:1;stroke-width:0.28409090909091}
		.st3 {fill:none;stroke:#000000;stroke-linecap:round;stroke-linejoin:round;stroke-width:1}
		.st4 {fill:#000000;font-family:Calibri;font-size:0.833336em}
		.st5 {fill:#ffffff;marker-end:url(#mrkr13-15);stroke:#000000;stroke-linecap:round;stroke-linejoin:round;stroke-width:1}
		.st6 {fill:#000000;fill-opacity:1;stroke:#000000;stroke-opacity:1;stroke-width:0.28409090909091}
		.st7 {fill:#000000;font-family:Calibri;font-size:1.99999em}
		.st8 {marker-end:url(#mrkr5-27);stroke:#339966;stroke-linecap:round;stroke-linejoin:round;stroke-width:1}
		.st9 {fill:#339966;fill-opacity:1;stroke:#339966;stroke-opacity:1;stroke-width:0.28409090909091}
		.st10 {stroke:#ff0000;stroke-linecap:round;stroke-linejoin:round;stroke-width:1}
		.st11 {fill:none;stroke:none;stroke-linecap:round;stroke-linejoin:round;stroke-width:1}
		.st12 {fill:#000000;font-family:Calibri;font-size:1.00001em}
		.st13 {stroke:#339966;stroke-linecap:round;stroke-linejoin:round;stroke-width:1}
		.st14 {fill:none;fill-rule:evenodd;font-size:12px;overflow:visible;stroke-linecap:square;stroke-miterlimit:3}
	]]>
	</style>

	<defs id="Markers">
		<g id="lend5">
			<path d="M 2 1 L 0 0 L 1.98117 -0.993387 C 1.67173 -0.364515 1.67301 0.372641 1.98465 1.00043 " style="stroke:none"/>
		</g>
		<marker id="mrkr5-8" class="st2" refX="-6.16" orient="auto" markerUnits="strokeWidth" overflow="visible">
			<use xlink:href="#lend5" transform="scale(-3.52,-3.52) "/>
		</marker>
		<g id="lend13">
			<path d="M 3 1 L 0 0 L 3 -1 L 3 1 " style="stroke:none"/>
		</g>
		<marker id="mrkr13-15" class="st6" refX="-10.56" orient="auto" markerUnits="strokeWidth" overflow="visible">
			<use xlink:href="#lend13" transform="scale(-3.52,-3.52) "/>
		</marker>
		<marker id="mrkr5-27" class="st9" refX="-6.16" orient="auto" markerUnits="strokeWidth" overflow="visible">
			<use xlink:href="#lend5" transform="scale(-3.52,-3.52) "/>
		</marker>
	</defs>
	<g>
		<title>Page-1</title>
		<g id="group142-1" transform="translate(11.1312,-0.5)">
			<title>Sheet.142</title>
			<g id="shape5-2" transform="translate(56.6929,-100.63)">
				<title>Dynamic connector.5</title>
				<path d="M0 156.06 L-22.19 156.06" class="st1"/>
			</g>
			<g id="shape6-9" transform="translate(56.6929,-42.5197)">
				<title>Rounded rectangle</title>
				<desc>Компонент</desc>
				<path d="M42.52 148.97 A14.1733 14.1733 -180 0 0 56.69 134.8 L56.69 57.69 A14.1733 14.1733 -180 0 0 42.52 43.52 L14.17
							 43.52 A14.1733 14.1733 -180 0 0 -0 57.69 L0 134.8 A14.1733 14.1733 -180 0 0 14.17 148.97 L42.52 148.97
							 Z" class="st3"/>
				<text x="4.6" y="56.52" class="st4">Компонент</text>			</g>
			<g id="shape56-12" transform="translate(70.8661,-99.2126)">
				<title>Sheet.56</title>
				<desc>V</desc>
				<ellipse cx="14.1732" cy="134.795" rx="14.1732" ry="14.1732" class="st5"/>
				<text x="7.36" y="142" class="st7">V</text>			</g>
			<g id="shape57-17" transform="translate(70.8661,-56.6929)">
				<title>Sheet.57</title>
				<desc>C</desc>
				<ellipse cx="14.1732" cy="134.795" rx="14.1732" ry="14.1732" class="st5"/>
				<text x="7.77" y="142" class="st7">C</text>			</g>
			<g id="shape58-21" transform="translate(28.3465,-97.7953)">
				<title>Dynamic connector.61</title>
				<path d="M0 141.88 L22.19 141.88" class="st8"/>
			</g>
			<g id="shape59-28" transform="translate(0.640081,-21.2598)">
				<title>Dynamic connector.63</title>
				<path d="M0 141.88 L42.52 141.88" class="st10"/>
			</g>
			<g id="shape60-31" transform="translate(43.1598,-14.1732)">
				<title>Sheet.60</title>
				<desc>Управление</desc>
				<rect x="0" y="120.622" width="70.8661" height="28.3465" class="st11"/>
				<text x="4.76" y="138.4" class="st12">Управление</text>			</g>
			<g id="shape61-34" transform="translate(43.1598,2.84217E-014)">
				<title>Sheet.61</title>
				<desc>Данные</desc>
				<rect x="0" y="120.622" width="70.8661" height="28.3465" class="st11"/>
				<text x="15.3" y="138.4" class="st12">Данные</text>			</g>
			<g id="shape62-37" transform="translate(0.640081,-7.08661)">
				<title>Dynamic connector.66</title>
				<path d="M0 141.88 L42.52 141.88" class="st13"/>
			</g>
			<g id="shape63-40" transform="translate(5.9952E-015,-85.0394)">
				<title>Sheet.63</title>
				<desc>M</desc>
				<ellipse cx="14.1732" cy="134.795" rx="14.1732" ry="14.1732" class="st5"/>
				<text x="4" y="142" class="st7">M</text>			</g>
		</g>
	</g>
</svg>
