<?xml version="1.0" encoding="UTF-8" standalone="no"?>
<!DOCTYPE svg PUBLIC "-//W3C//DTD SVG 1.1//EN" "http://www.w3.org/Graphics/SVG/1.1/DTD/svg11.dtd">
<!-- Generated by Microsoft Visio, SVG Export PassiveComponent.svg Page-1 -->
<svg xmlns="http://www.w3.org/2000/svg" xmlns:xlink="http://www.w3.org/1999/xlink" xmlns:ev="http://www.w3.org/2001/xml-events"
		width="4.24621in" height="2.51981in" viewBox="0 0 305.727 181.426" xml:space="preserve" color-interpolation-filters="sRGB"
		class="st10">
	<style type="text/css">
	<![CDATA[
		.st1 {fill:#e8eef7;stroke:#000000;stroke-linecap:round;stroke-linejoin:round;stroke-width:1}
		.st2 {fill:#000000;font-family:Calibri;font-size:1.33333em}
		.st3 {stroke:#000000;stroke-linecap:round;stroke-linejoin:round;stroke-width:1}
		.st4 {fill:#e8eef7;marker-end:url(#mrkr13-17);stroke:#000000;stroke-linecap:round;stroke-linejoin:round;stroke-width:1}
		.st5 {fill:#000000;fill-opacity:1;stroke:#000000;stroke-opacity:1;stroke-width:0.28409090909091}
		.st6 {marker-end:url(#mrkr13-17);stroke:#000000;stroke-linecap:round;stroke-linejoin:round;stroke-width:1}
		.st7 {fill:none;marker-end:url(#mrkr13-17);stroke:none;stroke-linecap:round;stroke-linejoin:round;stroke-width:1}
		.st8 {fill:#000000;font-family:Calibri;font-size:0.666664em}
		.st9 {fill:#000000;font-family:Arial;font-size:0.666664em}
		.st10 {fill:none;fill-rule:evenodd;font-size:12px;overflow:visible;stroke-linecap:square;stroke-miterlimit:3}
	]]>
	</style>

	<defs id="Markers">
		<g id="lend13">
			<path d="M 3 1 L 0 0 L 3 -1 L 3 1 " style="stroke:none"/>
		</g>
		<marker id="mrkr13-17" class="st5" refX="-10.56" orient="auto" markerUnits="strokeWidth" overflow="visible">
			<use xlink:href="#lend13" transform="scale(-3.52,-3.52) "/>
		</marker>
	</defs>
	<g>
		<title>Page-1</title>
		<g id="group83-1" transform="translate(11.1312,-3.76114)">
			<title>Sheet.83</title>
			<g id="shape1-2" transform="translate(14.1732,-148.819)">
				<title>Sheet.1</title>
				<desc>Компонента</desc>
				<rect x="0" y="153.08" width="113.386" height="28.3465" class="st1"/>
				<text x="14.87" y="172.05" class="st2">Компонента</text>			</g>
			<g id="shape2-5" transform="translate(155.906,-148.819)">
				<title>Sheet.2</title>
				<desc>Модель</desc>
				<rect x="0" y="153.08" width="113.386" height="28.3465" class="st1"/>
				<text x="29.35" y="172.05" class="st2">Модель</text>			</g>
			<g id="shape3-8" transform="translate(252.293,32.6076) rotate(90)">
				<title>Sheet.3</title>
				<path d="M0 181.43 L148.82 181.43" class="st3"/>
			</g>
			<g id="shape4-11" transform="translate(394.025,32.6076) rotate(90)">
				<title>Sheet.4</title>
				<path d="M0 181.43 L148.82 181.43" class="st3"/>
			</g>
			<g id="shape5-14" transform="translate(63.7795,-113.386)">
				<title>Sheet.5</title>
				<rect x="0" y="153.08" width="14.1732" height="28.3465" class="st4"/>
			</g>
			<g id="shape6-18" transform="translate(77.9528,-127.559)">
				<title>Sheet.6</title>
				<path d="M0 181.43 L117 181.43" class="st6"/>
			</g>
			<g id="shape7-23" transform="translate(9.59233E-014,-28.3465)">
				<title>Sheet.7</title>
				<path d="M0 181.43 L53.22 181.43" class="st6"/>
			</g>
			<g id="shape8-28" transform="translate(1.9984E-014,-134.646)">
				<title>Sheet.8</title>
				<desc>Создание</desc>
				<rect x="0" y="167.537" width="65.068" height="13.8898" class="st7"/>
				<text x="16.16" y="176.88" class="st8">Создание</text>			</g>
			<g id="shape9-32" transform="translate(77.9528,-127.559)">
				<title>Sheet.9</title>
				<desc>Добавление слушателя</desc>
				<rect x="0" y="167.253" width="127.559" height="14.1732" class="st7"/>
				<text x="19.54" y="176.74" class="st9">Добавление слушателя</text>			</g>
			<g id="shape10-36" transform="translate(205.512,-120.472)">
				<title>Sheet.10</title>
				<rect x="0" y="167.253" width="14.1732" height="14.1732" class="st4"/>
			</g>
			<g id="shape11-39" transform="translate(205.512,-77.9528)">
				<title>Sheet.11</title>
				<rect x="0" y="153.08" width="14.1732" height="28.3465" class="st4"/>
			</g>
			<g id="shape12-42" transform="translate(205.512,-42.5197)">
				<title>Sheet.12</title>
				<rect x="0" y="153.08" width="14.1732" height="28.3465" class="st4"/>
			</g>
			<g id="shape13-45" transform="translate(63.7795,-85.0394)">
				<title>Sheet.13</title>
				<rect x="0" y="167.253" width="14.1732" height="14.1732" class="st4"/>
			</g>
			<g id="shape14-48" transform="translate(63.7795,-49.6063)">
				<title>Sheet.14</title>
				<rect x="0" y="167.253" width="14.1732" height="14.1732" class="st4"/>
			</g>
			<g id="shape15-51" transform="translate(283.465,263.64) rotate(180)">
				<title>Sheet.15</title>
				<path d="M0 181.43 L53.22 181.43" class="st6"/>
			</g>
			<g id="shape16-56" transform="translate(219.685,-99.2126)">
				<title>Sheet.16</title>
				<desc>Модификация</desc>
				<rect x="0" y="167.253" width="63.7795" height="14.1732" class="st7"/>
				<text x="7.31" y="176.74" class="st8">Модификация</text>			</g>
			<g id="shape17-60" transform="translate(205.512,270.727) rotate(180)">
				<title>Sheet.17</title>
				<path d="M0 181.43 L117 181.43" class="st6"/>
			</g>
			<g id="shape18-65" transform="translate(77.9528,-92.126)">
				<title>Sheet.18</title>
				<desc>Извещение слушателя</desc>
				<rect x="0" y="167.253" width="127.559" height="14.1732" class="st7"/>
				<text x="21.1" y="176.74" class="st9">Извещение слушателя</text>			</g>
			<g id="shape19-69" transform="translate(7.19425E-014,-85.0394)">
				<title>Sheet.19</title>
				<desc>Перерисовка</desc>
				<rect x="0" y="167.537" width="63.7795" height="13.8898" class="st7"/>
				<text x="9.57" y="176.88" class="st8">Перерисовка</text>			</g>
			<g id="shape20-73" transform="translate(205.512,306.16) rotate(180)">
				<title>Sheet.20</title>
				<path d="M0 181.43 L117 181.43" class="st6"/>
			</g>
			<g id="shape21-78" transform="translate(77.9528,-56.6929)">
				<title>Sheet.21</title>
				<desc>Извещение слушателя</desc>
				<rect x="0" y="167.253" width="127.559" height="14.1732" class="st7"/>
				<text x="21.1" y="176.74" class="st9">Извещение слушателя</text>			</g>
			<g id="shape22-82" transform="translate(283.465,299.073) rotate(180)">
				<title>Sheet.22</title>
				<path d="M0 181.43 L53.22 181.43" class="st6"/>
			</g>
			<g id="shape23-87" transform="translate(219.685,-63.7795)">
				<title>Sheet.23</title>
				<desc>Модификация</desc>
				<rect x="0" y="167.253" width="63.7795" height="14.1732" class="st7"/>
				<text x="7.31" y="176.74" class="st8">Модификация</text>			</g>
			<g id="shape24-91" transform="translate(63.7795,-7.37008)">
				<title>Sheet.24</title>
				<rect x="0" y="153.08" width="14.1732" height="28.3465" class="st4"/>
			</g>
			<g id="shape25-94" transform="translate(77.9528,-21.5433)">
				<title>Sheet.25</title>
				<path d="M0 181.43 L117 181.43" class="st6"/>
			</g>
			<g id="shape26-99" transform="translate(7.19425E-014,-28.3465)">
				<title>Sheet.26</title>
				<desc>Уничтожение</desc>
				<rect x="0" y="167.537" width="63.7795" height="13.8898" class="st7"/>
				<text x="8.91" y="176.88" class="st8">Уничтожение</text>			</g>
			<g id="shape27-103" transform="translate(77.9528,-21.5433)">
				<title>Sheet.27</title>
				<desc>Удаление слушателя</desc>
				<rect x="0" y="167.253" width="127.559" height="14.1732" class="st7"/>
				<text x="24.02" y="176.74" class="st9">Удаление слушателя</text>			</g>
			<g id="shape28-107" transform="translate(205.512,-14.4567)">
				<title>Sheet.28</title>
				<rect x="0" y="167.253" width="14.1732" height="14.1732" class="st4"/>
			</g>
			<g id="shape29-110" transform="translate(9.59233E-014,-134.646)">
				<title>Sheet.29</title>
				<path d="M0 181.43 L53.22 181.43" class="st6"/>
			</g>
			<g id="shape30-115" transform="translate(7.19425E-014,-49.8898)">
				<title>Sheet.30</title>
				<desc>Перерисовка</desc>
				<rect x="0" y="167.537" width="63.7795" height="13.8898" class="st7"/>
				<text x="9.57" y="176.88" class="st8">Перерисовка</text>			</g>
		</g>
	</g>
</svg>
