<?xml version="1.0" encoding="UTF-8" standalone="no"?>
<!DOCTYPE svg PUBLIC "-//W3C//DTD SVG 1.1//EN" "http://www.w3.org/Graphics/SVG/1.1/DTD/svg11.dtd">
<!-- Generated by Microsoft Visio, SVG Export ScatterGatherChannel.svg Page-1 -->
<svg xmlns="http://www.w3.org/2000/svg" xmlns:xlink="http://www.w3.org/1999/xlink" xmlns:ev="http://www.w3.org/2001/xml-events"
        width="4.93515in" height="0.998141in" viewBox="0 0 355.331 71.8661" xml:space="preserve" color-interpolation-filters="sRGB"
        class="st7">
    <style type="text/css">
    <![CDATA[
        .st1 {fill:#b3c283;stroke:none;stroke-linecap:round;stroke-linejoin:round;stroke-width:1}
        .st2 {fill:#6b9bc7;stroke:none;stroke-linecap:round;stroke-linejoin:round;stroke-width:1}
        .st3 {fill:#ffffff;stroke:none;stroke-linecap:round;stroke-linejoin:round;stroke-width:1}
        .st4 {fill:none;stroke:#404040;stroke-linecap:round;stroke-linejoin:round;stroke-width:1}
        .st5 {fill:none;stroke:none;stroke-linecap:round;stroke-linejoin:round;stroke-width:0.25}
        .st6 {fill:#0000cc;font-family:Cambria Math;font-size:3em}
        .st7 {fill:none;fill-rule:evenodd;font-size:12px;overflow:visible;stroke-linecap:square;stroke-miterlimit:3}
    ]]>
    </style>

    <g>
        <title>Page-1</title>
        <g id="group664-1" transform="translate(0.5,-0.5)">
            <title>Sheet.664</title>
            <g id="group645-2" transform="translate(269.291,-56.6929)">
                <title>Sheet.645</title>
                <g id="shape646-3" transform="translate(3.2102E-007,0)">
                    <title>Sheet.646</title>
                    <rect x="0" y="57.6929" width="14.1732" height="14.1732" class="st1"/>
                </g>
                <g id="shape647-5" transform="translate(3.2102E-007,-3.2102E-007)">
                    <title>Sheet.647</title>
                    <path d="M14.17 61.24 L14.17 57.69 L0 71.87 L3.54 71.87 L14.17 61.24 Z" class="st2"/>
                </g>
                <g id="shape648-7" transform="translate(7.08661,-3.2102E-007)">
                    <title>Sheet.648</title>
                    <path d="M7.09 64.78 L0 71.87 L3.54 71.87 L7.09 68.32 L7.09 64.78 Z" class="st2"/>
                </g>
                <g id="shape649-9" transform="translate(3.747E-015,-10.6299)">
                    <title>Sheet.649</title>
                    <path d="M0 71.87 L3.54 68.32 L0 68.32 L0 71.87 Z" class="st2"/>
                </g>
                <g id="shape650-11" transform="translate(8.99281E-015,-3.54331)">
                    <title>Sheet.650</title>
                    <path d="M0 71.87 L10.63 61.24 L7.09 61.24 L0 68.32 L0 71.87 Z" class="st2"/>
                </g>
            </g>
            <g id="group651-13" transform="translate(283.465,-56.6929)">
                <title>Sheet.651</title>
                <g id="shape652-14" transform="translate(3.2102E-007,0)">
                    <title>Sheet.652</title>
                    <rect x="0" y="57.6929" width="14.1732" height="14.1732" class="st1"/>
                </g>
                <g id="shape653-16" transform="translate(3.2102E-007,-3.2102E-007)">
                    <title>Sheet.653</title>
                    <path d="M14.17 61.24 L14.17 57.69 L0 71.87 L3.54 71.87 L14.17 61.24 Z" class="st2"/>
                </g>
                <g id="shape654-18" transform="translate(7.08661,-3.2102E-007)">
                    <title>Sheet.654</title>
                    <path d="M7.09 64.78 L0 71.87 L3.54 71.87 L7.09 68.32 L7.09 64.78 Z" class="st2"/>
                </g>
                <g id="shape655-20" transform="translate(3.747E-015,-10.6299)">
                    <title>Sheet.655</title>
                    <path d="M0 71.87 L3.54 68.32 L0 68.32 L0 71.87 Z" class="st2"/>
                </g>
                <g id="shape656-22" transform="translate(8.99281E-015,-3.54331)">
                    <title>Sheet.656</title>
                    <path d="M0 71.87 L10.63 61.24 L7.09 61.24 L0 68.32 L0 71.87 Z" class="st2"/>
                </g>
            </g>
            <g id="group657-24" transform="translate(297.638,-56.6929)">
                <title>Sheet.657</title>
                <g id="shape658-25" transform="translate(3.2102E-007,0)">
                    <title>Sheet.658</title>
                    <rect x="0" y="57.6929" width="14.1732" height="14.1732" class="st1"/>
                </g>
                <g id="shape659-27" transform="translate(3.2102E-007,-3.2102E-007)">
                    <title>Sheet.659</title>
                    <path d="M14.17 61.24 L14.17 57.69 L0 71.87 L3.54 71.87 L14.17 61.24 Z" class="st2"/>
                </g>
                <g id="shape660-29" transform="translate(7.08661,-3.2102E-007)">
                    <title>Sheet.660</title>
                    <path d="M7.09 64.78 L0 71.87 L3.54 71.87 L7.09 68.32 L7.09 64.78 Z" class="st2"/>
                </g>
                <g id="shape661-31" transform="translate(3.747E-015,-10.6299)">
                    <title>Sheet.661</title>
                    <path d="M0 71.87 L3.54 68.32 L0 68.32 L0 71.87 Z" class="st2"/>
                </g>
                <g id="shape662-33" transform="translate(8.99281E-015,-3.54331)">
                    <title>Sheet.662</title>
                    <path d="M0 71.87 L10.63 61.24 L7.09 61.24 L0 68.32 L0 71.87 Z" class="st2"/>
                </g>
            </g>
            <g id="group568-35" transform="translate(255.118,-56.6929)">
                <title>Sheet.568</title>
                <g id="shape569-36" transform="translate(3.2102E-007,0)">
                    <title>Sheet.569</title>
                    <rect x="0" y="57.6929" width="14.1732" height="14.1732" class="st1"/>
                </g>
                <g id="shape570-38" transform="translate(3.2102E-007,-3.2102E-007)">
                    <title>Sheet.570</title>
                    <path d="M14.17 61.24 L14.17 57.69 L0 71.87 L3.54 71.87 L14.17 61.24 Z" class="st2"/>
                </g>
                <g id="shape571-40" transform="translate(7.08661,-3.2102E-007)">
                    <title>Sheet.571</title>
                    <path d="M7.09 64.78 L0 71.87 L3.54 71.87 L7.09 68.32 L7.09 64.78 Z" class="st2"/>
                </g>
                <g id="shape572-42" transform="translate(3.747E-015,-10.6299)">
                    <title>Sheet.572</title>
                    <path d="M0 71.87 L3.54 68.32 L0 68.32 L0 71.87 Z" class="st2"/>
                </g>
                <g id="shape573-44" transform="translate(8.99281E-015,-3.54331)">
                    <title>Sheet.573</title>
                    <path d="M0 71.87 L10.63 61.24 L7.09 61.24 L0 68.32 L0 71.87 Z" class="st2"/>
                </g>
            </g>
            <g id="shape574-46" transform="translate(212.598,-56.6929)">
                <title>Sheet.574</title>
                <rect x="0" y="57.6929" width="28.3465" height="14.1732" class="st2"/>
            </g>
            <g id="group575-48" transform="translate(240.945,-56.6929)">
                <title>Sheet.575</title>
                <g id="shape576-49" transform="translate(3.2102E-007,0)">
                    <title>Sheet.576</title>
                    <rect x="0" y="57.6929" width="14.1732" height="14.1732" class="st1"/>
                </g>
                <g id="shape577-51" transform="translate(3.2102E-007,-3.2102E-007)">
                    <title>Sheet.577</title>
                    <path d="M14.17 61.24 L14.17 57.69 L0 71.87 L3.54 71.87 L14.17 61.24 Z" class="st2"/>
                </g>
                <g id="shape578-53" transform="translate(7.08661,-3.2102E-007)">
                    <title>Sheet.578</title>
                    <path d="M7.09 64.78 L0 71.87 L3.54 71.87 L7.09 68.32 L7.09 64.78 Z" class="st2"/>
                </g>
                <g id="shape579-55" transform="translate(3.747E-015,-10.6299)">
                    <title>Sheet.579</title>
                    <path d="M0 71.87 L3.54 68.32 L0 68.32 L0 71.87 Z" class="st2"/>
                </g>
                <g id="shape580-57" transform="translate(8.99281E-015,-3.54331)">
                    <title>Sheet.580</title>
                    <path d="M0 71.87 L10.63 61.24 L7.09 61.24 L0 68.32 L0 71.87 Z" class="st2"/>
                </g>
            </g>
            <g id="shape581-59" transform="translate(99.2126,-56.6929)">
                <title>Sheet.581</title>
                <rect x="0" y="57.6929" width="42.5197" height="14.1732" class="st3"/>
            </g>
            <g id="shape582-61" transform="translate(28.3465,-56.6929)">
                <title>Sheet.582</title>
                <rect x="0" y="57.6929" width="70.8661" height="14.1732" class="st1"/>
            </g>
            <g id="shape583-63" transform="translate(2.51799E-013,-56.6929)">
                <title>Sheet.583</title>
                <rect x="0" y="57.6929" width="28.3465" height="14.1732" class="st2"/>
            </g>
            <g id="shape590-65" transform="translate(2.55795E-013,-56.6929)">
                <title>Sheet.590</title>
                <rect x="0" y="57.6929" width="141.732" height="14.1732" class="st4"/>
            </g>
            <g id="shape592-67" transform="translate(311.811,-56.6929)">
                <title>Sheet.592</title>
                <rect x="0" y="57.6929" width="42.5197" height="14.1732" class="st3"/>
            </g>
            <g id="shape599-69" transform="translate(212.598,-56.6929)">
                <title>Sheet.599</title>
                <rect x="0" y="57.6929" width="141.732" height="14.1732" class="st4"/>
            </g>
            <g id="shape603-71" transform="translate(269.291,-28.3465)">
                <title>Sheet.603</title>
                <rect x="0" y="57.6929" width="42.5197" height="14.1732" class="st1"/>
            </g>
            <g id="group604-73" transform="translate(255.118,-28.3465)">
                <title>Sheet.604</title>
                <g id="shape605-74" transform="translate(3.2102E-007,0)">
                    <title>Sheet.605</title>
                    <rect x="0" y="57.6929" width="14.1732" height="14.1732" class="st1"/>
                </g>
                <g id="shape606-76" transform="translate(3.2102E-007,-3.2102E-007)">
                    <title>Sheet.606</title>
                    <path d="M14.17 61.24 L14.17 57.69 L0 71.87 L3.54 71.87 L14.17 61.24 Z" class="st2"/>
                </g>
                <g id="shape607-78" transform="translate(7.08661,-3.2102E-007)">
                    <title>Sheet.607</title>
                    <path d="M7.09 64.78 L0 71.87 L3.54 71.87 L7.09 68.32 L7.09 64.78 Z" class="st2"/>
                </g>
                <g id="shape608-80" transform="translate(3.747E-015,-10.6299)">
                    <title>Sheet.608</title>
                    <path d="M0 71.87 L3.54 68.32 L0 68.32 L0 71.87 Z" class="st2"/>
                </g>
                <g id="shape609-82" transform="translate(8.99281E-015,-3.54331)">
                    <title>Sheet.609</title>
                    <path d="M0 71.87 L10.63 61.24 L7.09 61.24 L0 68.32 L0 71.87 Z" class="st2"/>
                </g>
            </g>
            <g id="shape610-84" transform="translate(212.598,-28.3465)">
                <title>Sheet.610</title>
                <rect x="0" y="57.6929" width="28.3465" height="14.1732" class="st2"/>
            </g>
            <g id="group611-86" transform="translate(240.945,-28.3465)">
                <title>Sheet.611</title>
                <g id="shape612-87" transform="translate(3.2102E-007,0)">
                    <title>Sheet.612</title>
                    <rect x="0" y="57.6929" width="14.1732" height="14.1732" class="st1"/>
                </g>
                <g id="shape613-89" transform="translate(3.2102E-007,-3.2102E-007)">
                    <title>Sheet.613</title>
                    <path d="M14.17 61.24 L14.17 57.69 L0 71.87 L3.54 71.87 L14.17 61.24 Z" class="st2"/>
                </g>
                <g id="shape614-91" transform="translate(7.08661,-3.2102E-007)">
                    <title>Sheet.614</title>
                    <path d="M7.09 64.78 L0 71.87 L3.54 71.87 L7.09 68.32 L7.09 64.78 Z" class="st2"/>
                </g>
                <g id="shape615-93" transform="translate(3.747E-015,-10.6299)">
                    <title>Sheet.615</title>
                    <path d="M0 71.87 L3.54 68.32 L0 68.32 L0 71.87 Z" class="st2"/>
                </g>
                <g id="shape616-95" transform="translate(8.99281E-015,-3.54331)">
                    <title>Sheet.616</title>
                    <path d="M0 71.87 L10.63 61.24 L7.09 61.24 L0 68.32 L0 71.87 Z" class="st2"/>
                </g>
            </g>
            <g id="shape617-97" transform="translate(99.2126,-28.3465)">
                <title>Sheet.617</title>
                <rect x="0" y="57.6929" width="42.5197" height="14.1732" class="st3"/>
            </g>
            <g id="shape618-99" transform="translate(28.3465,-28.3465)">
                <title>Sheet.618</title>
                <rect x="0" y="57.6929" width="70.8661" height="14.1732" class="st1"/>
            </g>
            <g id="shape619-101" transform="translate(0,-28.3465)">
                <title>Sheet.619</title>
                <rect x="0" y="57.6929" width="28.3465" height="14.1732" class="st2"/>
            </g>
            <g id="shape620-103" transform="translate(0,-28.3465)">
                <title>Sheet.620</title>
                <rect x="0" y="57.6929" width="141.732" height="14.1732" class="st4"/>
            </g>
            <g id="shape621-105" transform="translate(155.906,-28.3465)">
                <title>Sheet.621</title>
                <desc>⇒</desc>
                <rect x="0" y="57.6929" width="42.5197" height="14.1732" class="st5"/>
                <text x="5.68" y="75.88" class="st6">⇒</text>           </g>
            <g id="shape622-108" transform="translate(311.811,-28.3465)">
                <title>Sheet.622</title>
                <rect x="0" y="57.6929" width="42.5197" height="14.1732" class="st3"/>
            </g>
            <g id="shape623-110" transform="translate(212.598,-28.3465)">
                <title>Sheet.623</title>
                <rect x="0" y="57.6929" width="141.732" height="14.1732" class="st4"/>
            </g>
            <g id="shape624-112" transform="translate(240.945,-3.2102E-006)">
                <title>Sheet.624</title>
                <rect x="0" y="57.6929" width="70.8661" height="14.1732" class="st1"/>
            </g>
            <g id="shape631-114" transform="translate(212.598,1.42109E-014)">
                <title>Sheet.631</title>
                <rect x="0" y="57.6929" width="28.3465" height="14.1732" class="st2"/>
            </g>
            <g id="shape638-116" transform="translate(99.2126,-3.2102E-006)">
                <title>Sheet.638</title>
                <rect x="0" y="57.6929" width="42.5197" height="14.1732" class="st3"/>
            </g>
            <g id="shape639-118" transform="translate(28.3465,-3.2102E-006)">
                <title>Sheet.639</title>
                <rect x="0" y="57.6929" width="70.8661" height="14.1732" class="st1"/>
            </g>
            <g id="shape640-120" transform="translate(1.85851E-013,-3.2102E-006)">
                <title>Sheet.640</title>
                <rect x="0" y="57.6929" width="28.3465" height="14.1732" class="st2"/>
            </g>
            <g id="shape641-122" transform="translate(1.91847E-013,-1.6051E-006)">
                <title>Sheet.641</title>
                <rect x="0" y="57.6929" width="141.732" height="14.1732" class="st4"/>
            </g>
            <g id="shape643-124" transform="translate(311.811,-3.2102E-006)">
                <title>Sheet.643</title>
                <rect x="0" y="57.6929" width="42.5197" height="14.1732" class="st3"/>
            </g>
            <g id="shape644-126" transform="translate(212.598,-1.6051E-006)">
                <title>Sheet.644</title>
                <rect x="0" y="57.6929" width="141.732" height="14.1732" class="st4"/>
            </g>
        </g>
    </g>
</svg>
