<?xml version="1.0" encoding="UTF-8" standalone="no"?>
<!DOCTYPE svg PUBLIC "-//W3C//DTD SVG 1.0//EN" "http://www.w3.org/TR/2001/REC-SVG-20010904/DTD/svg10.dtd">
<!-- Generated by Microsoft Visio 11.0, SVG Export, v1.0 subList-2.svg Page-1 -->
<svg xmlns="http://www.w3.org/2000/svg" xmlns:xlink="http://www.w3.org/1999/xlink" xmlns:ev="http://www.w3.org/2001/xml-events"
		xmlns:v="http://schemas.microsoft.com/visio/2003/SVGExtensions/" width="2.58336in" height="1.40573in"
		viewBox="0 0 186.002 101.213" xml:space="preserve" color-interpolation-filters="sRGB" class="st8">
	<v:documentProperties v:langID="1033" v:metric="true" v:viewMarkup="false"/>

	<style type="text/css">
	<![CDATA[
		.st1 {fill:none;stroke:#000000;stroke-linecap:round;stroke-linejoin:round;stroke-width:1}
		.st2 {fill:#000000;font-family:Arial;font-size:1.5em}
		.st3 {stroke:#000000;stroke-linecap:round;stroke-linejoin:round;stroke-width:1}
		.st4 {fill:none;stroke:none;stroke-linecap:round;stroke-linejoin:round;stroke-width:1}
		.st5 {fill:#000000;font-family:Arial;font-size:1.00001em}
		.st6 {fill:none;stroke:none;stroke-linecap:round;stroke-linejoin:round;stroke-width:0.75}
		.st7 {fill:#0000aa;font-family:Arial;font-size:1.99999em;font-weight:bold}
		.st8 {fill:none;fill-rule:evenodd;font-size:12px;overflow:visible;stroke-linecap:square;stroke-miterlimit:3}
	]]>
	</style>

	<g v:mID="0" v:index="1" v:groupContext="foregroundPage">
		<title>Page-1</title>
		<v:pageProperties v:drawingScale="0.0393701" v:pageScale="0.0393701" v:drawingUnits="24" v:shadowOffsetX="8.50394"
				v:shadowOffsetY="-8.50394"/>
		<g id="group420-1" transform="translate(0.75,-1)" v:mID="420" v:groupContext="group">
			<title>Sheet.420</title>
			<g id="shape377-2" v:mID="377" v:groupContext="shape" transform="translate(28.3465,-56.6929)">
				<title>Circle.377</title>
				<desc>A</desc>
				<v:userDefs>
					<v:ud v:nameU="visVersion" v:val="VT0(11):26"/>
				</v:userDefs>
				<v:textBlock v:margins="rect(4,4,4,4)" v:tabSpace="42.5197"/>
				<v:textRect cx="14.1732" cy="87.0394" width="24.81" height="21.2598"/>
				<path d="M0 87.04 A14.1732 14.1732 0 0 1 28.35 87.04 A14.1732 14.1732 0 1 1 0 87.04 Z" class="st1"/>
				<text x="8.17" y="92.44" class="st2" v:langID="1033"><v:paragraph v:horizAlign="1"/><v:tabList/>A</text>			</g>
			<g id="shape378-5" v:mID="378" v:groupContext="shape" transform="translate(70.8661,-56.6929)">
				<title>Circle.378</title>
				<desc>B</desc>
				<v:userDefs>
					<v:ud v:nameU="visVersion" v:val="VT0(11):26"/>
				</v:userDefs>
				<v:textBlock v:margins="rect(4,4,4,4)" v:tabSpace="42.5197"/>
				<v:textRect cx="14.1732" cy="87.0394" width="24.81" height="21.2598"/>
				<path d="M0 87.04 A14.1732 14.1732 0 0 1 28.35 87.04 A14.1732 14.1732 0 1 1 0 87.04 Z" class="st1"/>
				<text x="8.17" y="92.44" class="st2" v:langID="1033"><v:paragraph v:horizAlign="1"/><v:tabList/>B</text>			</g>
			<g id="shape380-8" v:mID="380" v:groupContext="shape" transform="translate(113.386,-56.6929)">
				<title>Circle.380</title>
				<desc>D</desc>
				<v:userDefs>
					<v:ud v:nameU="visVersion" v:val="VT0(11):26"/>
				</v:userDefs>
				<v:textBlock v:margins="rect(4,4,4,4)" v:tabSpace="42.5197"/>
				<v:textRect cx="14.1732" cy="87.0394" width="24.81" height="21.2598"/>
				<path d="M0 87.04 A14.1732 14.1732 0 0 1 28.35 87.04 A14.1732 14.1732 0 1 1 0 87.04 Z" class="st1"/>
				<text x="7.67" y="92.44" class="st2" v:langID="1033"><v:paragraph v:horizAlign="1"/><v:tabList/>D</text>			</g>
			<g id="shape381-11" v:mID="381" v:groupContext="shape" transform="translate(155.906,-56.6929)">
				<title>Circle.381</title>
				<desc>E</desc>
				<v:userDefs>
					<v:ud v:nameU="visVersion" v:val="VT0(11):26"/>
				</v:userDefs>
				<v:textBlock v:margins="rect(4,4,4,4)" v:tabSpace="42.5197"/>
				<v:textRect cx="14.1732" cy="87.0394" width="24.81" height="21.2598"/>
				<path d="M0 87.04 A14.1732 14.1732 0 0 1 28.35 87.04 A14.1732 14.1732 0 1 1 0 87.04 Z" class="st1"/>
				<text x="8.17" y="92.44" class="st2" v:langID="1033"><v:paragraph v:horizAlign="1"/><v:tabList/>E</text>			</g>
			<g id="shape382-14" v:mID="382" v:groupContext="shape" transform="translate(56.6929,-70.8661)">
				<title>Sheet.382</title>
				<path d="M0 101.21 L14.17 101.21" class="st3"/>
			</g>
			<g id="shape383-17" v:mID="383" v:groupContext="shape" transform="translate(99.2126,-70.8661)">
				<title>Sheet.383</title>
				<path d="M0 101.21 L14.17 101.21" class="st3"/>
			</g>
			<g id="shape385-20" v:mID="385" v:groupContext="shape" transform="translate(141.732,-70.8661)">
				<title>Sheet.385</title>
				<path d="M0 101.21 L14.17 101.21" class="st3"/>
			</g>
			<g id="shape386-23" v:mID="386" v:groupContext="shape" transform="translate(70.8661,-85.0394)">
				<title>Sheet.386</title>
				<desc>1</desc>
				<v:textBlock v:margins="rect(4,4,4,4)" v:tabSpace="42.5197"/>
				<v:textRect cx="14.1732" cy="94.126" width="28.35" height="14.1732"/>
				<rect x="0" y="87.0394" width="28.3465" height="14.1732" class="st4"/>
				<text x="10.84" y="97.73" class="st5" v:langID="1033"><v:paragraph v:horizAlign="1"/><v:tabList/>1</text>			</g>
			<g id="shape388-26" v:mID="388" v:groupContext="shape" transform="translate(113.386,-85.0394)">
				<title>Sheet.388</title>
				<desc>2</desc>
				<v:textBlock v:margins="rect(4,4,4,4)" v:tabSpace="42.5197"/>
				<v:textRect cx="14.1732" cy="94.126" width="28.35" height="14.1732"/>
				<rect x="0" y="87.0394" width="28.3465" height="14.1732" class="st4"/>
				<text x="10.84" y="97.73" class="st5" v:langID="1033"><v:paragraph v:horizAlign="1"/><v:tabList/>2</text>			</g>
			<g id="shape389-29" v:mID="389" v:groupContext="shape" transform="translate(155.906,-85.0394)">
				<title>Sheet.389</title>
				<desc>3</desc>
				<v:textBlock v:margins="rect(4,4,4,4)" v:tabSpace="42.5197"/>
				<v:textRect cx="14.1732" cy="94.126" width="28.35" height="14.1732"/>
				<rect x="0" y="87.0394" width="28.3465" height="14.1732" class="st4"/>
				<text x="10.84" y="97.73" class="st5" v:langID="1033"><v:paragraph v:horizAlign="1"/><v:tabList/>3</text>			</g>
			<g id="shape390-32" v:mID="390" v:groupContext="shape" transform="translate(28.3465,-85.0394)">
				<title>Sheet.390</title>
				<desc>0</desc>
				<v:textBlock v:margins="rect(4,4,4,4)" v:tabSpace="42.5197"/>
				<v:textRect cx="14.1732" cy="94.126" width="28.35" height="14.1732"/>
				<rect x="0" y="87.0394" width="28.3465" height="14.1732" class="st4"/>
				<text x="10.84" y="97.73" class="st5" v:langID="1033"><v:paragraph v:horizAlign="1"/><v:tabList/>0</text>			</g>
			<g id="shape391-35" v:mID="391" v:groupContext="shape" transform="translate(70.8661,-2.55795E-013)">
				<title>Circle.391</title>
				<desc>B</desc>
				<v:userDefs>
					<v:ud v:nameU="visVersion" v:val="VT0(11):26"/>
				</v:userDefs>
				<v:textBlock v:margins="rect(4,4,4,4)" v:tabSpace="42.5197"/>
				<v:textRect cx="14.1732" cy="87.0394" width="24.81" height="21.2598"/>
				<path d="M0 87.04 A14.1732 14.1732 0 0 1 28.35 87.04 A14.1732 14.1732 0 1 1 0 87.04 Z" class="st1"/>
				<text x="8.17" y="92.44" class="st2" v:langID="1033"><v:paragraph v:horizAlign="1"/><v:tabList/>B</text>			</g>
			<g id="shape393-38" v:mID="393" v:groupContext="shape" transform="translate(113.386,0)">
				<title>Circle.393</title>
				<desc>D</desc>
				<v:userDefs>
					<v:ud v:nameU="visVersion" v:val="VT0(11):26"/>
				</v:userDefs>
				<v:textBlock v:margins="rect(4,4,4,4)" v:tabSpace="42.5197"/>
				<v:textRect cx="14.1732" cy="87.0394" width="24.81" height="21.2598"/>
				<path d="M0 87.04 A14.1732 14.1732 0 0 1 28.35 87.04 A14.1732 14.1732 0 1 1 0 87.04 Z" class="st1"/>
				<text x="7.67" y="92.44" class="st2" v:langID="1033"><v:paragraph v:horizAlign="1"/><v:tabList/>D</text>			</g>
			<g id="shape394-41" v:mID="394" v:groupContext="shape" transform="translate(99.2126,-14.1732)">
				<title>Sheet.394</title>
				<path d="M0 101.21 L14.17 101.21" class="st3"/>
			</g>
			<g id="shape396-44" v:mID="396" v:groupContext="shape" transform="translate(70.8661,-28.3465)">
				<title>Sheet.396</title>
				<desc>0</desc>
				<v:textBlock v:margins="rect(4,4,4,4)" v:tabSpace="42.5197"/>
				<v:textRect cx="14.1732" cy="94.126" width="28.35" height="14.1732"/>
				<rect x="0" y="87.0394" width="28.3465" height="14.1732" class="st4"/>
				<text x="10.84" y="97.73" class="st5" v:langID="1033"><v:paragraph v:horizAlign="1"/><v:tabList/>0</text>			</g>
			<g id="shape398-47" v:mID="398" v:groupContext="shape" transform="translate(113.386,-28.3465)">
				<title>Sheet.398</title>
				<desc>1</desc>
				<v:textBlock v:margins="rect(4,4,4,4)" v:tabSpace="42.5197"/>
				<v:textRect cx="14.1732" cy="94.126" width="28.35" height="14.1732"/>
				<rect x="0" y="87.0394" width="28.3465" height="14.1732" class="st4"/>
				<text x="10.84" y="97.73" class="st5" v:langID="1033"><v:paragraph v:horizAlign="1"/><v:tabList/>1</text>			</g>
			<g id="shape379-50" v:mID="379" v:groupContext="shape" transform="translate(6.39488E-014,-14.1732)">
				<title>Sheet.379</title>
				<desc>sl</desc>
				<v:textBlock v:margins="rect(2,2,2,2)" v:tabSpace="42.5197"/>
				<v:textRect cx="14.1732" cy="87.0394" width="28.35" height="28.3465"/>
				<rect x="0" y="72.8661" width="28.3465" height="28.3465" class="st6"/>
				<text x="4.17" y="94.24" class="st7" v:langID="1033"><v:paragraph v:horizAlign="1"/><v:tabList/>sl</text>			</g>
			<g id="shape384-53" v:mID="384" v:groupContext="shape" transform="translate(6.39488E-014,-56.6929)">
				<title>Sheet.384</title>
				<desc>l</desc>
				<v:textBlock v:margins="rect(2,2,2,2)" v:tabSpace="42.5197"/>
				<v:textRect cx="14.1732" cy="87.0394" width="28.35" height="28.3465"/>
				<rect x="0" y="72.8661" width="28.3465" height="28.3465" class="st6"/>
				<text x="10.84" y="94.24" class="st7" v:langID="1033"><v:paragraph v:horizAlign="1"/><v:tabList/>l</text>			</g>
		</g>
	</g>
</svg>
