<?xml version="1.0" encoding="UTF-8" standalone="no"?>
<!DOCTYPE svg PUBLIC "-//W3C//DTD SVG 1.0//EN" "http://www.w3.org/TR/2001/REC-SVG-20010904/DTD/svg10.dtd">
<!-- Generated by Microsoft Visio 11.0, SVG Export, v1.0 subList-3.svg Page-1 -->
<svg xmlns="http://www.w3.org/2000/svg" xmlns:xlink="http://www.w3.org/1999/xlink" xmlns:ev="http://www.w3.org/2001/xml-events"
		xmlns:v="http://schemas.microsoft.com/visio/2003/SVGExtensions/" width="3.17391in" height="1.40573in"
		viewBox="0 0 228.522 101.213" xml:space="preserve" color-interpolation-filters="sRGB" class="st8">
	<v:documentProperties v:langID="1033" v:metric="true" v:viewMarkup="false"/>

	<style type="text/css">
	<![CDATA[
		.st1 {fill:none;stroke:none;stroke-linecap:round;stroke-linejoin:round;stroke-width:0.75}
		.st2 {fill:#0000aa;font-family:Arial;font-size:1.99999em;font-weight:bold}
		.st3 {fill:none;stroke:#000000;stroke-linecap:round;stroke-linejoin:round;stroke-width:1}
		.st4 {fill:#000000;font-family:Arial;font-size:1.5em}
		.st5 {stroke:#000000;stroke-linecap:round;stroke-linejoin:round;stroke-width:1}
		.st6 {fill:none;stroke:none;stroke-linecap:round;stroke-linejoin:round;stroke-width:1}
		.st7 {fill:#000000;font-family:Arial;font-size:1.00001em}
		.st8 {fill:none;fill-rule:evenodd;font-size:12px;overflow:visible;stroke-linecap:square;stroke-miterlimit:3}
	]]>
	</style>

	<g v:mID="0" v:index="1" v:groupContext="foregroundPage">
		<title>Page-1</title>
		<v:pageProperties v:drawingScale="0.0393701" v:pageScale="0.0393701" v:drawingUnits="24" v:shadowOffsetX="8.50394"
				v:shadowOffsetY="-8.50394"/>
		<g id="group421-1" transform="translate(0.75,-1)" v:mID="421" v:groupContext="group">
			<title>Sheet.421</title>
			<g id="shape411-2" v:mID="411" v:groupContext="shape" transform="translate(0,-14.1732)">
				<title>Sheet.411</title>
				<desc>sl</desc>
				<v:textBlock v:margins="rect(2,2,2,2)" v:tabSpace="42.5197"/>
				<v:textRect cx="14.1732" cy="87.0394" width="28.35" height="28.3465"/>
				<rect x="0" y="72.8661" width="28.3465" height="28.3465" class="st1"/>
				<text x="4.17" y="94.24" class="st2" v:langID="1033"><v:paragraph v:horizAlign="1"/><v:tabList/>sl</text>			</g>
			<g id="shape412-5" v:mID="412" v:groupContext="shape" transform="translate(0,-56.6929)">
				<title>Sheet.412</title>
				<desc>l</desc>
				<v:textBlock v:margins="rect(2,2,2,2)" v:tabSpace="42.5197"/>
				<v:textRect cx="14.1732" cy="87.0394" width="28.35" height="28.3465"/>
				<rect x="0" y="72.8661" width="28.3465" height="28.3465" class="st1"/>
				<text x="10.84" y="94.24" class="st2" v:langID="1033"><v:paragraph v:horizAlign="1"/><v:tabList/>l</text>			</g>
			<g id="shape387-8" v:mID="387" v:groupContext="shape" transform="translate(28.3465,-56.6929)">
				<title>Circle.387</title>
				<desc>A</desc>
				<v:userDefs>
					<v:ud v:nameU="visVersion" v:val="VT0(11):26"/>
				</v:userDefs>
				<v:textBlock v:margins="rect(4,4,4,4)" v:tabSpace="42.5197"/>
				<v:textRect cx="14.1732" cy="87.0394" width="24.81" height="21.2598"/>
				<path d="M0 87.04 A14.1732 14.1732 0 0 1 28.35 87.04 A14.1732 14.1732 0 1 1 0 87.04 Z" class="st3"/>
				<text x="8.17" y="92.44" class="st4" v:langID="1033"><v:paragraph v:horizAlign="1"/><v:tabList/>A</text>			</g>
			<g id="shape392-11" v:mID="392" v:groupContext="shape" transform="translate(70.8661,-56.6929)">
				<title>Circle.392</title>
				<desc>X</desc>
				<v:userDefs>
					<v:ud v:nameU="visVersion" v:val="VT0(11):26"/>
				</v:userDefs>
				<v:textBlock v:margins="rect(4,4,4,4)" v:tabSpace="42.5197"/>
				<v:textRect cx="14.1732" cy="87.0394" width="24.81" height="21.2598"/>
				<path d="M0 87.04 A14.1732 14.1732 0 0 1 28.35 87.04 A14.1732 14.1732 0 1 1 0 87.04 Z" class="st3"/>
				<text x="8.17" y="92.44" class="st4" v:langID="1033"><v:paragraph v:horizAlign="1"/><v:tabList/>X</text>			</g>
			<g id="shape395-14" v:mID="395" v:groupContext="shape" transform="translate(113.386,-56.6929)">
				<title>Circle.395</title>
				<desc>B</desc>
				<v:userDefs>
					<v:ud v:nameU="visVersion" v:val="VT0(11):26"/>
				</v:userDefs>
				<v:textBlock v:margins="rect(4,4,4,4)" v:tabSpace="42.5197"/>
				<v:textRect cx="14.1732" cy="87.0394" width="24.81" height="21.2598"/>
				<path d="M0 87.04 A14.1732 14.1732 0 0 1 28.35 87.04 A14.1732 14.1732 0 1 1 0 87.04 Z" class="st3"/>
				<text x="8.17" y="92.44" class="st4" v:langID="1033"><v:paragraph v:horizAlign="1"/><v:tabList/>B</text>			</g>
			<g id="shape397-17" v:mID="397" v:groupContext="shape" transform="translate(155.906,-56.6929)">
				<title>Circle.397</title>
				<desc>D</desc>
				<v:userDefs>
					<v:ud v:nameU="visVersion" v:val="VT0(11):26"/>
				</v:userDefs>
				<v:textBlock v:margins="rect(4,4,4,4)" v:tabSpace="42.5197"/>
				<v:textRect cx="14.1732" cy="87.0394" width="24.81" height="21.2598"/>
				<path d="M0 87.04 A14.1732 14.1732 0 0 1 28.35 87.04 A14.1732 14.1732 0 1 1 0 87.04 Z" class="st3"/>
				<text x="7.67" y="92.44" class="st4" v:langID="1033"><v:paragraph v:horizAlign="1"/><v:tabList/>D</text>			</g>
			<g id="shape399-20" v:mID="399" v:groupContext="shape" transform="translate(198.425,-56.6929)">
				<title>Circle.399</title>
				<desc>E</desc>
				<v:userDefs>
					<v:ud v:nameU="visVersion" v:val="VT0(11):26"/>
				</v:userDefs>
				<v:textBlock v:margins="rect(4,4,4,4)" v:tabSpace="42.5197"/>
				<v:textRect cx="14.1732" cy="87.0394" width="24.81" height="21.2598"/>
				<path d="M0 87.04 A14.1732 14.1732 0 0 1 28.35 87.04 A14.1732 14.1732 0 1 1 0 87.04 Z" class="st3"/>
				<text x="8.17" y="92.44" class="st4" v:langID="1033"><v:paragraph v:horizAlign="1"/><v:tabList/>E</text>			</g>
			<g id="shape400-23" v:mID="400" v:groupContext="shape" transform="translate(56.6929,-70.8661)">
				<title>Sheet.400</title>
				<path d="M0 101.21 L14.17 101.21" class="st5"/>
			</g>
			<g id="shape401-26" v:mID="401" v:groupContext="shape" transform="translate(99.2126,-70.8661)">
				<title>Sheet.401</title>
				<path d="M0 101.21 L14.17 101.21" class="st5"/>
			</g>
			<g id="shape402-29" v:mID="402" v:groupContext="shape" transform="translate(141.732,-70.8661)">
				<title>Sheet.402</title>
				<path d="M0 101.21 L14.17 101.21" class="st5"/>
			</g>
			<g id="shape403-32" v:mID="403" v:groupContext="shape" transform="translate(184.252,-70.8661)">
				<title>Sheet.403</title>
				<path d="M0 101.21 L14.17 101.21" class="st5"/>
			</g>
			<g id="shape404-35" v:mID="404" v:groupContext="shape" transform="translate(70.8661,-85.0394)">
				<title>Sheet.404</title>
				<desc>1</desc>
				<v:textBlock v:margins="rect(4,4,4,4)" v:tabSpace="42.5197"/>
				<v:textRect cx="14.1732" cy="94.126" width="28.35" height="14.1732"/>
				<rect x="0" y="87.0394" width="28.3465" height="14.1732" class="st6"/>
				<text x="10.84" y="97.73" class="st7" v:langID="1033"><v:paragraph v:horizAlign="1"/><v:tabList/>1</text>			</g>
			<g id="shape405-38" v:mID="405" v:groupContext="shape" transform="translate(113.386,-85.0394)">
				<title>Sheet.405</title>
				<desc>2</desc>
				<v:textBlock v:margins="rect(4,4,4,4)" v:tabSpace="42.5197"/>
				<v:textRect cx="14.1732" cy="94.126" width="28.35" height="14.1732"/>
				<rect x="0" y="87.0394" width="28.3465" height="14.1732" class="st6"/>
				<text x="10.84" y="97.73" class="st7" v:langID="1033"><v:paragraph v:horizAlign="1"/><v:tabList/>2</text>			</g>
			<g id="shape406-41" v:mID="406" v:groupContext="shape" transform="translate(155.906,-85.0394)">
				<title>Sheet.406</title>
				<desc>3</desc>
				<v:textBlock v:margins="rect(4,4,4,4)" v:tabSpace="42.5197"/>
				<v:textRect cx="14.1732" cy="94.126" width="28.35" height="14.1732"/>
				<rect x="0" y="87.0394" width="28.3465" height="14.1732" class="st6"/>
				<text x="10.84" y="97.73" class="st7" v:langID="1033"><v:paragraph v:horizAlign="1"/><v:tabList/>3</text>			</g>
			<g id="shape407-44" v:mID="407" v:groupContext="shape" transform="translate(198.425,-85.0394)">
				<title>Sheet.407</title>
				<desc>4</desc>
				<v:textBlock v:margins="rect(4,4,4,4)" v:tabSpace="42.5197"/>
				<v:textRect cx="14.1732" cy="94.126" width="28.35" height="14.1732"/>
				<rect x="0" y="87.0394" width="28.3465" height="14.1732" class="st6"/>
				<text x="10.84" y="97.73" class="st7" v:langID="1033"><v:paragraph v:horizAlign="1"/><v:tabList/>4</text>			</g>
			<g id="shape408-47" v:mID="408" v:groupContext="shape" transform="translate(28.3465,-85.0394)">
				<title>Sheet.408</title>
				<desc>0</desc>
				<v:textBlock v:margins="rect(4,4,4,4)" v:tabSpace="42.5197"/>
				<v:textRect cx="14.1732" cy="94.126" width="28.35" height="14.1732"/>
				<rect x="0" y="87.0394" width="28.3465" height="14.1732" class="st6"/>
				<text x="10.84" y="97.73" class="st7" v:langID="1033"><v:paragraph v:horizAlign="1"/><v:tabList/>0</text>			</g>
			<g id="shape409-50" v:mID="409" v:groupContext="shape" transform="translate(70.8661,-2.41585E-013)">
				<title>Circle.409</title>
				<desc>X</desc>
				<v:userDefs>
					<v:ud v:nameU="visVersion" v:val="VT0(11):26"/>
				</v:userDefs>
				<v:textBlock v:margins="rect(4,4,4,4)" v:tabSpace="42.5197"/>
				<v:textRect cx="14.1732" cy="87.0394" width="24.81" height="21.2598"/>
				<path d="M0 87.04 A14.1732 14.1732 0 0 1 28.35 87.04 A14.1732 14.1732 0 1 1 0 87.04 Z" class="st3"/>
				<text x="8.17" y="92.44" class="st4" v:langID="1033"><v:paragraph v:horizAlign="1"/><v:tabList/>X</text>			</g>
			<g id="shape410-53" v:mID="410" v:groupContext="shape" transform="translate(113.386,-1.27898E-013)">
				<title>Circle.410</title>
				<desc>B</desc>
				<v:userDefs>
					<v:ud v:nameU="visVersion" v:val="VT0(11):26"/>
				</v:userDefs>
				<v:textBlock v:margins="rect(4,4,4,4)" v:tabSpace="42.5197"/>
				<v:textRect cx="14.1732" cy="87.0394" width="24.81" height="21.2598"/>
				<path d="M0 87.04 A14.1732 14.1732 0 0 1 28.35 87.04 A14.1732 14.1732 0 1 1 0 87.04 Z" class="st3"/>
				<text x="8.17" y="92.44" class="st4" v:langID="1033"><v:paragraph v:horizAlign="1"/><v:tabList/>B</text>			</g>
			<g id="shape413-56" v:mID="413" v:groupContext="shape" transform="translate(155.906,1.42109E-014)">
				<title>Circle.413</title>
				<desc>D</desc>
				<v:userDefs>
					<v:ud v:nameU="visVersion" v:val="VT0(11):26"/>
				</v:userDefs>
				<v:textBlock v:margins="rect(4,4,4,4)" v:tabSpace="42.5197"/>
				<v:textRect cx="14.1732" cy="87.0394" width="24.81" height="21.2598"/>
				<path d="M0 87.04 A14.1732 14.1732 0 0 1 28.35 87.04 A14.1732 14.1732 0 1 1 0 87.04 Z" class="st3"/>
				<text x="7.67" y="92.44" class="st4" v:langID="1033"><v:paragraph v:horizAlign="1"/><v:tabList/>D</text>			</g>
			<g id="shape414-59" v:mID="414" v:groupContext="shape" transform="translate(99.2126,-14.1732)">
				<title>Sheet.414</title>
				<path d="M0 101.21 L14.17 101.21" class="st5"/>
			</g>
			<g id="shape415-62" v:mID="415" v:groupContext="shape" transform="translate(141.732,-14.1732)">
				<title>Sheet.415</title>
				<path d="M0 101.21 L14.17 101.21" class="st5"/>
			</g>
			<g id="shape416-65" v:mID="416" v:groupContext="shape" transform="translate(70.8661,-28.3465)">
				<title>Sheet.416</title>
				<desc>0</desc>
				<v:textBlock v:margins="rect(4,4,4,4)" v:tabSpace="42.5197"/>
				<v:textRect cx="14.1732" cy="94.126" width="28.35" height="14.1732"/>
				<rect x="0" y="87.0394" width="28.3465" height="14.1732" class="st6"/>
				<text x="10.84" y="97.73" class="st7" v:langID="1033"><v:paragraph v:horizAlign="1"/><v:tabList/>0</text>			</g>
			<g id="shape417-68" v:mID="417" v:groupContext="shape" transform="translate(113.386,-28.3465)">
				<title>Sheet.417</title>
				<desc>1</desc>
				<v:textBlock v:margins="rect(4,4,4,4)" v:tabSpace="42.5197"/>
				<v:textRect cx="14.1732" cy="94.126" width="28.35" height="14.1732"/>
				<rect x="0" y="87.0394" width="28.3465" height="14.1732" class="st6"/>
				<text x="10.84" y="97.73" class="st7" v:langID="1033"><v:paragraph v:horizAlign="1"/><v:tabList/>1</text>			</g>
			<g id="shape418-71" v:mID="418" v:groupContext="shape" transform="translate(155.906,-28.3465)">
				<title>Sheet.418</title>
				<desc>2</desc>
				<v:textBlock v:margins="rect(4,4,4,4)" v:tabSpace="42.5197"/>
				<v:textRect cx="14.1732" cy="94.126" width="28.35" height="14.1732"/>
				<rect x="0" y="87.0394" width="28.3465" height="14.1732" class="st6"/>
				<text x="10.84" y="97.73" class="st7" v:langID="1033"><v:paragraph v:horizAlign="1"/><v:tabList/>2</text>			</g>
		</g>
	</g>
</svg>
