<?xml version="1.0" encoding="UTF-8" standalone="no"?>
<!DOCTYPE svg PUBLIC "-//W3C//DTD SVG 1.1//EN" "http://www.w3.org/Graphics/SVG/1.1/DTD/svg11.dtd">
<!-- Generated by Microsoft Visio, SVG Export ThreadsReadersWritersHandover.svg Page-1 -->
<svg xmlns="http://www.w3.org/2000/svg" xmlns:xlink="http://www.w3.org/1999/xlink" xmlns:ev="http://www.w3.org/2001/xml-events"
		width="2.95963in" height="3.05837in" viewBox="0 0 213.093 220.203" xml:space="preserve" color-interpolation-filters="sRGB"
		class="st8">
	<style type="text/css">
	<![CDATA[
		.st1 {fill:none;stroke:#000000;stroke-linecap:round;stroke-linejoin:round;stroke-width:0.24}
		.st2 {fill:none;stroke:none;stroke-linecap:round;stroke-linejoin:round;stroke-width:0.75}
		.st3 {fill:#000000;font-family:Arial;font-size:1.33333em}
		.st4 {stroke:#000000;stroke-linecap:round;stroke-linejoin:round;stroke-width:3.12}
		.st5 {fill:#3366ff;stroke:#000000;stroke-linecap:round;stroke-linejoin:round;stroke-width:0.24}
		.st6 {fill:#ff0000;stroke:#000000;stroke-linecap:round;stroke-linejoin:round;stroke-width:0.24}
		.st7 {fill:none;stroke:#000000;stroke-dasharray:1.68,1.2;stroke-linecap:round;stroke-linejoin:round;stroke-width:0.24}
		.st8 {fill:none;fill-rule:evenodd;font-size:12px;overflow:visible;stroke-linecap:square;stroke-miterlimit:3}
	]]>
	</style>

	<g>
		<title>Page-1</title>
		<g id="shape652-1" transform="translate(0.375,-143.292)">
			<title>Sheet.652</title>
			<rect x="0" y="163.51" width="212.598" height="56.6929" class="st1"/>
		</g>
		<g id="shape653-3" transform="translate(0.375,-157.466)">
			<title>Sheet.653</title>
			<desc>dr</desc>
			<rect x="0" y="191.856" width="42.5197" height="28.3465" class="st2"/>
			<text x="14.15" y="210.83" class="st3">dr</text>		</g>
		<g id="group654-6" transform="translate(71.2411,-199.985)">
			<title>Sheet.654</title>
			<g id="shape655-7" transform="translate(71.4331,440.405) rotate(180)">
				<title>Sheet.655</title>
				<path d="M0 220.2 L71.43 220.2" class="st4"/>
			</g>
			<g id="shape656-10" transform="translate(0.566929,0)">
				<title>Sheet.656</title>
				<desc>e</desc>
				<rect x="0" y="200.36" width="73.7008" height="19.8425" class="st2"/>
				<text x="32.4" y="215.08" class="st3">e</text>			</g>
		</g>
		<g id="group657-13" transform="translate(127.934,-143.292)">
			<title>Sheet.657</title>
			<g id="shape658-14" transform="translate(71.4331,440.405) rotate(180)">
				<title>Sheet.658</title>
				<path d="M0 220.2 L71.43 220.2" class="st4"/>
			</g>
			<g id="shape659-17" transform="translate(0.566929,0)">
				<title>Sheet.659</title>
				<desc>w</desc>
				<rect x="0" y="200.36" width="73.7008" height="19.8425" class="st2"/>
				<text x="31.07" y="215.08" class="st3">w</text>			</g>
		</g>
		<g id="group660-20" transform="translate(14.5482,-143.292)">
			<title>Sheet.660</title>
			<g id="shape661-21" transform="translate(71.4331,440.405) rotate(180)">
				<title>Sheet.661</title>
				<path d="M0 220.2 L71.43 220.2" class="st4"/>
			</g>
			<g id="shape662-24" transform="translate(0.566929,0)">
				<title>Sheet.662</title>
				<desc>r</desc>
				<rect x="0" y="200.36" width="73.7008" height="19.8425" class="st2"/>
				<text x="34.19" y="215.08" class="st3">r</text>			</g>
		</g>
		<g id="group663-27" transform="translate(42.8947,-161.009)">
			<title>Sheet.663</title>
			<g id="shape664-28">
				<title>Sheet.664</title>
				<ellipse cx="10.6299" cy="209.573" rx="10.6299" ry="10.6299" class="st5"/>
			</g>
			<g id="shape665-30" transform="translate(5.31496,0)">
				<title>Sheet.665</title>
				<ellipse cx="10.6299" cy="209.573" rx="10.6299" ry="10.6299" class="st5"/>
			</g>
			<g id="shape666-32" transform="translate(10.6299,0)">
				<title>Sheet.666</title>
				<ellipse cx="10.6299" cy="209.573" rx="10.6299" ry="10.6299" class="st5"/>
			</g>
			<g id="shape667-34" transform="translate(15.9449,0)">
				<title>Sheet.667</title>
				<ellipse cx="10.6299" cy="209.573" rx="10.6299" ry="10.6299" class="st5"/>
			</g>
			<g id="shape668-36" transform="translate(21.2598,0)">
				<title>Sheet.668</title>
				<ellipse cx="10.6299" cy="209.573" rx="10.6299" ry="10.6299" class="st5"/>
			</g>
		</g>
		<g id="shape669-38" transform="translate(113.761,-157.466)">
			<title>Sheet.669</title>
			<desc>dw</desc>
			<rect x="0" y="191.856" width="42.5197" height="28.3465" class="st2"/>
			<text x="11.03" y="210.83" class="st3">dw</text>		</g>
		<g id="group670-41" transform="translate(156.281,-161.009)">
			<title>Sheet.670</title>
			<g id="shape671-42">
				<title>Sheet.671</title>
				<ellipse cx="10.6299" cy="209.573" rx="10.6299" ry="10.6299" class="st6"/>
			</g>
			<g id="shape672-44" transform="translate(5.31496,0)">
				<title>Sheet.672</title>
				<ellipse cx="10.6299" cy="209.573" rx="10.6299" ry="10.6299" class="st6"/>
			</g>
			<g id="shape673-46" transform="translate(10.6299,0)">
				<title>Sheet.673</title>
				<ellipse cx="10.6299" cy="209.573" rx="10.6299" ry="10.6299" class="st6"/>
			</g>
			<g id="shape674-48" transform="translate(15.9449,0)">
				<title>Sheet.674</title>
				<ellipse cx="10.6299" cy="209.573" rx="10.6299" ry="10.6299" class="st6"/>
			</g>
			<g id="shape675-50" transform="translate(21.2598,0)">
				<title>Sheet.675</title>
				<ellipse cx="10.6299" cy="209.573" rx="10.6299" ry="10.6299" class="st6"/>
			</g>
		</g>
		<g id="shape676-52" transform="translate(0.375,-1.56)">
			<title>Sheet.676</title>
			<rect x="0" y="78.4704" width="212.598" height="141.732" class="st1"/>
		</g>
		<g id="group677-54" transform="translate(35.8081,-104.316)">
			<title>Sheet.677</title>
			<g id="shape678-55">
				<title>Sheet.678</title>
				<ellipse cx="10.6299" cy="209.573" rx="10.6299" ry="10.6299" class="st5"/>
			</g>
			<g id="shape679-57" transform="translate(5.31496,0)">
				<title>Sheet.679</title>
				<ellipse cx="10.6299" cy="209.573" rx="10.6299" ry="10.6299" class="st5"/>
			</g>
			<g id="shape680-59" transform="translate(10.6299,0)">
				<title>Sheet.680</title>
				<ellipse cx="10.6299" cy="209.573" rx="10.6299" ry="10.6299" class="st5"/>
			</g>
			<g id="shape681-61" transform="translate(15.9449,0)">
				<title>Sheet.681</title>
				<ellipse cx="10.6299" cy="209.573" rx="10.6299" ry="10.6299" class="st5"/>
			</g>
			<g id="shape682-63" transform="translate(21.2598,0)">
				<title>Sheet.682</title>
				<ellipse cx="10.6299" cy="209.573" rx="10.6299" ry="10.6299" class="st5"/>
			</g>
		</g>
		<g id="shape683-65" transform="translate(0.375,-100.773)">
			<title>Sheet.683</title>
			<desc>nr</desc>
			<rect x="0" y="191.856" width="42.5197" height="28.3465" class="st2"/>
			<text x="14.15" y="210.83" class="st3">nr</text>		</g>
		<g id="shape684-68" transform="translate(173.997,-104.316)">
			<title>Sheet.684</title>
			<ellipse cx="10.6299" cy="209.573" rx="10.6299" ry="10.6299" class="st6"/>
		</g>
		<g id="shape685-70" transform="translate(127.934,-100.773)">
			<title>Sheet.685</title>
			<desc>nw</desc>
			<rect x="0" y="191.856" width="42.5197" height="28.3465" class="st2"/>
			<text x="11.03" y="210.83" class="st3">nw</text>		</g>
		<g id="shape686-73" transform="translate(57.0679,-44.0797)">
			<title>Sheet.686</title>
			<desc>Data</desc>
			<ellipse cx="49.6063" cy="198.943" rx="49.6063" ry="21.2598" class="st7"/>
			<text x="32.71" y="203.74" class="st3">Data</text>		</g>
		<g id="group687-76" transform="translate(71.2411,-1.56)">
			<title>Sheet.687</title>
			<g id="shape688-77" transform="translate(71.4331,440.405) rotate(180)">
				<title>Sheet.688</title>
				<path d="M0 220.2 L71.43 220.2" class="st4"/>
			</g>
			<g id="shape689-80" transform="translate(0.566929,0)">
				<title>Sheet.689</title>
				<desc>e</desc>
				<rect x="0" y="200.36" width="73.7008" height="19.8425" class="st2"/>
				<text x="32.4" y="215.08" class="st3">e</text>			</g>
		</g>
	</g>
</svg>
