<?xml version="1.0" encoding="UTF-8" standalone="no"?>
<!DOCTYPE svg PUBLIC "-//W3C//DTD SVG 1.1//EN" "http://www.w3.org/Graphics/SVG/1.1/DTD/svg11.dtd">
<!-- Generated by Microsoft Visio, SVG Export ThreadsDiningPhilosophers.svg Page-1 -->
<svg xmlns="http://www.w3.org/2000/svg" xmlns:xlink="http://www.w3.org/1999/xlink" xmlns:ev="http://www.w3.org/2001/xml-events"
		width="2.36554in" height="2.36554in" viewBox="0 0 170.319 170.319" xml:space="preserve" color-interpolation-filters="sRGB"
		class="st3">
	<style type="text/css">
	<![CDATA[
		.st1 {fill:none;stroke:#000000;stroke-linecap:round;stroke-linejoin:round;stroke-width:0.24}
		.st2 {stroke:#000000;stroke-linecap:round;stroke-linejoin:round;stroke-width:0.24}
		.st3 {fill:none;fill-rule:evenodd;font-size:12px;overflow:visible;stroke-linecap:square;stroke-miterlimit:3}
	]]>
	</style>

	<g>
		<title>Page-1</title>
		<g id="group615-1" transform="translate(0.12,-0.12)">
			<title>Sheet.615</title>
			<g id="shape616-2">
				<title>Sheet.616</title>
				<ellipse cx="85.0394" cy="85.2794" rx="85.0394" ry="85.0394" class="st1"/>
			</g>
			<g id="shape617-4" transform="translate(28.1065,-13.9332)">
				<title>Sheet.617</title>
				<ellipse cx="21.3798" cy="148.939" rx="21.3798" ry="21.3798" class="st1"/>
			</g>
			<g id="group618-6" transform="translate(77.9528,-14.1732)">
				<title>Sheet.618</title>
				<g id="shape619-7" transform="translate(2.9976E-015,-28.3465)">
					<title>Sheet.619</title>
					<path d="M0 156.15 L0 170.32 L14.17 170.32" class="st2"/>
				</g>
				<g id="shape620-10" transform="translate(-156.146,141.972) rotate(-90)">
					<title>Sheet.620</title>
					<path d="M0 170.32 L14.17 170.32" class="st2"/>
				</g>
				<g id="shape621-13" transform="translate(177.405,127.799) rotate(90)">
					<title>Sheet.621</title>
					<path d="M0 170.32 L42.52 170.32" class="st2"/>
				</g>
			</g>
			<g id="group622-16" transform="translate(-8.1583,63.5005) rotate(-72)">
				<title>Sheet.622</title>
				<g id="shape623-17" transform="translate(2.9976E-015,-28.3465)">
					<title>Sheet.623</title>
					<path d="M0 156.15 L0 170.32 L14.17 170.32" class="st2"/>
				</g>
				<g id="shape624-20" transform="translate(-156.146,141.972) rotate(-90)">
					<title>Sheet.624</title>
					<path d="M0 170.32 L14.17 170.32" class="st2"/>
				</g>
				<g id="shape625-23" transform="translate(177.405,127.799) rotate(90)">
					<title>Sheet.625</title>
					<path d="M0 170.32 L42.52 170.32" class="st2"/>
				</g>
			</g>
			<g id="group626-26" transform="translate(173.966,50.021) rotate(72)">
				<title>Sheet.626</title>
				<g id="shape627-27" transform="translate(2.9976E-015,-28.3465)">
					<title>Sheet.627</title>
					<path d="M0 156.15 L0 170.32 L14.17 170.32" class="st2"/>
				</g>
				<g id="shape628-30" transform="translate(-156.146,141.972) rotate(-90)">
					<title>Sheet.628</title>
					<path d="M0 170.32 L14.17 170.32" class="st2"/>
				</g>
				<g id="shape629-33" transform="translate(177.405,127.799) rotate(90)">
					<title>Sheet.629</title>
					<path d="M0 170.32 L42.52 170.32" class="st2"/>
				</g>
			</g>
			<g id="group630-36" transform="translate(35.5606,160.325) rotate(-144)">
				<title>Sheet.630</title>
				<g id="shape631-37" transform="translate(2.9976E-015,-28.3465)">
					<title>Sheet.631</title>
					<path d="M0 156.15 L0 170.32 L14.17 170.32" class="st2"/>
				</g>
				<g id="shape632-40" transform="translate(-156.146,141.972) rotate(-90)">
					<title>Sheet.632</title>
					<path d="M0 170.32 L14.17 170.32" class="st2"/>
				</g>
				<g id="shape633-43" transform="translate(177.405,127.799) rotate(90)">
					<title>Sheet.633</title>
					<path d="M0 170.32 L42.52 170.32" class="st2"/>
				</g>
			</g>
			<g id="group634-46" transform="translate(145.985,151.994) rotate(144)">
				<title>Sheet.634</title>
				<g id="shape635-47" transform="translate(2.9976E-015,-28.3465)">
					<title>Sheet.635</title>
					<path d="M0 156.15 L0 170.32 L14.17 170.32" class="st2"/>
				</g>
				<g id="shape636-50" transform="translate(-156.146,141.972) rotate(-90)">
					<title>Sheet.636</title>
					<path d="M0 170.32 L14.17 170.32" class="st2"/>
				</g>
				<g id="shape637-53" transform="translate(177.405,127.799) rotate(90)">
					<title>Sheet.637</title>
					<path d="M0 170.32 L42.52 170.32" class="st2"/>
				</g>
			</g>
			<g id="shape638-56" transform="translate(99.2126,-14.4132)">
				<title>Sheet.638</title>
				<ellipse cx="21.1398" cy="149.179" rx="21.1398" ry="21.1398" class="st1"/>
			</g>
			<g id="shape639-58" transform="translate(113.386,-85.0394)">
				<title>Sheet.639</title>
				<ellipse cx="21.1398" cy="149.179" rx="21.1398" ry="21.1398" class="st1"/>
			</g>
			<g id="shape640-60" transform="translate(13.9332,-85.0394)">
				<title>Sheet.640</title>
				<ellipse cx="21.3798" cy="148.939" rx="21.3798" ry="21.3798" class="st1"/>
			</g>
			<g id="shape641-62" transform="translate(63.5395,-123.776)">
				<title>Sheet.641</title>
				<ellipse cx="21.2598" cy="149.059" rx="21.2598" ry="21.2598" class="st1"/>
			</g>
		</g>
	</g>
</svg>
