<?xml version="1.0" encoding="UTF-8" standalone="no"?>
<!DOCTYPE svg PUBLIC "-//W3C//DTD SVG 1.0//EN" "http://www.w3.org/TR/2001/REC-SVG-20010904/DTD/svg10.dtd">
<!-- Generated by Microsoft Visio 11.0, SVG Export, v1.0 TreeSet.svg Page-1 -->
<svg xmlns="http://www.w3.org/2000/svg" xmlns:xlink="http://www.w3.org/1999/xlink" xmlns:ev="http://www.w3.org/2001/xml-events"
		xmlns:v="http://schemas.microsoft.com/visio/2003/SVGExtensions/" width="2.38998in" height="1.60258in"
		viewBox="0 0 172.079 115.386" xml:space="preserve" color-interpolation-filters="sRGB" class="st4">
	<v:documentProperties v:langID="1033" v:metric="true" v:viewMarkup="false"/>

	<style type="text/css">
	<![CDATA[
		.st1 {fill:none;stroke:#000000;stroke-linecap:round;stroke-linejoin:round;stroke-width:1}
		.st2 {fill:#000000;font-family:Calibri;font-size:1.5em}
		.st3 {stroke:#000000;stroke-linecap:round;stroke-linejoin:round;stroke-width:1}
		.st4 {fill:none;fill-rule:evenodd;font-size:12px;overflow:visible;stroke-linecap:square;stroke-miterlimit:3}
	]]>
	</style>

	<g v:mID="0" v:index="1" v:groupContext="foregroundPage">
		<title>Page-1</title>
		<v:pageProperties v:drawingScale="0.0393701" v:pageScale="0.0393701" v:drawingUnits="24" v:shadowOffsetX="8.50394"
				v:shadowOffsetY="-8.50394"/>
		<g id="group15-1" transform="translate(1,-1)" v:mID="15" v:groupContext="group">
			<title>Sheet.15</title>
			<g id="shape16-2" v:mID="16" v:groupContext="shape" transform="translate(1.39888E-014,-42.5197)">
				<title>Circle.16</title>
				<desc>A</desc>
				<v:userDefs>
					<v:ud v:nameU="visVersion" v:val="VT0(11):26"/>
				</v:userDefs>
				<v:textBlock v:margins="rect(4,4,4,4)" v:tabSpace="42.5197"/>
				<v:textRect cx="14.1732" cy="101.213" width="24.81" height="21.2598"/>
				<path d="M0 101.21 A14.1732 14.1732 0 0 1 28.35 101.21 A14.1732 14.1732 0 1 1 0 101.21 Z" class="st1"/>
				<text x="8.97" y="106.61" class="st2" v:langID="1033"><v:paragraph v:horizAlign="1"/><v:tabList/>A</text>			</g>
			<g id="shape17-5" v:mID="17" v:groupContext="shape" transform="translate(56.6929,-85.0394)">
				<title>Circle.17</title>
				<desc>C</desc>
				<v:userDefs>
					<v:ud v:nameU="visVersion" v:val="VT0(11):26"/>
				</v:userDefs>
				<v:textBlock v:margins="rect(4,4,4,4)" v:tabSpace="42.5197"/>
				<v:textRect cx="14.1732" cy="101.213" width="24.81" height="21.2598"/>
				<path d="M0 101.21 A14.1732 14.1732 0 0 1 28.35 101.21 A14.1732 14.1732 0 1 1 0 101.21 Z" class="st1"/>
				<text x="9.37" y="106.61" class="st2" v:langID="1033"><v:paragraph v:horizAlign="1"/><v:tabList/>C</text>			</g>
			<g id="shape18-8" v:mID="18" v:groupContext="shape" transform="translate(28.3465,-4.26326E-014)">
				<title>Circle.20</title>
				<desc>B</desc>
				<v:userDefs>
					<v:ud v:nameU="visVersion" v:val="VT0(11):26"/>
				</v:userDefs>
				<v:textBlock v:margins="rect(4,4,4,4)" v:tabSpace="42.5197"/>
				<v:textRect cx="14.1732" cy="101.213" width="24.81" height="21.2598"/>
				<path d="M0 101.21 A14.1732 14.1732 0 0 1 28.35 101.21 A14.1732 14.1732 0 1 1 0 101.21 Z" class="st1"/>
				<text x="9.28" y="106.61" class="st2" v:langID="1033"><v:paragraph v:horizAlign="1"/><v:tabList/>B</text>			</g>
			<g id="shape19-11" v:mID="19" v:groupContext="shape" transform="translate(113.386,-42.5197)">
				<title>Circle.21</title>
				<desc>E</desc>
				<v:userDefs>
					<v:ud v:nameU="visVersion" v:val="VT0(11):26"/>
				</v:userDefs>
				<v:textBlock v:margins="rect(4,4,4,4)" v:tabSpace="42.5197"/>
				<v:textRect cx="14.1732" cy="101.213" width="24.81" height="21.2598"/>
				<path d="M0 101.21 A14.1732 14.1732 0 0 1 28.35 101.21 A14.1732 14.1732 0 1 1 0 101.21 Z" class="st1"/>
				<text x="9.78" y="106.61" class="st2" v:langID="1033"><v:paragraph v:horizAlign="1"/><v:tabList/>E</text>			</g>
			<g id="shape20-14" v:mID="20" v:groupContext="shape" transform="translate(98.8513,142.287) rotate(165.964)">
				<title>Sheet.20</title>
				<path d="M0 115.39 L58.44 115.39" class="st3"/>
			</g>
			<g id="shape21-17" v:mID="21" v:groupContext="shape" transform="translate(65.7753,-30.3381) rotate(26.5651)">
				<title>Sheet.21</title>
				<path d="M0 115.39 L31.69 115.39" class="st3"/>
			</g>
			<g id="shape22-20" v:mID="22" v:groupContext="shape" transform="translate(98.8513,-81.5942) rotate(14.0362)">
				<title>Sheet.22</title>
				<path d="M0 115.39 L58.44 115.39" class="st3"/>
			</g>
			<g id="shape23-23" v:mID="23" v:groupContext="shape" transform="translate(85.0394,-4.26326E-014)">
				<title>Circle.23</title>
				<desc>D</desc>
				<v:userDefs>
					<v:ud v:nameU="visVersion" v:val="VT0(11):26"/>
				</v:userDefs>
				<v:textBlock v:margins="rect(4,4,4,4)" v:tabSpace="42.5197"/>
				<v:textRect cx="14.1732" cy="101.213" width="24.81" height="21.2598"/>
				<path d="M0 101.21 A14.1732 14.1732 0 0 1 28.35 101.21 A14.1732 14.1732 0 1 1 0 101.21 Z" class="st1"/>
				<text x="8.64" y="106.61" class="st2" v:langID="1033"><v:paragraph v:horizAlign="1"/><v:tabList/>D</text>			</g>
			<g id="shape24-26" v:mID="24" v:groupContext="shape" transform="translate(179.161,176.07) rotate(153.435)">
				<title>Sheet.24</title>
				<path d="M0 115.39 L31.69 115.39" class="st3"/>
			</g>
			<g id="shape25-29" v:mID="25" v:groupContext="shape" transform="translate(141.732,-4.26326E-014)">
				<title>Circle.27</title>
				<desc>F</desc>
				<v:userDefs>
					<v:ud v:nameU="visVersion" v:val="VT0(11):26"/>
				</v:userDefs>
				<v:textBlock v:margins="rect(4,4,4,4)" v:tabSpace="42.5197"/>
				<v:textRect cx="14.1732" cy="101.213" width="24.81" height="21.2598"/>
				<path d="M0 101.21 A14.1732 14.1732 0 0 1 28.35 101.21 A14.1732 14.1732 0 1 1 0 101.21 Z" class="st1"/>
				<text x="10.04" y="106.61" class="st2" v:langID="1033"><v:paragraph v:horizAlign="1"/><v:tabList/>F</text>			</g>
			<g id="shape26-32" v:mID="26" v:groupContext="shape" transform="translate(179.161,-30.3381) rotate(26.5651)">
				<title>Sheet.26</title>
				<path d="M0 115.39 L31.69 115.39" class="st3"/>
			</g>
		</g>
	</g>
</svg>
